M48
; DRILL file {KiCad (5.1.6)-1} date 07/08/20 14:40:52
; FORMAT={-:-/ absolute / inch / decimal}
; #@! TF.CreationDate,2020-07-08T14:40:52+02:00
; #@! TF.GenerationSoftware,Kicad,Pcbnew,(5.1.6)-1
; #@! TF.FileFunction,Plated,1,2,PTH
FMAT,2
INCH
T1C0.0157
T2C0.0197
T3C0.0394
T4C0.0512
T5C0.0581
T6C0.1024
T7C0.1260
%
G90
G05
T1
X3.0709Y-3.6811
X3.0709Y-3.7795
X3.0906Y-4.0748
X3.0906Y-4.1732
X3.0906Y-4.4685
X3.0906Y-4.5669
X3.0906Y-4.8819
X3.0906Y-4.9409
X3.1102Y-3.6811
X3.1102Y-3.7795
X3.1299Y-4.0748
X3.1299Y-4.1732
X3.1299Y-4.4685
X3.1299Y-4.5669
X3.1299Y-4.8819
X3.1299Y-4.9409
X3.2087Y-3.6024
X3.2087Y-3.9961
X3.2087Y-4.3898
X3.248Y-4.7835
X3.3071Y-3.5433
X3.3071Y-3.6024
X3.3071Y-3.6811
X3.3071Y-3.7402
X3.3268Y-3.937
X3.3268Y-3.9961
X3.3268Y-4.0748
X3.3268Y-4.1339
X3.3268Y-4.3307
X3.3268Y-4.3898
X3.3268Y-4.4685
X3.3268Y-4.5276
X3.3268Y-4.7244
X3.3268Y-4.7835
X3.3268Y-4.8622
X3.3268Y-4.9213
X3.3661Y-3.5433
X3.3661Y-3.6024
X3.3661Y-3.6811
X3.3661Y-3.7402
X3.3858Y-3.937
X3.3858Y-3.9961
X3.3858Y-4.0748
X3.3858Y-4.1339
X3.3858Y-4.3307
X3.3858Y-4.3898
X3.3858Y-4.4685
X3.3858Y-4.5276
X3.3858Y-4.7244
X3.3858Y-4.7835
X3.3858Y-4.8622
X3.3858Y-4.9213
X3.4252Y-3.5433
X3.4252Y-3.6024
X3.4252Y-3.6811
X3.4252Y-3.7402
X3.4449Y-3.937
X3.4449Y-3.9961
X3.4449Y-4.0748
X3.4449Y-4.1339
X3.4449Y-4.3307
X3.4449Y-4.3898
X3.4449Y-4.4685
X3.4449Y-4.5276
X3.4449Y-4.7244
X3.4449Y-4.7835
X3.4449Y-4.8622
X3.4449Y-4.9213
X3.4843Y-3.5433
X3.4843Y-3.6024
X3.4843Y-3.6811
X3.4843Y-3.7402
X3.5039Y-3.937
X3.5039Y-3.9961
X3.5039Y-4.0748
X3.5039Y-4.1339
X3.5039Y-4.3307
X3.5039Y-4.3898
X3.5039Y-4.4685
X3.5039Y-4.5276
X3.5039Y-4.7244
X3.5039Y-4.7835
X3.5039Y-4.8622
X3.5039Y-4.9213
X3.5433Y-3.5433
X3.5433Y-3.6024
X3.5433Y-3.6811
X3.5433Y-3.7402
X3.563Y-3.937
X3.563Y-3.9961
X3.563Y-4.0748
X3.563Y-4.1339
X3.563Y-4.3307
X3.563Y-4.3898
X3.563Y-4.4685
X3.563Y-4.5276
X3.563Y-4.7244
X3.563Y-4.7835
X3.563Y-4.8622
X3.563Y-4.9213
T2
X2.0709Y-5.7087
X2.0985Y-5.6418
X2.0985Y-5.7755
X2.1654Y-5.6142
X2.1654Y-5.8031
X2.2322Y-5.6418
X2.2322Y-5.7755
X2.2598Y-5.7087
X5.2205Y-3.3465
X5.2481Y-3.2796
X5.2481Y-3.4133
X5.315Y-3.252
X5.315Y-3.4409
X5.3818Y-3.2796
X5.3818Y-3.4133
X5.4094Y-3.3465
X2.0709Y-3.3465
X2.0985Y-3.2796
X2.0985Y-3.4133
X2.1654Y-3.252
X2.1654Y-3.4409
X2.2322Y-3.2796
X2.2322Y-3.4133
X2.2598Y-3.3465
X5.2205Y-5.7087
X5.2481Y-5.6418
X5.2481Y-5.7755
X5.315Y-5.6142
X5.315Y-5.8031
X5.3818Y-5.6418
X5.3818Y-5.7755
X5.4094Y-5.7087
T3
X3.7386Y-5.1181
X3.8386Y-5.1181
X2.7543Y-5.1181
X2.8543Y-5.1181
X3.2465Y-5.1181
X3.3465Y-5.1181
T4
X3.937Y-5.4134
X4.1339Y-5.4134
X4.7244Y-3.5433
X4.7244Y-3.7402
X4.7244Y-3.937
X4.7244Y-4.1339
X4.7244Y-4.3307
X4.7244Y-4.5276
X4.7244Y-4.7244
X4.7244Y-4.9213
X2.9528Y-5.4134
X3.1496Y-5.4134
X3.4449Y-5.4134
X3.6417Y-5.4134
X2.4606Y-5.4134
X2.6575Y-5.4134
T5
X2.3622Y-4.5622
X2.3622Y-4.6622
X2.3622Y-4.7622
X2.3622Y-4.8622
X2.4622Y-4.5622
X2.4622Y-4.6622
X2.4622Y-4.7622
X2.4622Y-4.8622
X2.5622Y-4.5622
X2.5622Y-4.6622
X2.5622Y-4.7622
X2.5622Y-4.8622
X2.6622Y-4.5622
X2.6622Y-4.6622
X2.6622Y-4.7622
X2.6622Y-4.8622
X2.3591Y-3.8929
X2.3591Y-3.9929
X2.3591Y-4.0929
X2.3591Y-4.1929
X2.4591Y-3.8929
X2.4591Y-3.9929
X2.4591Y-4.0929
X2.4591Y-4.1929
X2.5591Y-3.8929
X2.5591Y-3.9929
X2.5591Y-4.0929
X2.5591Y-4.1929
X2.6591Y-3.8929
X2.6591Y-3.9929
X2.6591Y-4.0929
X2.6591Y-4.1929
T6
X3.7598Y-4.0354
X3.9555Y-4.0354
X4.1154Y-4.0354
X4.315Y-4.0354
X3.7598Y-4.8228
X3.9555Y-4.8228
X4.1154Y-4.8228
X4.315Y-4.8228
X3.7598Y-4.4291
X3.9555Y-4.4291
X4.1154Y-4.4291
X4.315Y-4.4291
X3.7598Y-3.6417
X3.9555Y-3.6417
X4.1154Y-3.6417
X4.315Y-3.6417
T7
X2.1654Y-5.7087
X5.315Y-3.3465
X2.1654Y-3.3465
X5.315Y-5.7087
T0
M30
