G04 #@! TF.GenerationSoftware,KiCad,Pcbnew,(5.1.6)-1*
G04 #@! TF.CreationDate,2020-07-08T14:40:54+02:00*
G04 #@! TF.ProjectId,power-distribution,706f7765-722d-4646-9973-747269627574,rev?*
G04 #@! TF.SameCoordinates,Original*
G04 #@! TF.FileFunction,Copper,L1,Top*
G04 #@! TF.FilePolarity,Positive*
%FSLAX46Y46*%
G04 Gerber Fmt 4.6, Leading zero omitted, Abs format (unit mm)*
G04 Created by KiCad (PCBNEW (5.1.6)-1) date 2020-07-08 14:40:54*
%MOMM*%
%LPD*%
G01*
G04 APERTURE LIST*
G04 #@! TA.AperFunction,ComponentPad*
%ADD10C,2.600000*%
G04 #@! TD*
G04 #@! TA.AperFunction,ComponentPad*
%ADD11R,2.600000X2.600000*%
G04 #@! TD*
G04 #@! TA.AperFunction,ComponentPad*
%ADD12C,4.000000*%
G04 #@! TD*
G04 #@! TA.AperFunction,ComponentPad*
%ADD13C,3.500000*%
G04 #@! TD*
G04 #@! TA.AperFunction,ComponentPad*
%ADD14C,0.800000*%
G04 #@! TD*
G04 #@! TA.AperFunction,ComponentPad*
%ADD15C,6.400000*%
G04 #@! TD*
G04 #@! TA.AperFunction,ComponentPad*
%ADD16R,1.700000X1.700000*%
G04 #@! TD*
G04 #@! TA.AperFunction,ComponentPad*
%ADD17O,1.700000X1.700000*%
G04 #@! TD*
G04 #@! TA.AperFunction,SMDPad,CuDef*
%ADD18R,2.200000X1.200000*%
G04 #@! TD*
G04 #@! TA.AperFunction,SMDPad,CuDef*
%ADD19R,6.400000X5.800000*%
G04 #@! TD*
G04 #@! TA.AperFunction,ComponentPad*
%ADD20C,2.200000*%
G04 #@! TD*
G04 #@! TA.AperFunction,ViaPad*
%ADD21C,0.800000*%
G04 #@! TD*
G04 #@! TA.AperFunction,Conductor*
%ADD22C,0.500000*%
G04 #@! TD*
G04 #@! TA.AperFunction,Conductor*
%ADD23C,1.000000*%
G04 #@! TD*
G04 #@! TA.AperFunction,Conductor*
%ADD24C,0.250000*%
G04 #@! TD*
G04 #@! TA.AperFunction,Conductor*
%ADD25C,0.254000*%
G04 #@! TD*
G04 APERTURE END LIST*
D10*
X105000000Y-137500000D03*
D11*
X100000000Y-137500000D03*
X87500000Y-137500000D03*
D10*
X92500000Y-137500000D03*
X80000000Y-137500000D03*
D11*
X75000000Y-137500000D03*
X62500000Y-137500000D03*
D10*
X67500000Y-137500000D03*
D12*
X95500000Y-122500000D03*
D13*
X100470000Y-122500000D03*
X104530000Y-122500000D03*
D12*
X109600000Y-122500000D03*
X95500000Y-112500000D03*
D13*
X100470000Y-112500000D03*
X104530000Y-112500000D03*
D12*
X109600000Y-112500000D03*
X95500000Y-102500000D03*
D13*
X100470000Y-102500000D03*
X104530000Y-102500000D03*
D12*
X109600000Y-102500000D03*
X95500000Y-92500000D03*
D13*
X100470000Y-92500000D03*
X104530000Y-92500000D03*
D12*
X109600000Y-92500000D03*
D14*
X136697056Y-83302944D03*
X135000000Y-82600000D03*
X133302944Y-83302944D03*
X132600000Y-85000000D03*
X133302944Y-86697056D03*
X135000000Y-87400000D03*
X136697056Y-86697056D03*
X137400000Y-85000000D03*
D15*
X135000000Y-85000000D03*
D14*
X136697056Y-143302944D03*
X135000000Y-142600000D03*
X133302944Y-143302944D03*
X132600000Y-145000000D03*
X133302944Y-146697056D03*
X135000000Y-147400000D03*
X136697056Y-146697056D03*
X137400000Y-145000000D03*
D15*
X135000000Y-145000000D03*
D14*
X56697056Y-143302944D03*
X55000000Y-142600000D03*
X53302944Y-143302944D03*
X52600000Y-145000000D03*
X53302944Y-146697056D03*
X55000000Y-147400000D03*
X56697056Y-146697056D03*
X57400000Y-145000000D03*
D15*
X55000000Y-145000000D03*
D14*
X56697056Y-83302944D03*
X55000000Y-82600000D03*
X53302944Y-83302944D03*
X52600000Y-85000000D03*
X53302944Y-86697056D03*
X55000000Y-87400000D03*
X56697056Y-86697056D03*
X57400000Y-85000000D03*
D15*
X55000000Y-85000000D03*
D16*
X97500000Y-130000000D03*
D17*
X94960000Y-130000000D03*
X82460000Y-130000000D03*
D16*
X85000000Y-130000000D03*
X72500000Y-130000000D03*
D17*
X69960000Y-130000000D03*
D18*
X81200000Y-120220000D03*
X81200000Y-124780000D03*
D19*
X87500000Y-122500000D03*
X87500000Y-112500000D03*
D18*
X81200000Y-114780000D03*
X81200000Y-110220000D03*
X81200000Y-100220000D03*
X81200000Y-104780000D03*
D19*
X87500000Y-102500000D03*
X87100000Y-92500000D03*
D18*
X80800000Y-94780000D03*
X80800000Y-90220000D03*
G04 #@! TA.AperFunction,SMDPad,CuDef*
G36*
G01*
X99762500Y-130350000D02*
X100237500Y-130350000D01*
G75*
G02*
X100475000Y-130587500I0J-237500D01*
G01*
X100475000Y-131162500D01*
G75*
G02*
X100237500Y-131400000I-237500J0D01*
G01*
X99762500Y-131400000D01*
G75*
G02*
X99525000Y-131162500I0J237500D01*
G01*
X99525000Y-130587500D01*
G75*
G02*
X99762500Y-130350000I237500J0D01*
G01*
G37*
G04 #@! TD.AperFunction*
G04 #@! TA.AperFunction,SMDPad,CuDef*
G36*
G01*
X99762500Y-128600000D02*
X100237500Y-128600000D01*
G75*
G02*
X100475000Y-128837500I0J-237500D01*
G01*
X100475000Y-129412500D01*
G75*
G02*
X100237500Y-129650000I-237500J0D01*
G01*
X99762500Y-129650000D01*
G75*
G02*
X99525000Y-129412500I0J237500D01*
G01*
X99525000Y-128837500D01*
G75*
G02*
X99762500Y-128600000I237500J0D01*
G01*
G37*
G04 #@! TD.AperFunction*
G04 #@! TA.AperFunction,SMDPad,CuDef*
G36*
G01*
X87262500Y-128600000D02*
X87737500Y-128600000D01*
G75*
G02*
X87975000Y-128837500I0J-237500D01*
G01*
X87975000Y-129412500D01*
G75*
G02*
X87737500Y-129650000I-237500J0D01*
G01*
X87262500Y-129650000D01*
G75*
G02*
X87025000Y-129412500I0J237500D01*
G01*
X87025000Y-128837500D01*
G75*
G02*
X87262500Y-128600000I237500J0D01*
G01*
G37*
G04 #@! TD.AperFunction*
G04 #@! TA.AperFunction,SMDPad,CuDef*
G36*
G01*
X87262500Y-130350000D02*
X87737500Y-130350000D01*
G75*
G02*
X87975000Y-130587500I0J-237500D01*
G01*
X87975000Y-131162500D01*
G75*
G02*
X87737500Y-131400000I-237500J0D01*
G01*
X87262500Y-131400000D01*
G75*
G02*
X87025000Y-131162500I0J237500D01*
G01*
X87025000Y-130587500D01*
G75*
G02*
X87262500Y-130350000I237500J0D01*
G01*
G37*
G04 #@! TD.AperFunction*
G04 #@! TA.AperFunction,SMDPad,CuDef*
G36*
G01*
X79762500Y-128600000D02*
X80237500Y-128600000D01*
G75*
G02*
X80475000Y-128837500I0J-237500D01*
G01*
X80475000Y-129412500D01*
G75*
G02*
X80237500Y-129650000I-237500J0D01*
G01*
X79762500Y-129650000D01*
G75*
G02*
X79525000Y-129412500I0J237500D01*
G01*
X79525000Y-128837500D01*
G75*
G02*
X79762500Y-128600000I237500J0D01*
G01*
G37*
G04 #@! TD.AperFunction*
G04 #@! TA.AperFunction,SMDPad,CuDef*
G36*
G01*
X79762500Y-130350000D02*
X80237500Y-130350000D01*
G75*
G02*
X80475000Y-130587500I0J-237500D01*
G01*
X80475000Y-131162500D01*
G75*
G02*
X80237500Y-131400000I-237500J0D01*
G01*
X79762500Y-131400000D01*
G75*
G02*
X79525000Y-131162500I0J237500D01*
G01*
X79525000Y-130587500D01*
G75*
G02*
X79762500Y-130350000I237500J0D01*
G01*
G37*
G04 #@! TD.AperFunction*
G04 #@! TA.AperFunction,SMDPad,CuDef*
G36*
G01*
X67262500Y-130350000D02*
X67737500Y-130350000D01*
G75*
G02*
X67975000Y-130587500I0J-237500D01*
G01*
X67975000Y-131162500D01*
G75*
G02*
X67737500Y-131400000I-237500J0D01*
G01*
X67262500Y-131400000D01*
G75*
G02*
X67025000Y-131162500I0J237500D01*
G01*
X67025000Y-130587500D01*
G75*
G02*
X67262500Y-130350000I237500J0D01*
G01*
G37*
G04 #@! TD.AperFunction*
G04 #@! TA.AperFunction,SMDPad,CuDef*
G36*
G01*
X67262500Y-128600000D02*
X67737500Y-128600000D01*
G75*
G02*
X67975000Y-128837500I0J-237500D01*
G01*
X67975000Y-129412500D01*
G75*
G02*
X67737500Y-129650000I-237500J0D01*
G01*
X67262500Y-129650000D01*
G75*
G02*
X67025000Y-129412500I0J237500D01*
G01*
X67025000Y-128837500D01*
G75*
G02*
X67262500Y-128600000I237500J0D01*
G01*
G37*
G04 #@! TD.AperFunction*
D11*
X120000000Y-125000000D03*
D10*
X120000000Y-120000000D03*
X120000000Y-115000000D03*
X120000000Y-110000000D03*
X120000000Y-105000000D03*
X120000000Y-100000000D03*
X120000000Y-95000000D03*
X120000000Y-90000000D03*
D20*
X59920000Y-106500000D03*
X62460000Y-106500000D03*
X65000000Y-106500000D03*
X67540000Y-106500000D03*
X59920000Y-103960000D03*
X62460000Y-103960000D03*
X65000000Y-103960000D03*
X67540000Y-103960000D03*
X59920000Y-101420000D03*
X62460000Y-101420000D03*
X65000000Y-101420000D03*
X67540000Y-101420000D03*
X59920000Y-98880000D03*
X62460000Y-98880000D03*
X65000000Y-98880000D03*
X67540000Y-98880000D03*
X67620000Y-115880000D03*
X65080000Y-115880000D03*
X62540000Y-115880000D03*
X60000000Y-115880000D03*
X67620000Y-118420000D03*
X65080000Y-118420000D03*
X62540000Y-118420000D03*
X60000000Y-118420000D03*
X67620000Y-120960000D03*
X65080000Y-120960000D03*
X62540000Y-120960000D03*
X60000000Y-120960000D03*
X67620000Y-123500000D03*
X65080000Y-123500000D03*
X62540000Y-123500000D03*
X60000000Y-123500000D03*
G04 #@! TA.AperFunction,SMDPad,CuDef*
G36*
G01*
X131512500Y-122243750D02*
X131512500Y-122756250D01*
G75*
G02*
X131293750Y-122975000I-218750J0D01*
G01*
X130856250Y-122975000D01*
G75*
G02*
X130637500Y-122756250I0J218750D01*
G01*
X130637500Y-122243750D01*
G75*
G02*
X130856250Y-122025000I218750J0D01*
G01*
X131293750Y-122025000D01*
G75*
G02*
X131512500Y-122243750I0J-218750D01*
G01*
G37*
G04 #@! TD.AperFunction*
G04 #@! TA.AperFunction,SMDPad,CuDef*
G36*
G01*
X129937500Y-122243750D02*
X129937500Y-122756250D01*
G75*
G02*
X129718750Y-122975000I-218750J0D01*
G01*
X129281250Y-122975000D01*
G75*
G02*
X129062500Y-122756250I0J218750D01*
G01*
X129062500Y-122243750D01*
G75*
G02*
X129281250Y-122025000I218750J0D01*
G01*
X129718750Y-122025000D01*
G75*
G02*
X129937500Y-122243750I0J-218750D01*
G01*
G37*
G04 #@! TD.AperFunction*
G04 #@! TA.AperFunction,SMDPad,CuDef*
G36*
G01*
X130150000Y-112243750D02*
X130150000Y-112756250D01*
G75*
G02*
X129931250Y-112975000I-218750J0D01*
G01*
X129493750Y-112975000D01*
G75*
G02*
X129275000Y-112756250I0J218750D01*
G01*
X129275000Y-112243750D01*
G75*
G02*
X129493750Y-112025000I218750J0D01*
G01*
X129931250Y-112025000D01*
G75*
G02*
X130150000Y-112243750I0J-218750D01*
G01*
G37*
G04 #@! TD.AperFunction*
G04 #@! TA.AperFunction,SMDPad,CuDef*
G36*
G01*
X131725000Y-112243750D02*
X131725000Y-112756250D01*
G75*
G02*
X131506250Y-112975000I-218750J0D01*
G01*
X131068750Y-112975000D01*
G75*
G02*
X130850000Y-112756250I0J218750D01*
G01*
X130850000Y-112243750D01*
G75*
G02*
X131068750Y-112025000I218750J0D01*
G01*
X131506250Y-112025000D01*
G75*
G02*
X131725000Y-112243750I0J-218750D01*
G01*
G37*
G04 #@! TD.AperFunction*
G04 #@! TA.AperFunction,SMDPad,CuDef*
G36*
G01*
X131725000Y-102243750D02*
X131725000Y-102756250D01*
G75*
G02*
X131506250Y-102975000I-218750J0D01*
G01*
X131068750Y-102975000D01*
G75*
G02*
X130850000Y-102756250I0J218750D01*
G01*
X130850000Y-102243750D01*
G75*
G02*
X131068750Y-102025000I218750J0D01*
G01*
X131506250Y-102025000D01*
G75*
G02*
X131725000Y-102243750I0J-218750D01*
G01*
G37*
G04 #@! TD.AperFunction*
G04 #@! TA.AperFunction,SMDPad,CuDef*
G36*
G01*
X130150000Y-102243750D02*
X130150000Y-102756250D01*
G75*
G02*
X129931250Y-102975000I-218750J0D01*
G01*
X129493750Y-102975000D01*
G75*
G02*
X129275000Y-102756250I0J218750D01*
G01*
X129275000Y-102243750D01*
G75*
G02*
X129493750Y-102025000I218750J0D01*
G01*
X129931250Y-102025000D01*
G75*
G02*
X130150000Y-102243750I0J-218750D01*
G01*
G37*
G04 #@! TD.AperFunction*
G04 #@! TA.AperFunction,SMDPad,CuDef*
G36*
G01*
X130150000Y-92243750D02*
X130150000Y-92756250D01*
G75*
G02*
X129931250Y-92975000I-218750J0D01*
G01*
X129493750Y-92975000D01*
G75*
G02*
X129275000Y-92756250I0J218750D01*
G01*
X129275000Y-92243750D01*
G75*
G02*
X129493750Y-92025000I218750J0D01*
G01*
X129931250Y-92025000D01*
G75*
G02*
X130150000Y-92243750I0J-218750D01*
G01*
G37*
G04 #@! TD.AperFunction*
G04 #@! TA.AperFunction,SMDPad,CuDef*
G36*
G01*
X131725000Y-92243750D02*
X131725000Y-92756250D01*
G75*
G02*
X131506250Y-92975000I-218750J0D01*
G01*
X131068750Y-92975000D01*
G75*
G02*
X130850000Y-92756250I0J218750D01*
G01*
X130850000Y-92243750D01*
G75*
G02*
X131068750Y-92025000I218750J0D01*
G01*
X131506250Y-92025000D01*
G75*
G02*
X131725000Y-92243750I0J-218750D01*
G01*
G37*
G04 #@! TD.AperFunction*
G04 #@! TA.AperFunction,SMDPad,CuDef*
G36*
G01*
X111850000Y-132756250D02*
X111850000Y-132243750D01*
G75*
G02*
X112068750Y-132025000I218750J0D01*
G01*
X112506250Y-132025000D01*
G75*
G02*
X112725000Y-132243750I0J-218750D01*
G01*
X112725000Y-132756250D01*
G75*
G02*
X112506250Y-132975000I-218750J0D01*
G01*
X112068750Y-132975000D01*
G75*
G02*
X111850000Y-132756250I0J218750D01*
G01*
G37*
G04 #@! TD.AperFunction*
G04 #@! TA.AperFunction,SMDPad,CuDef*
G36*
G01*
X110275000Y-132756250D02*
X110275000Y-132243750D01*
G75*
G02*
X110493750Y-132025000I218750J0D01*
G01*
X110931250Y-132025000D01*
G75*
G02*
X111150000Y-132243750I0J-218750D01*
G01*
X111150000Y-132756250D01*
G75*
G02*
X110931250Y-132975000I-218750J0D01*
G01*
X110493750Y-132975000D01*
G75*
G02*
X110275000Y-132756250I0J218750D01*
G01*
G37*
G04 #@! TD.AperFunction*
G04 #@! TA.AperFunction,SMDPad,CuDef*
G36*
G01*
X110275000Y-134756250D02*
X110275000Y-134243750D01*
G75*
G02*
X110493750Y-134025000I218750J0D01*
G01*
X110931250Y-134025000D01*
G75*
G02*
X111150000Y-134243750I0J-218750D01*
G01*
X111150000Y-134756250D01*
G75*
G02*
X110931250Y-134975000I-218750J0D01*
G01*
X110493750Y-134975000D01*
G75*
G02*
X110275000Y-134756250I0J218750D01*
G01*
G37*
G04 #@! TD.AperFunction*
G04 #@! TA.AperFunction,SMDPad,CuDef*
G36*
G01*
X111850000Y-134756250D02*
X111850000Y-134243750D01*
G75*
G02*
X112068750Y-134025000I218750J0D01*
G01*
X112506250Y-134025000D01*
G75*
G02*
X112725000Y-134243750I0J-218750D01*
G01*
X112725000Y-134756250D01*
G75*
G02*
X112506250Y-134975000I-218750J0D01*
G01*
X112068750Y-134975000D01*
G75*
G02*
X111850000Y-134756250I0J218750D01*
G01*
G37*
G04 #@! TD.AperFunction*
G04 #@! TA.AperFunction,SMDPad,CuDef*
G36*
G01*
X111850000Y-136756250D02*
X111850000Y-136243750D01*
G75*
G02*
X112068750Y-136025000I218750J0D01*
G01*
X112506250Y-136025000D01*
G75*
G02*
X112725000Y-136243750I0J-218750D01*
G01*
X112725000Y-136756250D01*
G75*
G02*
X112506250Y-136975000I-218750J0D01*
G01*
X112068750Y-136975000D01*
G75*
G02*
X111850000Y-136756250I0J218750D01*
G01*
G37*
G04 #@! TD.AperFunction*
G04 #@! TA.AperFunction,SMDPad,CuDef*
G36*
G01*
X110275000Y-136756250D02*
X110275000Y-136243750D01*
G75*
G02*
X110493750Y-136025000I218750J0D01*
G01*
X110931250Y-136025000D01*
G75*
G02*
X111150000Y-136243750I0J-218750D01*
G01*
X111150000Y-136756250D01*
G75*
G02*
X110931250Y-136975000I-218750J0D01*
G01*
X110493750Y-136975000D01*
G75*
G02*
X110275000Y-136756250I0J218750D01*
G01*
G37*
G04 #@! TD.AperFunction*
G04 #@! TA.AperFunction,SMDPad,CuDef*
G36*
G01*
X110275000Y-138756250D02*
X110275000Y-138243750D01*
G75*
G02*
X110493750Y-138025000I218750J0D01*
G01*
X110931250Y-138025000D01*
G75*
G02*
X111150000Y-138243750I0J-218750D01*
G01*
X111150000Y-138756250D01*
G75*
G02*
X110931250Y-138975000I-218750J0D01*
G01*
X110493750Y-138975000D01*
G75*
G02*
X110275000Y-138756250I0J218750D01*
G01*
G37*
G04 #@! TD.AperFunction*
G04 #@! TA.AperFunction,SMDPad,CuDef*
G36*
G01*
X111850000Y-138756250D02*
X111850000Y-138243750D01*
G75*
G02*
X112068750Y-138025000I218750J0D01*
G01*
X112506250Y-138025000D01*
G75*
G02*
X112725000Y-138243750I0J-218750D01*
G01*
X112725000Y-138756250D01*
G75*
G02*
X112506250Y-138975000I-218750J0D01*
G01*
X112068750Y-138975000D01*
G75*
G02*
X111850000Y-138756250I0J218750D01*
G01*
G37*
G04 #@! TD.AperFunction*
D21*
X78000000Y-93500000D03*
X78000000Y-96000000D03*
X79000000Y-96000000D03*
X79000000Y-93500000D03*
X79500000Y-103500000D03*
X79500000Y-106000000D03*
X78500000Y-106000000D03*
X78500000Y-103500000D03*
X79500000Y-113500000D03*
X78500000Y-113500000D03*
X79500000Y-116000000D03*
X78500000Y-116000000D03*
X79500000Y-124000000D03*
X79500000Y-125500000D03*
X78500000Y-125500000D03*
X78500000Y-124000000D03*
X87500000Y-125000000D03*
X86000000Y-125000000D03*
X84500000Y-125000000D03*
X86000000Y-123500000D03*
X86000000Y-121500000D03*
X90500000Y-121500000D03*
X89000000Y-121500000D03*
X84500000Y-123500000D03*
X84500000Y-121500000D03*
X89000000Y-123500000D03*
X90500000Y-120000000D03*
X89000000Y-120000000D03*
X90500000Y-123500000D03*
X86000000Y-120000000D03*
X84500000Y-120000000D03*
X89000000Y-125000000D03*
X87500000Y-120000000D03*
X90500000Y-125000000D03*
X87500000Y-123500000D03*
X87500000Y-121500000D03*
X87500000Y-115000000D03*
X86000000Y-115000000D03*
X84500000Y-115000000D03*
X86000000Y-113500000D03*
X86000000Y-111500000D03*
X90500000Y-111500000D03*
X89000000Y-111500000D03*
X84500000Y-113500000D03*
X84500000Y-111500000D03*
X89000000Y-113500000D03*
X90500000Y-110000000D03*
X89000000Y-110000000D03*
X90500000Y-113500000D03*
X86000000Y-110000000D03*
X84500000Y-110000000D03*
X89000000Y-115000000D03*
X87500000Y-110000000D03*
X90500000Y-115000000D03*
X87500000Y-113500000D03*
X87500000Y-111500000D03*
X87500000Y-105000000D03*
X86000000Y-105000000D03*
X84500000Y-105000000D03*
X86000000Y-103500000D03*
X86000000Y-101500000D03*
X90500000Y-101500000D03*
X89000000Y-101500000D03*
X84500000Y-103500000D03*
X84500000Y-101500000D03*
X89000000Y-103500000D03*
X90500000Y-100000000D03*
X89000000Y-100000000D03*
X90500000Y-103500000D03*
X86000000Y-100000000D03*
X84500000Y-100000000D03*
X89000000Y-105000000D03*
X87500000Y-100000000D03*
X90500000Y-105000000D03*
X87500000Y-103500000D03*
X87500000Y-101500000D03*
X85500000Y-91500000D03*
X87000000Y-91500000D03*
X88500000Y-91500000D03*
X90000000Y-91500000D03*
X90000000Y-93500000D03*
X88500000Y-93500000D03*
X87000000Y-93500000D03*
X85500000Y-93500000D03*
X84000000Y-93500000D03*
X84000000Y-95000000D03*
X85500000Y-95000000D03*
X87000000Y-95000000D03*
X88500000Y-95000000D03*
X90000000Y-95000000D03*
X84000000Y-91500000D03*
X84000000Y-90000000D03*
X85500000Y-90000000D03*
X87000000Y-90000000D03*
X88500000Y-90000000D03*
X90000000Y-90000000D03*
X82500000Y-121500000D03*
X81500000Y-111500000D03*
X81500000Y-101500000D03*
X81500000Y-91500000D03*
D22*
X80000000Y-129125000D02*
X79125000Y-129125000D01*
X79125000Y-129125000D02*
X77500000Y-127500000D01*
X87500000Y-129125000D02*
X86625000Y-129125000D01*
X86625000Y-129125000D02*
X85000000Y-127500000D01*
X60000000Y-127500000D02*
X57500000Y-125000000D01*
X66625000Y-129125000D02*
X65000000Y-127500000D01*
X67500000Y-129125000D02*
X66625000Y-129125000D01*
X65000000Y-127500000D02*
X60000000Y-127500000D01*
X67500000Y-127500000D02*
X65000000Y-127500000D01*
X99125000Y-129125000D02*
X97500000Y-127500000D01*
X100000000Y-129125000D02*
X99125000Y-129125000D01*
X97500000Y-127500000D02*
X67500000Y-127500000D01*
X110712500Y-136500000D02*
X110000000Y-136500000D01*
X110712500Y-134500000D02*
X110000000Y-134500000D01*
X110000000Y-138500000D02*
X110712500Y-138500000D01*
X109500000Y-132500000D02*
X109000000Y-133000000D01*
X110712500Y-132500000D02*
X109500000Y-132500000D01*
X109000000Y-138000000D02*
X109500000Y-138500000D01*
X109500000Y-138500000D02*
X110000000Y-138500000D01*
X110000000Y-136500000D02*
X109000000Y-136500000D01*
X109000000Y-136500000D02*
X109000000Y-138000000D01*
X110000000Y-134500000D02*
X109000000Y-134500000D01*
X109000000Y-133000000D02*
X109000000Y-134500000D01*
X109000000Y-135500000D02*
X109000000Y-136500000D01*
X109000000Y-134500000D02*
X109000000Y-135500000D01*
X107000000Y-135500000D02*
X105000000Y-137500000D01*
X109000000Y-135500000D02*
X107000000Y-135500000D01*
D23*
X60000000Y-115880000D02*
X67620000Y-115880000D01*
X67620000Y-115880000D02*
X67620000Y-123500000D01*
X67620000Y-123500000D02*
X60000000Y-123500000D01*
X60000000Y-123500000D02*
X60000000Y-115880000D01*
X60000000Y-118420000D02*
X67620000Y-118420000D01*
X67620000Y-120960000D02*
X60000000Y-120960000D01*
X62540000Y-123500000D02*
X62540000Y-115880000D01*
X65080000Y-115880000D02*
X65080000Y-123500000D01*
D22*
X99125000Y-130000000D02*
X100000000Y-130875000D01*
X97500000Y-130000000D02*
X99125000Y-130000000D01*
X100000000Y-130875000D02*
X100000000Y-137500000D01*
D24*
X81200000Y-120220000D02*
X81220000Y-120220000D01*
X81220000Y-120220000D02*
X82500000Y-121500000D01*
D22*
X86625000Y-130000000D02*
X87500000Y-130875000D01*
X85000000Y-130000000D02*
X86625000Y-130000000D01*
X87500000Y-130875000D02*
X87500000Y-137500000D01*
X94085000Y-130875000D02*
X94960000Y-130000000D01*
X87500000Y-130875000D02*
X94085000Y-130875000D01*
D24*
X80800000Y-110220000D02*
X80800000Y-110800000D01*
X80800000Y-110800000D02*
X81500000Y-111500000D01*
D22*
X72500000Y-130000000D02*
X73850000Y-130000000D01*
X73850000Y-130000000D02*
X75000000Y-131150000D01*
X80875000Y-130000000D02*
X80000000Y-130875000D01*
X82460000Y-130000000D02*
X80875000Y-130000000D01*
X75000000Y-131500000D02*
X75000000Y-137500000D01*
X75000000Y-131150000D02*
X75000000Y-131500000D01*
X75275000Y-130875000D02*
X80000000Y-130875000D01*
X75000000Y-131150000D02*
X75275000Y-130875000D01*
D24*
X81200000Y-100220000D02*
X81200000Y-101200000D01*
X81200000Y-101200000D02*
X81500000Y-101500000D01*
D22*
X68375000Y-130000000D02*
X67500000Y-130875000D01*
X69960000Y-130000000D02*
X68375000Y-130000000D01*
X67500000Y-130875000D02*
X65625000Y-130875000D01*
X62500000Y-134000000D02*
X62500000Y-137500000D01*
X65625000Y-130875000D02*
X62500000Y-134000000D01*
D24*
X80800000Y-90220000D02*
X80800000Y-90800000D01*
X80800000Y-90800000D02*
X81500000Y-91500000D01*
D22*
X126000000Y-132500000D02*
X112287500Y-132500000D01*
X132500000Y-123000000D02*
X132500000Y-126000000D01*
X132500000Y-126000000D02*
X126000000Y-132500000D01*
X131075000Y-122500000D02*
X132000000Y-122500000D01*
X132000000Y-122500000D02*
X132500000Y-123000000D01*
X129500000Y-122500000D02*
X124000000Y-122500000D01*
X129712500Y-112500000D02*
X124000000Y-112500000D01*
X132000000Y-112500000D02*
X131287500Y-112500000D01*
X133500000Y-114000000D02*
X132000000Y-112500000D01*
X124989962Y-134500000D02*
X133500000Y-125989962D01*
X133500000Y-125989962D02*
X133500000Y-114000000D01*
X112287500Y-134500000D02*
X124989962Y-134500000D01*
X134500000Y-105000000D02*
X132000000Y-102500000D01*
X132000000Y-102500000D02*
X131287500Y-102500000D01*
X134500000Y-125979924D02*
X134500000Y-105000000D01*
X123979924Y-136500000D02*
X134500000Y-125979924D01*
X112287500Y-136500000D02*
X123979924Y-136500000D01*
X129712500Y-102500000D02*
X124000000Y-102500000D01*
X129712500Y-92500000D02*
X124000000Y-92500000D01*
X132000000Y-92500000D02*
X131287500Y-92500000D01*
X135500000Y-96000000D02*
X132000000Y-92500000D01*
X122969887Y-138500000D02*
X135500000Y-125969887D01*
X135500000Y-125969887D02*
X135500000Y-96000000D01*
X112287500Y-138500000D02*
X122969887Y-138500000D01*
D25*
G36*
X79061928Y-90820000D02*
G01*
X79074188Y-90944482D01*
X79110498Y-91064180D01*
X79169463Y-91174494D01*
X79248815Y-91271185D01*
X79345506Y-91350537D01*
X79455820Y-91409502D01*
X79575518Y-91445812D01*
X79700000Y-91458072D01*
X80383271Y-91458072D01*
X80465000Y-91539802D01*
X80465000Y-91601939D01*
X80504774Y-91801898D01*
X80582795Y-91990256D01*
X80696063Y-92159774D01*
X80840226Y-92303937D01*
X81009744Y-92417205D01*
X81198102Y-92495226D01*
X81398061Y-92535000D01*
X81601939Y-92535000D01*
X81801898Y-92495226D01*
X81990256Y-92417205D01*
X82159774Y-92303937D01*
X82303937Y-92159774D01*
X82373000Y-92056414D01*
X82373000Y-98989118D01*
X82300000Y-98981928D01*
X80100000Y-98981928D01*
X79975518Y-98994188D01*
X79855820Y-99030498D01*
X79745506Y-99089463D01*
X79648815Y-99168815D01*
X79569463Y-99265506D01*
X79510498Y-99375820D01*
X79474188Y-99495518D01*
X79461928Y-99620000D01*
X79461928Y-100820000D01*
X79474188Y-100944482D01*
X79510498Y-101064180D01*
X79569463Y-101174494D01*
X79648815Y-101271185D01*
X79745506Y-101350537D01*
X79855820Y-101409502D01*
X79975518Y-101445812D01*
X80100000Y-101458072D01*
X80465000Y-101458072D01*
X80465000Y-101601939D01*
X80504774Y-101801898D01*
X80582795Y-101990256D01*
X80696063Y-102159774D01*
X80840226Y-102303937D01*
X81009744Y-102417205D01*
X81198102Y-102495226D01*
X81398061Y-102535000D01*
X81601939Y-102535000D01*
X81801898Y-102495226D01*
X81990256Y-102417205D01*
X82159774Y-102303937D01*
X82303937Y-102159774D01*
X82373000Y-102056414D01*
X82373000Y-108989118D01*
X82300000Y-108981928D01*
X80100000Y-108981928D01*
X79975518Y-108994188D01*
X79855820Y-109030498D01*
X79745506Y-109089463D01*
X79648815Y-109168815D01*
X79569463Y-109265506D01*
X79510498Y-109375820D01*
X79474188Y-109495518D01*
X79461928Y-109620000D01*
X79461928Y-110820000D01*
X79474188Y-110944482D01*
X79510498Y-111064180D01*
X79569463Y-111174494D01*
X79648815Y-111271185D01*
X79745506Y-111350537D01*
X79855820Y-111409502D01*
X79975518Y-111445812D01*
X80100000Y-111458072D01*
X80383271Y-111458072D01*
X80465000Y-111539802D01*
X80465000Y-111601939D01*
X80504774Y-111801898D01*
X80582795Y-111990256D01*
X80696063Y-112159774D01*
X80840226Y-112303937D01*
X81009744Y-112417205D01*
X81198102Y-112495226D01*
X81398061Y-112535000D01*
X81601939Y-112535000D01*
X81801898Y-112495226D01*
X81990256Y-112417205D01*
X82159774Y-112303937D01*
X82303937Y-112159774D01*
X82373000Y-112056414D01*
X82373000Y-118989118D01*
X82300000Y-118981928D01*
X80100000Y-118981928D01*
X79975518Y-118994188D01*
X79855820Y-119030498D01*
X79745506Y-119089463D01*
X79648815Y-119168815D01*
X79569463Y-119265506D01*
X79510498Y-119375820D01*
X79474188Y-119495518D01*
X79461928Y-119620000D01*
X79461928Y-120820000D01*
X79474188Y-120944482D01*
X79510498Y-121064180D01*
X79569463Y-121174494D01*
X79648815Y-121271185D01*
X79745506Y-121350537D01*
X79855820Y-121409502D01*
X79975518Y-121445812D01*
X80100000Y-121458072D01*
X81383270Y-121458072D01*
X81465000Y-121539802D01*
X81465000Y-121601939D01*
X81504774Y-121801898D01*
X81582795Y-121990256D01*
X81696063Y-122159774D01*
X81840226Y-122303937D01*
X82009744Y-122417205D01*
X82198102Y-122495226D01*
X82373000Y-122530015D01*
X82373000Y-126373000D01*
X50695000Y-126373000D01*
X50695000Y-115709117D01*
X58265000Y-115709117D01*
X58265000Y-116050883D01*
X58331675Y-116386081D01*
X58462463Y-116701831D01*
X58652337Y-116985998D01*
X58816339Y-117150000D01*
X58652337Y-117314002D01*
X58462463Y-117598169D01*
X58331675Y-117913919D01*
X58265000Y-118249117D01*
X58265000Y-118590883D01*
X58331675Y-118926081D01*
X58462463Y-119241831D01*
X58652337Y-119525998D01*
X58816339Y-119690000D01*
X58652337Y-119854002D01*
X58462463Y-120138169D01*
X58331675Y-120453919D01*
X58265000Y-120789117D01*
X58265000Y-121130883D01*
X58331675Y-121466081D01*
X58462463Y-121781831D01*
X58652337Y-122065998D01*
X58816339Y-122230000D01*
X58652337Y-122394002D01*
X58462463Y-122678169D01*
X58331675Y-122993919D01*
X58265000Y-123329117D01*
X58265000Y-123670883D01*
X58331675Y-124006081D01*
X58462463Y-124321831D01*
X58652337Y-124605998D01*
X58894002Y-124847663D01*
X59178169Y-125037537D01*
X59493919Y-125168325D01*
X59829117Y-125235000D01*
X60170883Y-125235000D01*
X60506081Y-125168325D01*
X60821831Y-125037537D01*
X61105998Y-124847663D01*
X61270000Y-124683661D01*
X61434002Y-124847663D01*
X61718169Y-125037537D01*
X62033919Y-125168325D01*
X62369117Y-125235000D01*
X62710883Y-125235000D01*
X63046081Y-125168325D01*
X63361831Y-125037537D01*
X63645998Y-124847663D01*
X63810000Y-124683661D01*
X63974002Y-124847663D01*
X64258169Y-125037537D01*
X64573919Y-125168325D01*
X64909117Y-125235000D01*
X65250883Y-125235000D01*
X65586081Y-125168325D01*
X65901831Y-125037537D01*
X66185998Y-124847663D01*
X66350000Y-124683661D01*
X66514002Y-124847663D01*
X66798169Y-125037537D01*
X67113919Y-125168325D01*
X67449117Y-125235000D01*
X67790883Y-125235000D01*
X68126081Y-125168325D01*
X68441831Y-125037537D01*
X68725998Y-124847663D01*
X68967663Y-124605998D01*
X69157537Y-124321831D01*
X69288325Y-124006081D01*
X69355000Y-123670883D01*
X69355000Y-123329117D01*
X69288325Y-122993919D01*
X69157537Y-122678169D01*
X68967663Y-122394002D01*
X68803661Y-122230000D01*
X68967663Y-122065998D01*
X69157537Y-121781831D01*
X69288325Y-121466081D01*
X69355000Y-121130883D01*
X69355000Y-120789117D01*
X69288325Y-120453919D01*
X69157537Y-120138169D01*
X68967663Y-119854002D01*
X68803661Y-119690000D01*
X68967663Y-119525998D01*
X69157537Y-119241831D01*
X69288325Y-118926081D01*
X69355000Y-118590883D01*
X69355000Y-118249117D01*
X69288325Y-117913919D01*
X69157537Y-117598169D01*
X68967663Y-117314002D01*
X68803661Y-117150000D01*
X68967663Y-116985998D01*
X69157537Y-116701831D01*
X69288325Y-116386081D01*
X69355000Y-116050883D01*
X69355000Y-115709117D01*
X69288325Y-115373919D01*
X69157537Y-115058169D01*
X68967663Y-114774002D01*
X68725998Y-114532337D01*
X68441831Y-114342463D01*
X68126081Y-114211675D01*
X67790883Y-114145000D01*
X67449117Y-114145000D01*
X67113919Y-114211675D01*
X66798169Y-114342463D01*
X66514002Y-114532337D01*
X66350000Y-114696339D01*
X66185998Y-114532337D01*
X65901831Y-114342463D01*
X65586081Y-114211675D01*
X65250883Y-114145000D01*
X64909117Y-114145000D01*
X64573919Y-114211675D01*
X64258169Y-114342463D01*
X63974002Y-114532337D01*
X63810000Y-114696339D01*
X63645998Y-114532337D01*
X63361831Y-114342463D01*
X63046081Y-114211675D01*
X62710883Y-114145000D01*
X62369117Y-114145000D01*
X62033919Y-114211675D01*
X61718169Y-114342463D01*
X61434002Y-114532337D01*
X61270000Y-114696339D01*
X61105998Y-114532337D01*
X60821831Y-114342463D01*
X60506081Y-114211675D01*
X60170883Y-114145000D01*
X59829117Y-114145000D01*
X59493919Y-114211675D01*
X59178169Y-114342463D01*
X58894002Y-114532337D01*
X58652337Y-114774002D01*
X58462463Y-115058169D01*
X58331675Y-115373919D01*
X58265000Y-115709117D01*
X50695000Y-115709117D01*
X50695000Y-90127000D01*
X79061928Y-90127000D01*
X79061928Y-90820000D01*
G37*
X79061928Y-90820000D02*
X79074188Y-90944482D01*
X79110498Y-91064180D01*
X79169463Y-91174494D01*
X79248815Y-91271185D01*
X79345506Y-91350537D01*
X79455820Y-91409502D01*
X79575518Y-91445812D01*
X79700000Y-91458072D01*
X80383271Y-91458072D01*
X80465000Y-91539802D01*
X80465000Y-91601939D01*
X80504774Y-91801898D01*
X80582795Y-91990256D01*
X80696063Y-92159774D01*
X80840226Y-92303937D01*
X81009744Y-92417205D01*
X81198102Y-92495226D01*
X81398061Y-92535000D01*
X81601939Y-92535000D01*
X81801898Y-92495226D01*
X81990256Y-92417205D01*
X82159774Y-92303937D01*
X82303937Y-92159774D01*
X82373000Y-92056414D01*
X82373000Y-98989118D01*
X82300000Y-98981928D01*
X80100000Y-98981928D01*
X79975518Y-98994188D01*
X79855820Y-99030498D01*
X79745506Y-99089463D01*
X79648815Y-99168815D01*
X79569463Y-99265506D01*
X79510498Y-99375820D01*
X79474188Y-99495518D01*
X79461928Y-99620000D01*
X79461928Y-100820000D01*
X79474188Y-100944482D01*
X79510498Y-101064180D01*
X79569463Y-101174494D01*
X79648815Y-101271185D01*
X79745506Y-101350537D01*
X79855820Y-101409502D01*
X79975518Y-101445812D01*
X80100000Y-101458072D01*
X80465000Y-101458072D01*
X80465000Y-101601939D01*
X80504774Y-101801898D01*
X80582795Y-101990256D01*
X80696063Y-102159774D01*
X80840226Y-102303937D01*
X81009744Y-102417205D01*
X81198102Y-102495226D01*
X81398061Y-102535000D01*
X81601939Y-102535000D01*
X81801898Y-102495226D01*
X81990256Y-102417205D01*
X82159774Y-102303937D01*
X82303937Y-102159774D01*
X82373000Y-102056414D01*
X82373000Y-108989118D01*
X82300000Y-108981928D01*
X80100000Y-108981928D01*
X79975518Y-108994188D01*
X79855820Y-109030498D01*
X79745506Y-109089463D01*
X79648815Y-109168815D01*
X79569463Y-109265506D01*
X79510498Y-109375820D01*
X79474188Y-109495518D01*
X79461928Y-109620000D01*
X79461928Y-110820000D01*
X79474188Y-110944482D01*
X79510498Y-111064180D01*
X79569463Y-111174494D01*
X79648815Y-111271185D01*
X79745506Y-111350537D01*
X79855820Y-111409502D01*
X79975518Y-111445812D01*
X80100000Y-111458072D01*
X80383271Y-111458072D01*
X80465000Y-111539802D01*
X80465000Y-111601939D01*
X80504774Y-111801898D01*
X80582795Y-111990256D01*
X80696063Y-112159774D01*
X80840226Y-112303937D01*
X81009744Y-112417205D01*
X81198102Y-112495226D01*
X81398061Y-112535000D01*
X81601939Y-112535000D01*
X81801898Y-112495226D01*
X81990256Y-112417205D01*
X82159774Y-112303937D01*
X82303937Y-112159774D01*
X82373000Y-112056414D01*
X82373000Y-118989118D01*
X82300000Y-118981928D01*
X80100000Y-118981928D01*
X79975518Y-118994188D01*
X79855820Y-119030498D01*
X79745506Y-119089463D01*
X79648815Y-119168815D01*
X79569463Y-119265506D01*
X79510498Y-119375820D01*
X79474188Y-119495518D01*
X79461928Y-119620000D01*
X79461928Y-120820000D01*
X79474188Y-120944482D01*
X79510498Y-121064180D01*
X79569463Y-121174494D01*
X79648815Y-121271185D01*
X79745506Y-121350537D01*
X79855820Y-121409502D01*
X79975518Y-121445812D01*
X80100000Y-121458072D01*
X81383270Y-121458072D01*
X81465000Y-121539802D01*
X81465000Y-121601939D01*
X81504774Y-121801898D01*
X81582795Y-121990256D01*
X81696063Y-122159774D01*
X81840226Y-122303937D01*
X82009744Y-122417205D01*
X82198102Y-122495226D01*
X82373000Y-122530015D01*
X82373000Y-126373000D01*
X50695000Y-126373000D01*
X50695000Y-115709117D01*
X58265000Y-115709117D01*
X58265000Y-116050883D01*
X58331675Y-116386081D01*
X58462463Y-116701831D01*
X58652337Y-116985998D01*
X58816339Y-117150000D01*
X58652337Y-117314002D01*
X58462463Y-117598169D01*
X58331675Y-117913919D01*
X58265000Y-118249117D01*
X58265000Y-118590883D01*
X58331675Y-118926081D01*
X58462463Y-119241831D01*
X58652337Y-119525998D01*
X58816339Y-119690000D01*
X58652337Y-119854002D01*
X58462463Y-120138169D01*
X58331675Y-120453919D01*
X58265000Y-120789117D01*
X58265000Y-121130883D01*
X58331675Y-121466081D01*
X58462463Y-121781831D01*
X58652337Y-122065998D01*
X58816339Y-122230000D01*
X58652337Y-122394002D01*
X58462463Y-122678169D01*
X58331675Y-122993919D01*
X58265000Y-123329117D01*
X58265000Y-123670883D01*
X58331675Y-124006081D01*
X58462463Y-124321831D01*
X58652337Y-124605998D01*
X58894002Y-124847663D01*
X59178169Y-125037537D01*
X59493919Y-125168325D01*
X59829117Y-125235000D01*
X60170883Y-125235000D01*
X60506081Y-125168325D01*
X60821831Y-125037537D01*
X61105998Y-124847663D01*
X61270000Y-124683661D01*
X61434002Y-124847663D01*
X61718169Y-125037537D01*
X62033919Y-125168325D01*
X62369117Y-125235000D01*
X62710883Y-125235000D01*
X63046081Y-125168325D01*
X63361831Y-125037537D01*
X63645998Y-124847663D01*
X63810000Y-124683661D01*
X63974002Y-124847663D01*
X64258169Y-125037537D01*
X64573919Y-125168325D01*
X64909117Y-125235000D01*
X65250883Y-125235000D01*
X65586081Y-125168325D01*
X65901831Y-125037537D01*
X66185998Y-124847663D01*
X66350000Y-124683661D01*
X66514002Y-124847663D01*
X66798169Y-125037537D01*
X67113919Y-125168325D01*
X67449117Y-125235000D01*
X67790883Y-125235000D01*
X68126081Y-125168325D01*
X68441831Y-125037537D01*
X68725998Y-124847663D01*
X68967663Y-124605998D01*
X69157537Y-124321831D01*
X69288325Y-124006081D01*
X69355000Y-123670883D01*
X69355000Y-123329117D01*
X69288325Y-122993919D01*
X69157537Y-122678169D01*
X68967663Y-122394002D01*
X68803661Y-122230000D01*
X68967663Y-122065998D01*
X69157537Y-121781831D01*
X69288325Y-121466081D01*
X69355000Y-121130883D01*
X69355000Y-120789117D01*
X69288325Y-120453919D01*
X69157537Y-120138169D01*
X68967663Y-119854002D01*
X68803661Y-119690000D01*
X68967663Y-119525998D01*
X69157537Y-119241831D01*
X69288325Y-118926081D01*
X69355000Y-118590883D01*
X69355000Y-118249117D01*
X69288325Y-117913919D01*
X69157537Y-117598169D01*
X68967663Y-117314002D01*
X68803661Y-117150000D01*
X68967663Y-116985998D01*
X69157537Y-116701831D01*
X69288325Y-116386081D01*
X69355000Y-116050883D01*
X69355000Y-115709117D01*
X69288325Y-115373919D01*
X69157537Y-115058169D01*
X68967663Y-114774002D01*
X68725998Y-114532337D01*
X68441831Y-114342463D01*
X68126081Y-114211675D01*
X67790883Y-114145000D01*
X67449117Y-114145000D01*
X67113919Y-114211675D01*
X66798169Y-114342463D01*
X66514002Y-114532337D01*
X66350000Y-114696339D01*
X66185998Y-114532337D01*
X65901831Y-114342463D01*
X65586081Y-114211675D01*
X65250883Y-114145000D01*
X64909117Y-114145000D01*
X64573919Y-114211675D01*
X64258169Y-114342463D01*
X63974002Y-114532337D01*
X63810000Y-114696339D01*
X63645998Y-114532337D01*
X63361831Y-114342463D01*
X63046081Y-114211675D01*
X62710883Y-114145000D01*
X62369117Y-114145000D01*
X62033919Y-114211675D01*
X61718169Y-114342463D01*
X61434002Y-114532337D01*
X61270000Y-114696339D01*
X61105998Y-114532337D01*
X60821831Y-114342463D01*
X60506081Y-114211675D01*
X60170883Y-114145000D01*
X59829117Y-114145000D01*
X59493919Y-114211675D01*
X59178169Y-114342463D01*
X58894002Y-114532337D01*
X58652337Y-114774002D01*
X58462463Y-115058169D01*
X58331675Y-115373919D01*
X58265000Y-115709117D01*
X50695000Y-115709117D01*
X50695000Y-90127000D01*
X79061928Y-90127000D01*
X79061928Y-90820000D01*
G36*
X101873000Y-95873000D02*
G01*
X84127000Y-95873000D01*
X84127000Y-89127000D01*
X101873000Y-89127000D01*
X101873000Y-95873000D01*
G37*
X101873000Y-95873000D02*
X84127000Y-95873000D01*
X84127000Y-89127000D01*
X101873000Y-89127000D01*
X101873000Y-95873000D01*
G36*
X101873000Y-105873000D02*
G01*
X84127000Y-105873000D01*
X84127000Y-99127000D01*
X101873000Y-99127000D01*
X101873000Y-105873000D01*
G37*
X101873000Y-105873000D02*
X84127000Y-105873000D01*
X84127000Y-99127000D01*
X101873000Y-99127000D01*
X101873000Y-105873000D01*
G36*
X101373000Y-115873000D02*
G01*
X83627000Y-115873000D01*
X83627000Y-109127000D01*
X101373000Y-109127000D01*
X101373000Y-115873000D01*
G37*
X101373000Y-115873000D02*
X83627000Y-115873000D01*
X83627000Y-109127000D01*
X101373000Y-109127000D01*
X101373000Y-115873000D01*
G36*
X101873000Y-125873000D02*
G01*
X84127000Y-125873000D01*
X84127000Y-119127000D01*
X101873000Y-119127000D01*
X101873000Y-125873000D01*
G37*
X101873000Y-125873000D02*
X84127000Y-125873000D01*
X84127000Y-119127000D01*
X101873000Y-119127000D01*
X101873000Y-125873000D01*
G36*
X124873000Y-103700902D02*
G01*
X122443820Y-106373000D01*
X103127000Y-106373000D01*
X103127000Y-99127000D01*
X110500000Y-99127000D01*
X110524907Y-99124534D01*
X115512577Y-98127000D01*
X124873000Y-98127000D01*
X124873000Y-103700902D01*
G37*
X124873000Y-103700902D02*
X122443820Y-106373000D01*
X103127000Y-106373000D01*
X103127000Y-99127000D01*
X110500000Y-99127000D01*
X110524907Y-99124534D01*
X115512577Y-98127000D01*
X124873000Y-98127000D01*
X124873000Y-103700902D01*
G36*
X124873000Y-128373000D02*
G01*
X114552606Y-128373000D01*
X112089803Y-125910197D01*
X112070557Y-125894403D01*
X112048601Y-125882667D01*
X112024776Y-125875440D01*
X112000000Y-125873000D01*
X103127000Y-125873000D01*
X103127000Y-119127000D01*
X113500000Y-119127000D01*
X113524776Y-119124560D01*
X113548601Y-119117333D01*
X113570557Y-119105597D01*
X113589803Y-119089803D01*
X114552606Y-118127000D01*
X124873000Y-118127000D01*
X124873000Y-128373000D01*
G37*
X124873000Y-128373000D02*
X114552606Y-128373000D01*
X112089803Y-125910197D01*
X112070557Y-125894403D01*
X112048601Y-125882667D01*
X112024776Y-125875440D01*
X112000000Y-125873000D01*
X103127000Y-125873000D01*
X103127000Y-119127000D01*
X113500000Y-119127000D01*
X113524776Y-119124560D01*
X113548601Y-119117333D01*
X113570557Y-119105597D01*
X113589803Y-119089803D01*
X114552606Y-118127000D01*
X124873000Y-118127000D01*
X124873000Y-128373000D01*
G36*
X124873000Y-96873000D02*
G01*
X114552606Y-96873000D01*
X113589803Y-95910197D01*
X113570557Y-95894403D01*
X113548601Y-95882667D01*
X113524776Y-95875440D01*
X113500000Y-95873000D01*
X103127000Y-95873000D01*
X103127000Y-89127000D01*
X112000000Y-89127000D01*
X112024776Y-89124560D01*
X112048601Y-89117333D01*
X112070557Y-89105597D01*
X112089803Y-89089803D01*
X114552606Y-86627000D01*
X124873000Y-86627000D01*
X124873000Y-96873000D01*
G37*
X124873000Y-96873000D02*
X114552606Y-96873000D01*
X113589803Y-95910197D01*
X113570557Y-95894403D01*
X113548601Y-95882667D01*
X113524776Y-95875440D01*
X113500000Y-95873000D01*
X103127000Y-95873000D01*
X103127000Y-89127000D01*
X112000000Y-89127000D01*
X112024776Y-89124560D01*
X112048601Y-89117333D01*
X112070557Y-89105597D01*
X112089803Y-89089803D01*
X114552606Y-86627000D01*
X124873000Y-86627000D01*
X124873000Y-96873000D01*
G36*
X124873000Y-111299098D02*
G01*
X124873000Y-116873000D01*
X115512577Y-116873000D01*
X110524907Y-115875466D01*
X110500000Y-115873000D01*
X103127000Y-115873000D01*
X103127000Y-108627000D01*
X122443820Y-108627000D01*
X124873000Y-111299098D01*
G37*
X124873000Y-111299098D02*
X124873000Y-116873000D01*
X115512577Y-116873000D01*
X110524907Y-115875466D01*
X110500000Y-115873000D01*
X103127000Y-115873000D01*
X103127000Y-108627000D01*
X122443820Y-108627000D01*
X124873000Y-111299098D01*
M02*
