G04 #@! TF.GenerationSoftware,KiCad,Pcbnew,(5.1.6)-1*
G04 #@! TF.CreationDate,2020-07-08T14:40:54+02:00*
G04 #@! TF.ProjectId,power-distribution,706f7765-722d-4646-9973-747269627574,rev?*
G04 #@! TF.SameCoordinates,Original*
G04 #@! TF.FileFunction,Soldermask,Bot*
G04 #@! TF.FilePolarity,Negative*
%FSLAX46Y46*%
G04 Gerber Fmt 4.6, Leading zero omitted, Abs format (unit mm)*
G04 Created by KiCad (PCBNEW (5.1.6)-1) date 2020-07-08 14:40:54*
%MOMM*%
%LPD*%
G01*
G04 APERTURE LIST*
%ADD10C,0.100000*%
G04 APERTURE END LIST*
D10*
G36*
X135634239Y-141811467D02*
G01*
X135948282Y-141873934D01*
X136539926Y-142119001D01*
X137072392Y-142474784D01*
X137525216Y-142927608D01*
X137880999Y-143460074D01*
X138126066Y-144051718D01*
X138126066Y-144051719D01*
X138251000Y-144679803D01*
X138251000Y-145320197D01*
X138188533Y-145634239D01*
X138126066Y-145948282D01*
X137880999Y-146539926D01*
X137525216Y-147072392D01*
X137072392Y-147525216D01*
X136539926Y-147880999D01*
X135948282Y-148126066D01*
X135634239Y-148188533D01*
X135320197Y-148251000D01*
X134679803Y-148251000D01*
X134365761Y-148188533D01*
X134051718Y-148126066D01*
X133460074Y-147880999D01*
X132927608Y-147525216D01*
X132474784Y-147072392D01*
X132119001Y-146539926D01*
X131873934Y-145948282D01*
X131811467Y-145634239D01*
X131749000Y-145320197D01*
X131749000Y-144679803D01*
X131873934Y-144051719D01*
X131873934Y-144051718D01*
X132119001Y-143460074D01*
X132474784Y-142927608D01*
X132927608Y-142474784D01*
X133460074Y-142119001D01*
X134051718Y-141873934D01*
X134365761Y-141811467D01*
X134679803Y-141749000D01*
X135320197Y-141749000D01*
X135634239Y-141811467D01*
G37*
G36*
X55634239Y-141811467D02*
G01*
X55948282Y-141873934D01*
X56539926Y-142119001D01*
X57072392Y-142474784D01*
X57525216Y-142927608D01*
X57880999Y-143460074D01*
X58126066Y-144051718D01*
X58126066Y-144051719D01*
X58251000Y-144679803D01*
X58251000Y-145320197D01*
X58188533Y-145634239D01*
X58126066Y-145948282D01*
X57880999Y-146539926D01*
X57525216Y-147072392D01*
X57072392Y-147525216D01*
X56539926Y-147880999D01*
X55948282Y-148126066D01*
X55634239Y-148188533D01*
X55320197Y-148251000D01*
X54679803Y-148251000D01*
X54365761Y-148188533D01*
X54051718Y-148126066D01*
X53460074Y-147880999D01*
X52927608Y-147525216D01*
X52474784Y-147072392D01*
X52119001Y-146539926D01*
X51873934Y-145948282D01*
X51811467Y-145634239D01*
X51749000Y-145320197D01*
X51749000Y-144679803D01*
X51873934Y-144051719D01*
X51873934Y-144051718D01*
X52119001Y-143460074D01*
X52474784Y-142927608D01*
X52927608Y-142474784D01*
X53460074Y-142119001D01*
X54051718Y-141873934D01*
X54365761Y-141811467D01*
X54679803Y-141749000D01*
X55320197Y-141749000D01*
X55634239Y-141811467D01*
G37*
G36*
X92894072Y-136200918D02*
G01*
X93139939Y-136302759D01*
X93361212Y-136450610D01*
X93549390Y-136638788D01*
X93697241Y-136860061D01*
X93799082Y-137105928D01*
X93851000Y-137366938D01*
X93851000Y-137633062D01*
X93799082Y-137894072D01*
X93697241Y-138139939D01*
X93549390Y-138361212D01*
X93361212Y-138549390D01*
X93139939Y-138697241D01*
X93139938Y-138697242D01*
X93139937Y-138697242D01*
X92894072Y-138799082D01*
X92633063Y-138851000D01*
X92366937Y-138851000D01*
X92105928Y-138799082D01*
X91860063Y-138697242D01*
X91860062Y-138697242D01*
X91860061Y-138697241D01*
X91638788Y-138549390D01*
X91450610Y-138361212D01*
X91302759Y-138139939D01*
X91200918Y-137894072D01*
X91149000Y-137633062D01*
X91149000Y-137366938D01*
X91200918Y-137105928D01*
X91302759Y-136860061D01*
X91450610Y-136638788D01*
X91638788Y-136450610D01*
X91860061Y-136302759D01*
X92105928Y-136200918D01*
X92366937Y-136149000D01*
X92633063Y-136149000D01*
X92894072Y-136200918D01*
G37*
G36*
X105394072Y-136200918D02*
G01*
X105639939Y-136302759D01*
X105861212Y-136450610D01*
X106049390Y-136638788D01*
X106197241Y-136860061D01*
X106299082Y-137105928D01*
X106351000Y-137366938D01*
X106351000Y-137633062D01*
X106299082Y-137894072D01*
X106197241Y-138139939D01*
X106049390Y-138361212D01*
X105861212Y-138549390D01*
X105639939Y-138697241D01*
X105639938Y-138697242D01*
X105639937Y-138697242D01*
X105394072Y-138799082D01*
X105133063Y-138851000D01*
X104866937Y-138851000D01*
X104605928Y-138799082D01*
X104360063Y-138697242D01*
X104360062Y-138697242D01*
X104360061Y-138697241D01*
X104138788Y-138549390D01*
X103950610Y-138361212D01*
X103802759Y-138139939D01*
X103700918Y-137894072D01*
X103649000Y-137633062D01*
X103649000Y-137366938D01*
X103700918Y-137105928D01*
X103802759Y-136860061D01*
X103950610Y-136638788D01*
X104138788Y-136450610D01*
X104360061Y-136302759D01*
X104605928Y-136200918D01*
X104866937Y-136149000D01*
X105133063Y-136149000D01*
X105394072Y-136200918D01*
G37*
G36*
X101351000Y-138851000D02*
G01*
X98649000Y-138851000D01*
X98649000Y-136149000D01*
X101351000Y-136149000D01*
X101351000Y-138851000D01*
G37*
G36*
X88851000Y-138851000D02*
G01*
X86149000Y-138851000D01*
X86149000Y-136149000D01*
X88851000Y-136149000D01*
X88851000Y-138851000D01*
G37*
G36*
X67894072Y-136200918D02*
G01*
X68139939Y-136302759D01*
X68361212Y-136450610D01*
X68549390Y-136638788D01*
X68697241Y-136860061D01*
X68799082Y-137105928D01*
X68851000Y-137366938D01*
X68851000Y-137633062D01*
X68799082Y-137894072D01*
X68697241Y-138139939D01*
X68549390Y-138361212D01*
X68361212Y-138549390D01*
X68139939Y-138697241D01*
X68139938Y-138697242D01*
X68139937Y-138697242D01*
X67894072Y-138799082D01*
X67633063Y-138851000D01*
X67366937Y-138851000D01*
X67105928Y-138799082D01*
X66860063Y-138697242D01*
X66860062Y-138697242D01*
X66860061Y-138697241D01*
X66638788Y-138549390D01*
X66450610Y-138361212D01*
X66302759Y-138139939D01*
X66200918Y-137894072D01*
X66149000Y-137633062D01*
X66149000Y-137366938D01*
X66200918Y-137105928D01*
X66302759Y-136860061D01*
X66450610Y-136638788D01*
X66638788Y-136450610D01*
X66860061Y-136302759D01*
X67105928Y-136200918D01*
X67366937Y-136149000D01*
X67633063Y-136149000D01*
X67894072Y-136200918D01*
G37*
G36*
X63851000Y-138851000D02*
G01*
X61149000Y-138851000D01*
X61149000Y-136149000D01*
X63851000Y-136149000D01*
X63851000Y-138851000D01*
G37*
G36*
X76351000Y-138851000D02*
G01*
X73649000Y-138851000D01*
X73649000Y-136149000D01*
X76351000Y-136149000D01*
X76351000Y-138851000D01*
G37*
G36*
X80394072Y-136200918D02*
G01*
X80639939Y-136302759D01*
X80861212Y-136450610D01*
X81049390Y-136638788D01*
X81197241Y-136860061D01*
X81299082Y-137105928D01*
X81351000Y-137366938D01*
X81351000Y-137633062D01*
X81299082Y-137894072D01*
X81197241Y-138139939D01*
X81049390Y-138361212D01*
X80861212Y-138549390D01*
X80639939Y-138697241D01*
X80639938Y-138697242D01*
X80639937Y-138697242D01*
X80394072Y-138799082D01*
X80133063Y-138851000D01*
X79866937Y-138851000D01*
X79605928Y-138799082D01*
X79360063Y-138697242D01*
X79360062Y-138697242D01*
X79360061Y-138697241D01*
X79138788Y-138549390D01*
X78950610Y-138361212D01*
X78802759Y-138139939D01*
X78700918Y-137894072D01*
X78649000Y-137633062D01*
X78649000Y-137366938D01*
X78700918Y-137105928D01*
X78802759Y-136860061D01*
X78950610Y-136638788D01*
X79138788Y-136450610D01*
X79360061Y-136302759D01*
X79605928Y-136200918D01*
X79866937Y-136149000D01*
X80133063Y-136149000D01*
X80394072Y-136200918D01*
G37*
G36*
X73401000Y-130901000D02*
G01*
X71599000Y-130901000D01*
X71599000Y-129099000D01*
X73401000Y-129099000D01*
X73401000Y-130901000D01*
G37*
G36*
X70073512Y-129103927D02*
G01*
X70222812Y-129133624D01*
X70386784Y-129201544D01*
X70534354Y-129300147D01*
X70659853Y-129425646D01*
X70758456Y-129573216D01*
X70826376Y-129737188D01*
X70861000Y-129911259D01*
X70861000Y-130088741D01*
X70826376Y-130262812D01*
X70758456Y-130426784D01*
X70659853Y-130574354D01*
X70534354Y-130699853D01*
X70386784Y-130798456D01*
X70222812Y-130866376D01*
X70073512Y-130896073D01*
X70048742Y-130901000D01*
X69871258Y-130901000D01*
X69846488Y-130896073D01*
X69697188Y-130866376D01*
X69533216Y-130798456D01*
X69385646Y-130699853D01*
X69260147Y-130574354D01*
X69161544Y-130426784D01*
X69093624Y-130262812D01*
X69059000Y-130088741D01*
X69059000Y-129911259D01*
X69093624Y-129737188D01*
X69161544Y-129573216D01*
X69260147Y-129425646D01*
X69385646Y-129300147D01*
X69533216Y-129201544D01*
X69697188Y-129133624D01*
X69846488Y-129103927D01*
X69871258Y-129099000D01*
X70048742Y-129099000D01*
X70073512Y-129103927D01*
G37*
G36*
X82573512Y-129103927D02*
G01*
X82722812Y-129133624D01*
X82886784Y-129201544D01*
X83034354Y-129300147D01*
X83159853Y-129425646D01*
X83258456Y-129573216D01*
X83326376Y-129737188D01*
X83361000Y-129911259D01*
X83361000Y-130088741D01*
X83326376Y-130262812D01*
X83258456Y-130426784D01*
X83159853Y-130574354D01*
X83034354Y-130699853D01*
X82886784Y-130798456D01*
X82722812Y-130866376D01*
X82573512Y-130896073D01*
X82548742Y-130901000D01*
X82371258Y-130901000D01*
X82346488Y-130896073D01*
X82197188Y-130866376D01*
X82033216Y-130798456D01*
X81885646Y-130699853D01*
X81760147Y-130574354D01*
X81661544Y-130426784D01*
X81593624Y-130262812D01*
X81559000Y-130088741D01*
X81559000Y-129911259D01*
X81593624Y-129737188D01*
X81661544Y-129573216D01*
X81760147Y-129425646D01*
X81885646Y-129300147D01*
X82033216Y-129201544D01*
X82197188Y-129133624D01*
X82346488Y-129103927D01*
X82371258Y-129099000D01*
X82548742Y-129099000D01*
X82573512Y-129103927D01*
G37*
G36*
X85901000Y-130901000D02*
G01*
X84099000Y-130901000D01*
X84099000Y-129099000D01*
X85901000Y-129099000D01*
X85901000Y-130901000D01*
G37*
G36*
X98401000Y-130901000D02*
G01*
X96599000Y-130901000D01*
X96599000Y-129099000D01*
X98401000Y-129099000D01*
X98401000Y-130901000D01*
G37*
G36*
X95073512Y-129103927D02*
G01*
X95222812Y-129133624D01*
X95386784Y-129201544D01*
X95534354Y-129300147D01*
X95659853Y-129425646D01*
X95758456Y-129573216D01*
X95826376Y-129737188D01*
X95861000Y-129911259D01*
X95861000Y-130088741D01*
X95826376Y-130262812D01*
X95758456Y-130426784D01*
X95659853Y-130574354D01*
X95534354Y-130699853D01*
X95386784Y-130798456D01*
X95222812Y-130866376D01*
X95073512Y-130896073D01*
X95048742Y-130901000D01*
X94871258Y-130901000D01*
X94846488Y-130896073D01*
X94697188Y-130866376D01*
X94533216Y-130798456D01*
X94385646Y-130699853D01*
X94260147Y-130574354D01*
X94161544Y-130426784D01*
X94093624Y-130262812D01*
X94059000Y-130088741D01*
X94059000Y-129911259D01*
X94093624Y-129737188D01*
X94161544Y-129573216D01*
X94260147Y-129425646D01*
X94385646Y-129300147D01*
X94533216Y-129201544D01*
X94697188Y-129133624D01*
X94846488Y-129103927D01*
X94871258Y-129099000D01*
X95048742Y-129099000D01*
X95073512Y-129103927D01*
G37*
G36*
X121351000Y-126351000D02*
G01*
X118649000Y-126351000D01*
X118649000Y-123649000D01*
X121351000Y-123649000D01*
X121351000Y-126351000D01*
G37*
G36*
X60224549Y-114751116D02*
G01*
X60335734Y-114773232D01*
X60545203Y-114859997D01*
X60733720Y-114985960D01*
X60894040Y-115146280D01*
X61020003Y-115334797D01*
X61020004Y-115334799D01*
X61106768Y-115544267D01*
X61147403Y-115748552D01*
X61154516Y-115772001D01*
X61166067Y-115793612D01*
X61181612Y-115812554D01*
X61200554Y-115828099D01*
X61222165Y-115839650D01*
X61245614Y-115846763D01*
X61270000Y-115849165D01*
X61294386Y-115846763D01*
X61317835Y-115839650D01*
X61339446Y-115828099D01*
X61358388Y-115812554D01*
X61373933Y-115793612D01*
X61385484Y-115772001D01*
X61392597Y-115748552D01*
X61433232Y-115544267D01*
X61519996Y-115334799D01*
X61519997Y-115334797D01*
X61645960Y-115146280D01*
X61806280Y-114985960D01*
X61994797Y-114859997D01*
X62204266Y-114773232D01*
X62315451Y-114751116D01*
X62426635Y-114729000D01*
X62653365Y-114729000D01*
X62764549Y-114751116D01*
X62875734Y-114773232D01*
X63085203Y-114859997D01*
X63273720Y-114985960D01*
X63434040Y-115146280D01*
X63560003Y-115334797D01*
X63560004Y-115334799D01*
X63646768Y-115544267D01*
X63687403Y-115748552D01*
X63694516Y-115772001D01*
X63706067Y-115793612D01*
X63721612Y-115812554D01*
X63740554Y-115828099D01*
X63762165Y-115839650D01*
X63785614Y-115846763D01*
X63810000Y-115849165D01*
X63834386Y-115846763D01*
X63857835Y-115839650D01*
X63879446Y-115828099D01*
X63898388Y-115812554D01*
X63913933Y-115793612D01*
X63925484Y-115772001D01*
X63932597Y-115748552D01*
X63973232Y-115544267D01*
X64059996Y-115334799D01*
X64059997Y-115334797D01*
X64185960Y-115146280D01*
X64346280Y-114985960D01*
X64534797Y-114859997D01*
X64744266Y-114773232D01*
X64855451Y-114751116D01*
X64966635Y-114729000D01*
X65193365Y-114729000D01*
X65304549Y-114751116D01*
X65415734Y-114773232D01*
X65625203Y-114859997D01*
X65813720Y-114985960D01*
X65974040Y-115146280D01*
X66100003Y-115334797D01*
X66100004Y-115334799D01*
X66186768Y-115544267D01*
X66227403Y-115748552D01*
X66234516Y-115772001D01*
X66246067Y-115793612D01*
X66261612Y-115812554D01*
X66280554Y-115828099D01*
X66302165Y-115839650D01*
X66325614Y-115846763D01*
X66350000Y-115849165D01*
X66374386Y-115846763D01*
X66397835Y-115839650D01*
X66419446Y-115828099D01*
X66438388Y-115812554D01*
X66453933Y-115793612D01*
X66465484Y-115772001D01*
X66472597Y-115748552D01*
X66513232Y-115544267D01*
X66599996Y-115334799D01*
X66599997Y-115334797D01*
X66725960Y-115146280D01*
X66886280Y-114985960D01*
X67074797Y-114859997D01*
X67284266Y-114773232D01*
X67395451Y-114751116D01*
X67506635Y-114729000D01*
X67733365Y-114729000D01*
X67844549Y-114751116D01*
X67955734Y-114773232D01*
X68165203Y-114859997D01*
X68353720Y-114985960D01*
X68514040Y-115146280D01*
X68640003Y-115334797D01*
X68726768Y-115544266D01*
X68771000Y-115766636D01*
X68771000Y-115993364D01*
X68726768Y-116215734D01*
X68640003Y-116425203D01*
X68514040Y-116613720D01*
X68353720Y-116774040D01*
X68165203Y-116900003D01*
X67955734Y-116986768D01*
X67828161Y-117012144D01*
X67751448Y-117027403D01*
X67727999Y-117034516D01*
X67706388Y-117046067D01*
X67687446Y-117061612D01*
X67671901Y-117080554D01*
X67660350Y-117102165D01*
X67653237Y-117125614D01*
X67650835Y-117150000D01*
X67653237Y-117174386D01*
X67660350Y-117197835D01*
X67671901Y-117219446D01*
X67687446Y-117238388D01*
X67706388Y-117253933D01*
X67727999Y-117265484D01*
X67751448Y-117272597D01*
X67828161Y-117287856D01*
X67955734Y-117313232D01*
X68165203Y-117399997D01*
X68353720Y-117525960D01*
X68514040Y-117686280D01*
X68640003Y-117874797D01*
X68726768Y-118084266D01*
X68771000Y-118306636D01*
X68771000Y-118533364D01*
X68726768Y-118755734D01*
X68640003Y-118965203D01*
X68514040Y-119153720D01*
X68353720Y-119314040D01*
X68165203Y-119440003D01*
X67955734Y-119526768D01*
X67828161Y-119552144D01*
X67751448Y-119567403D01*
X67727999Y-119574516D01*
X67706388Y-119586067D01*
X67687446Y-119601612D01*
X67671901Y-119620554D01*
X67660350Y-119642165D01*
X67653237Y-119665614D01*
X67650835Y-119690000D01*
X67653237Y-119714386D01*
X67660350Y-119737835D01*
X67671901Y-119759446D01*
X67687446Y-119778388D01*
X67706388Y-119793933D01*
X67727999Y-119805484D01*
X67751448Y-119812597D01*
X67828161Y-119827856D01*
X67955734Y-119853232D01*
X68165203Y-119939997D01*
X68353720Y-120065960D01*
X68514040Y-120226280D01*
X68640003Y-120414797D01*
X68726768Y-120624266D01*
X68771000Y-120846636D01*
X68771000Y-121073364D01*
X68726768Y-121295734D01*
X68640003Y-121505203D01*
X68514040Y-121693720D01*
X68353720Y-121854040D01*
X68165203Y-121980003D01*
X67955734Y-122066768D01*
X67828161Y-122092144D01*
X67751448Y-122107403D01*
X67727999Y-122114516D01*
X67706388Y-122126067D01*
X67687446Y-122141612D01*
X67671901Y-122160554D01*
X67660350Y-122182165D01*
X67653237Y-122205614D01*
X67650835Y-122230000D01*
X67653237Y-122254386D01*
X67660350Y-122277835D01*
X67671901Y-122299446D01*
X67687446Y-122318388D01*
X67706388Y-122333933D01*
X67727999Y-122345484D01*
X67751448Y-122352597D01*
X67828161Y-122367856D01*
X67955734Y-122393232D01*
X68165203Y-122479997D01*
X68353720Y-122605960D01*
X68514040Y-122766280D01*
X68640003Y-122954797D01*
X68726768Y-123164266D01*
X68771000Y-123386636D01*
X68771000Y-123613364D01*
X68726768Y-123835734D01*
X68640003Y-124045203D01*
X68514040Y-124233720D01*
X68353720Y-124394040D01*
X68165203Y-124520003D01*
X67955734Y-124606768D01*
X67844549Y-124628884D01*
X67733365Y-124651000D01*
X67506635Y-124651000D01*
X67395451Y-124628884D01*
X67284266Y-124606768D01*
X67074797Y-124520003D01*
X66886280Y-124394040D01*
X66725960Y-124233720D01*
X66599997Y-124045203D01*
X66513232Y-123835734D01*
X66472597Y-123631448D01*
X66465484Y-123607999D01*
X66453933Y-123586388D01*
X66438388Y-123567446D01*
X66419446Y-123551901D01*
X66397835Y-123540350D01*
X66374386Y-123533237D01*
X66350000Y-123530835D01*
X66325614Y-123533237D01*
X66302165Y-123540350D01*
X66280554Y-123551901D01*
X66261612Y-123567446D01*
X66246067Y-123586388D01*
X66234516Y-123607999D01*
X66227403Y-123631448D01*
X66186768Y-123835734D01*
X66100003Y-124045203D01*
X65974040Y-124233720D01*
X65813720Y-124394040D01*
X65625203Y-124520003D01*
X65415734Y-124606768D01*
X65304549Y-124628884D01*
X65193365Y-124651000D01*
X64966635Y-124651000D01*
X64855451Y-124628884D01*
X64744266Y-124606768D01*
X64534797Y-124520003D01*
X64346280Y-124394040D01*
X64185960Y-124233720D01*
X64059997Y-124045203D01*
X63973232Y-123835734D01*
X63932597Y-123631448D01*
X63925484Y-123607999D01*
X63913933Y-123586388D01*
X63898388Y-123567446D01*
X63879446Y-123551901D01*
X63857835Y-123540350D01*
X63834386Y-123533237D01*
X63810000Y-123530835D01*
X63785614Y-123533237D01*
X63762165Y-123540350D01*
X63740554Y-123551901D01*
X63721612Y-123567446D01*
X63706067Y-123586388D01*
X63694516Y-123607999D01*
X63687403Y-123631448D01*
X63646768Y-123835734D01*
X63560003Y-124045203D01*
X63434040Y-124233720D01*
X63273720Y-124394040D01*
X63085203Y-124520003D01*
X62875734Y-124606768D01*
X62764549Y-124628884D01*
X62653365Y-124651000D01*
X62426635Y-124651000D01*
X62315451Y-124628884D01*
X62204266Y-124606768D01*
X61994797Y-124520003D01*
X61806280Y-124394040D01*
X61645960Y-124233720D01*
X61519997Y-124045203D01*
X61433232Y-123835734D01*
X61392597Y-123631448D01*
X61385484Y-123607999D01*
X61373933Y-123586388D01*
X61358388Y-123567446D01*
X61339446Y-123551901D01*
X61317835Y-123540350D01*
X61294386Y-123533237D01*
X61270000Y-123530835D01*
X61245614Y-123533237D01*
X61222165Y-123540350D01*
X61200554Y-123551901D01*
X61181612Y-123567446D01*
X61166067Y-123586388D01*
X61154516Y-123607999D01*
X61147403Y-123631448D01*
X61106768Y-123835734D01*
X61020003Y-124045203D01*
X60894040Y-124233720D01*
X60733720Y-124394040D01*
X60545203Y-124520003D01*
X60335734Y-124606768D01*
X60224549Y-124628884D01*
X60113365Y-124651000D01*
X59886635Y-124651000D01*
X59775451Y-124628884D01*
X59664266Y-124606768D01*
X59454797Y-124520003D01*
X59266280Y-124394040D01*
X59105960Y-124233720D01*
X58979997Y-124045203D01*
X58893232Y-123835734D01*
X58849000Y-123613364D01*
X58849000Y-123386636D01*
X58893232Y-123164266D01*
X58979997Y-122954797D01*
X59105960Y-122766280D01*
X59266280Y-122605960D01*
X59454797Y-122479997D01*
X59664266Y-122393232D01*
X59791839Y-122367856D01*
X59868552Y-122352597D01*
X59892001Y-122345484D01*
X59913612Y-122333933D01*
X59932554Y-122318388D01*
X59948099Y-122299446D01*
X59959650Y-122277835D01*
X59966763Y-122254386D01*
X59969165Y-122230000D01*
X60030835Y-122230000D01*
X60033237Y-122254386D01*
X60040350Y-122277835D01*
X60051901Y-122299446D01*
X60067446Y-122318388D01*
X60086388Y-122333933D01*
X60107999Y-122345484D01*
X60131448Y-122352597D01*
X60208161Y-122367856D01*
X60335734Y-122393232D01*
X60545203Y-122479997D01*
X60733720Y-122605960D01*
X60894040Y-122766280D01*
X61020003Y-122954797D01*
X61020004Y-122954799D01*
X61106768Y-123164267D01*
X61147403Y-123368552D01*
X61154516Y-123392001D01*
X61166067Y-123413612D01*
X61181612Y-123432554D01*
X61200554Y-123448099D01*
X61222165Y-123459650D01*
X61245614Y-123466763D01*
X61270000Y-123469165D01*
X61294386Y-123466763D01*
X61317835Y-123459650D01*
X61339446Y-123448099D01*
X61358388Y-123432554D01*
X61373933Y-123413612D01*
X61385484Y-123392001D01*
X61392597Y-123368552D01*
X61433232Y-123164267D01*
X61519996Y-122954799D01*
X61519997Y-122954797D01*
X61645960Y-122766280D01*
X61806280Y-122605960D01*
X61994797Y-122479997D01*
X62204266Y-122393232D01*
X62331839Y-122367856D01*
X62408552Y-122352597D01*
X62432001Y-122345484D01*
X62453612Y-122333933D01*
X62472554Y-122318388D01*
X62488099Y-122299446D01*
X62499650Y-122277835D01*
X62506763Y-122254386D01*
X62509165Y-122230000D01*
X62570835Y-122230000D01*
X62573237Y-122254386D01*
X62580350Y-122277835D01*
X62591901Y-122299446D01*
X62607446Y-122318388D01*
X62626388Y-122333933D01*
X62647999Y-122345484D01*
X62671448Y-122352597D01*
X62748161Y-122367856D01*
X62875734Y-122393232D01*
X63085203Y-122479997D01*
X63273720Y-122605960D01*
X63434040Y-122766280D01*
X63560003Y-122954797D01*
X63560004Y-122954799D01*
X63646768Y-123164267D01*
X63687403Y-123368552D01*
X63694516Y-123392001D01*
X63706067Y-123413612D01*
X63721612Y-123432554D01*
X63740554Y-123448099D01*
X63762165Y-123459650D01*
X63785614Y-123466763D01*
X63810000Y-123469165D01*
X63834386Y-123466763D01*
X63857835Y-123459650D01*
X63879446Y-123448099D01*
X63898388Y-123432554D01*
X63913933Y-123413612D01*
X63925484Y-123392001D01*
X63932597Y-123368552D01*
X63973232Y-123164267D01*
X64059996Y-122954799D01*
X64059997Y-122954797D01*
X64185960Y-122766280D01*
X64346280Y-122605960D01*
X64534797Y-122479997D01*
X64744266Y-122393232D01*
X64871839Y-122367856D01*
X64948552Y-122352597D01*
X64972001Y-122345484D01*
X64993612Y-122333933D01*
X65012554Y-122318388D01*
X65028099Y-122299446D01*
X65039650Y-122277835D01*
X65046763Y-122254386D01*
X65049165Y-122230000D01*
X65110835Y-122230000D01*
X65113237Y-122254386D01*
X65120350Y-122277835D01*
X65131901Y-122299446D01*
X65147446Y-122318388D01*
X65166388Y-122333933D01*
X65187999Y-122345484D01*
X65211448Y-122352597D01*
X65288161Y-122367856D01*
X65415734Y-122393232D01*
X65625203Y-122479997D01*
X65813720Y-122605960D01*
X65974040Y-122766280D01*
X66100003Y-122954797D01*
X66100004Y-122954799D01*
X66186768Y-123164267D01*
X66227403Y-123368552D01*
X66234516Y-123392001D01*
X66246067Y-123413612D01*
X66261612Y-123432554D01*
X66280554Y-123448099D01*
X66302165Y-123459650D01*
X66325614Y-123466763D01*
X66350000Y-123469165D01*
X66374386Y-123466763D01*
X66397835Y-123459650D01*
X66419446Y-123448099D01*
X66438388Y-123432554D01*
X66453933Y-123413612D01*
X66465484Y-123392001D01*
X66472597Y-123368552D01*
X66513232Y-123164267D01*
X66599996Y-122954799D01*
X66599997Y-122954797D01*
X66725960Y-122766280D01*
X66886280Y-122605960D01*
X67074797Y-122479997D01*
X67284266Y-122393232D01*
X67411839Y-122367856D01*
X67488552Y-122352597D01*
X67512001Y-122345484D01*
X67533612Y-122333933D01*
X67552554Y-122318388D01*
X67568099Y-122299446D01*
X67579650Y-122277835D01*
X67586763Y-122254386D01*
X67589165Y-122230000D01*
X67586763Y-122205614D01*
X67579650Y-122182165D01*
X67568099Y-122160554D01*
X67552554Y-122141612D01*
X67533612Y-122126067D01*
X67512001Y-122114516D01*
X67488552Y-122107403D01*
X67411839Y-122092144D01*
X67284266Y-122066768D01*
X67074797Y-121980003D01*
X66886280Y-121854040D01*
X66725960Y-121693720D01*
X66599997Y-121505203D01*
X66513232Y-121295734D01*
X66472597Y-121091448D01*
X66465484Y-121067999D01*
X66453933Y-121046388D01*
X66438388Y-121027446D01*
X66419446Y-121011901D01*
X66397835Y-121000350D01*
X66374386Y-120993237D01*
X66350000Y-120990835D01*
X66325614Y-120993237D01*
X66302165Y-121000350D01*
X66280554Y-121011901D01*
X66261612Y-121027446D01*
X66246067Y-121046388D01*
X66234516Y-121067999D01*
X66227403Y-121091448D01*
X66186768Y-121295734D01*
X66100003Y-121505203D01*
X65974040Y-121693720D01*
X65813720Y-121854040D01*
X65625203Y-121980003D01*
X65415734Y-122066768D01*
X65288161Y-122092144D01*
X65211448Y-122107403D01*
X65187999Y-122114516D01*
X65166388Y-122126067D01*
X65147446Y-122141612D01*
X65131901Y-122160554D01*
X65120350Y-122182165D01*
X65113237Y-122205614D01*
X65110835Y-122230000D01*
X65049165Y-122230000D01*
X65046763Y-122205614D01*
X65039650Y-122182165D01*
X65028099Y-122160554D01*
X65012554Y-122141612D01*
X64993612Y-122126067D01*
X64972001Y-122114516D01*
X64948552Y-122107403D01*
X64871839Y-122092144D01*
X64744266Y-122066768D01*
X64534797Y-121980003D01*
X64346280Y-121854040D01*
X64185960Y-121693720D01*
X64059997Y-121505203D01*
X63973232Y-121295734D01*
X63932597Y-121091448D01*
X63925484Y-121067999D01*
X63913933Y-121046388D01*
X63898388Y-121027446D01*
X63879446Y-121011901D01*
X63857835Y-121000350D01*
X63834386Y-120993237D01*
X63810000Y-120990835D01*
X63785614Y-120993237D01*
X63762165Y-121000350D01*
X63740554Y-121011901D01*
X63721612Y-121027446D01*
X63706067Y-121046388D01*
X63694516Y-121067999D01*
X63687403Y-121091448D01*
X63646768Y-121295734D01*
X63560003Y-121505203D01*
X63434040Y-121693720D01*
X63273720Y-121854040D01*
X63085203Y-121980003D01*
X62875734Y-122066768D01*
X62748161Y-122092144D01*
X62671448Y-122107403D01*
X62647999Y-122114516D01*
X62626388Y-122126067D01*
X62607446Y-122141612D01*
X62591901Y-122160554D01*
X62580350Y-122182165D01*
X62573237Y-122205614D01*
X62570835Y-122230000D01*
X62509165Y-122230000D01*
X62506763Y-122205614D01*
X62499650Y-122182165D01*
X62488099Y-122160554D01*
X62472554Y-122141612D01*
X62453612Y-122126067D01*
X62432001Y-122114516D01*
X62408552Y-122107403D01*
X62331839Y-122092144D01*
X62204266Y-122066768D01*
X61994797Y-121980003D01*
X61806280Y-121854040D01*
X61645960Y-121693720D01*
X61519997Y-121505203D01*
X61433232Y-121295734D01*
X61392597Y-121091448D01*
X61385484Y-121067999D01*
X61373933Y-121046388D01*
X61358388Y-121027446D01*
X61339446Y-121011901D01*
X61317835Y-121000350D01*
X61294386Y-120993237D01*
X61270000Y-120990835D01*
X61245614Y-120993237D01*
X61222165Y-121000350D01*
X61200554Y-121011901D01*
X61181612Y-121027446D01*
X61166067Y-121046388D01*
X61154516Y-121067999D01*
X61147403Y-121091448D01*
X61106768Y-121295734D01*
X61020003Y-121505203D01*
X60894040Y-121693720D01*
X60733720Y-121854040D01*
X60545203Y-121980003D01*
X60335734Y-122066768D01*
X60208161Y-122092144D01*
X60131448Y-122107403D01*
X60107999Y-122114516D01*
X60086388Y-122126067D01*
X60067446Y-122141612D01*
X60051901Y-122160554D01*
X60040350Y-122182165D01*
X60033237Y-122205614D01*
X60030835Y-122230000D01*
X59969165Y-122230000D01*
X59966763Y-122205614D01*
X59959650Y-122182165D01*
X59948099Y-122160554D01*
X59932554Y-122141612D01*
X59913612Y-122126067D01*
X59892001Y-122114516D01*
X59868552Y-122107403D01*
X59791839Y-122092144D01*
X59664266Y-122066768D01*
X59454797Y-121980003D01*
X59266280Y-121854040D01*
X59105960Y-121693720D01*
X58979997Y-121505203D01*
X58893232Y-121295734D01*
X58849000Y-121073364D01*
X58849000Y-120846636D01*
X58893232Y-120624266D01*
X58979997Y-120414797D01*
X59105960Y-120226280D01*
X59266280Y-120065960D01*
X59454797Y-119939997D01*
X59664266Y-119853232D01*
X59791839Y-119827856D01*
X59868552Y-119812597D01*
X59892001Y-119805484D01*
X59913612Y-119793933D01*
X59932554Y-119778388D01*
X59948099Y-119759446D01*
X59959650Y-119737835D01*
X59966763Y-119714386D01*
X59969165Y-119690000D01*
X60030835Y-119690000D01*
X60033237Y-119714386D01*
X60040350Y-119737835D01*
X60051901Y-119759446D01*
X60067446Y-119778388D01*
X60086388Y-119793933D01*
X60107999Y-119805484D01*
X60131448Y-119812597D01*
X60208161Y-119827856D01*
X60335734Y-119853232D01*
X60545203Y-119939997D01*
X60733720Y-120065960D01*
X60894040Y-120226280D01*
X61020003Y-120414797D01*
X61106768Y-120624266D01*
X61118337Y-120682426D01*
X61147403Y-120828552D01*
X61154516Y-120852001D01*
X61166067Y-120873612D01*
X61181612Y-120892554D01*
X61200554Y-120908099D01*
X61222165Y-120919650D01*
X61245614Y-120926763D01*
X61270000Y-120929165D01*
X61294386Y-120926763D01*
X61317835Y-120919650D01*
X61339446Y-120908099D01*
X61358388Y-120892554D01*
X61373933Y-120873612D01*
X61385484Y-120852001D01*
X61392597Y-120828552D01*
X61421663Y-120682426D01*
X61433232Y-120624266D01*
X61519997Y-120414797D01*
X61645960Y-120226280D01*
X61806280Y-120065960D01*
X61994797Y-119939997D01*
X62204266Y-119853232D01*
X62331839Y-119827856D01*
X62408552Y-119812597D01*
X62432001Y-119805484D01*
X62453612Y-119793933D01*
X62472554Y-119778388D01*
X62488099Y-119759446D01*
X62499650Y-119737835D01*
X62506763Y-119714386D01*
X62509165Y-119690000D01*
X62570835Y-119690000D01*
X62573237Y-119714386D01*
X62580350Y-119737835D01*
X62591901Y-119759446D01*
X62607446Y-119778388D01*
X62626388Y-119793933D01*
X62647999Y-119805484D01*
X62671448Y-119812597D01*
X62748161Y-119827856D01*
X62875734Y-119853232D01*
X63085203Y-119939997D01*
X63273720Y-120065960D01*
X63434040Y-120226280D01*
X63560003Y-120414797D01*
X63646768Y-120624266D01*
X63658337Y-120682426D01*
X63687403Y-120828552D01*
X63694516Y-120852001D01*
X63706067Y-120873612D01*
X63721612Y-120892554D01*
X63740554Y-120908099D01*
X63762165Y-120919650D01*
X63785614Y-120926763D01*
X63810000Y-120929165D01*
X63834386Y-120926763D01*
X63857835Y-120919650D01*
X63879446Y-120908099D01*
X63898388Y-120892554D01*
X63913933Y-120873612D01*
X63925484Y-120852001D01*
X63932597Y-120828552D01*
X63961663Y-120682426D01*
X63973232Y-120624266D01*
X64059997Y-120414797D01*
X64185960Y-120226280D01*
X64346280Y-120065960D01*
X64534797Y-119939997D01*
X64744266Y-119853232D01*
X64871839Y-119827856D01*
X64948552Y-119812597D01*
X64972001Y-119805484D01*
X64993612Y-119793933D01*
X65012554Y-119778388D01*
X65028099Y-119759446D01*
X65039650Y-119737835D01*
X65046763Y-119714386D01*
X65049165Y-119690000D01*
X65110835Y-119690000D01*
X65113237Y-119714386D01*
X65120350Y-119737835D01*
X65131901Y-119759446D01*
X65147446Y-119778388D01*
X65166388Y-119793933D01*
X65187999Y-119805484D01*
X65211448Y-119812597D01*
X65288161Y-119827856D01*
X65415734Y-119853232D01*
X65625203Y-119939997D01*
X65813720Y-120065960D01*
X65974040Y-120226280D01*
X66100003Y-120414797D01*
X66186768Y-120624266D01*
X66198337Y-120682426D01*
X66227403Y-120828552D01*
X66234516Y-120852001D01*
X66246067Y-120873612D01*
X66261612Y-120892554D01*
X66280554Y-120908099D01*
X66302165Y-120919650D01*
X66325614Y-120926763D01*
X66350000Y-120929165D01*
X66374386Y-120926763D01*
X66397835Y-120919650D01*
X66419446Y-120908099D01*
X66438388Y-120892554D01*
X66453933Y-120873612D01*
X66465484Y-120852001D01*
X66472597Y-120828552D01*
X66501663Y-120682426D01*
X66513232Y-120624266D01*
X66599997Y-120414797D01*
X66725960Y-120226280D01*
X66886280Y-120065960D01*
X67074797Y-119939997D01*
X67284266Y-119853232D01*
X67411839Y-119827856D01*
X67488552Y-119812597D01*
X67512001Y-119805484D01*
X67533612Y-119793933D01*
X67552554Y-119778388D01*
X67568099Y-119759446D01*
X67579650Y-119737835D01*
X67586763Y-119714386D01*
X67589165Y-119690000D01*
X67586763Y-119665614D01*
X67579650Y-119642165D01*
X67568099Y-119620554D01*
X67552554Y-119601612D01*
X67533612Y-119586067D01*
X67512001Y-119574516D01*
X67488552Y-119567403D01*
X67411839Y-119552144D01*
X67284266Y-119526768D01*
X67074797Y-119440003D01*
X66886280Y-119314040D01*
X66725960Y-119153720D01*
X66599997Y-118965203D01*
X66513232Y-118755734D01*
X66472597Y-118551448D01*
X66465484Y-118527999D01*
X66453933Y-118506388D01*
X66438388Y-118487446D01*
X66419446Y-118471901D01*
X66397835Y-118460350D01*
X66374386Y-118453237D01*
X66350000Y-118450835D01*
X66325614Y-118453237D01*
X66302165Y-118460350D01*
X66280554Y-118471901D01*
X66261612Y-118487446D01*
X66246067Y-118506388D01*
X66234516Y-118527999D01*
X66227403Y-118551448D01*
X66186768Y-118755734D01*
X66100003Y-118965203D01*
X65974040Y-119153720D01*
X65813720Y-119314040D01*
X65625203Y-119440003D01*
X65415734Y-119526768D01*
X65288161Y-119552144D01*
X65211448Y-119567403D01*
X65187999Y-119574516D01*
X65166388Y-119586067D01*
X65147446Y-119601612D01*
X65131901Y-119620554D01*
X65120350Y-119642165D01*
X65113237Y-119665614D01*
X65110835Y-119690000D01*
X65049165Y-119690000D01*
X65046763Y-119665614D01*
X65039650Y-119642165D01*
X65028099Y-119620554D01*
X65012554Y-119601612D01*
X64993612Y-119586067D01*
X64972001Y-119574516D01*
X64948552Y-119567403D01*
X64871839Y-119552144D01*
X64744266Y-119526768D01*
X64534797Y-119440003D01*
X64346280Y-119314040D01*
X64185960Y-119153720D01*
X64059997Y-118965203D01*
X63973232Y-118755734D01*
X63932597Y-118551448D01*
X63925484Y-118527999D01*
X63913933Y-118506388D01*
X63898388Y-118487446D01*
X63879446Y-118471901D01*
X63857835Y-118460350D01*
X63834386Y-118453237D01*
X63810000Y-118450835D01*
X63785614Y-118453237D01*
X63762165Y-118460350D01*
X63740554Y-118471901D01*
X63721612Y-118487446D01*
X63706067Y-118506388D01*
X63694516Y-118527999D01*
X63687403Y-118551448D01*
X63646768Y-118755734D01*
X63560003Y-118965203D01*
X63434040Y-119153720D01*
X63273720Y-119314040D01*
X63085203Y-119440003D01*
X62875734Y-119526768D01*
X62748161Y-119552144D01*
X62671448Y-119567403D01*
X62647999Y-119574516D01*
X62626388Y-119586067D01*
X62607446Y-119601612D01*
X62591901Y-119620554D01*
X62580350Y-119642165D01*
X62573237Y-119665614D01*
X62570835Y-119690000D01*
X62509165Y-119690000D01*
X62506763Y-119665614D01*
X62499650Y-119642165D01*
X62488099Y-119620554D01*
X62472554Y-119601612D01*
X62453612Y-119586067D01*
X62432001Y-119574516D01*
X62408552Y-119567403D01*
X62331839Y-119552144D01*
X62204266Y-119526768D01*
X61994797Y-119440003D01*
X61806280Y-119314040D01*
X61645960Y-119153720D01*
X61519997Y-118965203D01*
X61433232Y-118755734D01*
X61392597Y-118551448D01*
X61385484Y-118527999D01*
X61373933Y-118506388D01*
X61358388Y-118487446D01*
X61339446Y-118471901D01*
X61317835Y-118460350D01*
X61294386Y-118453237D01*
X61270000Y-118450835D01*
X61245614Y-118453237D01*
X61222165Y-118460350D01*
X61200554Y-118471901D01*
X61181612Y-118487446D01*
X61166067Y-118506388D01*
X61154516Y-118527999D01*
X61147403Y-118551448D01*
X61106768Y-118755734D01*
X61020003Y-118965203D01*
X60894040Y-119153720D01*
X60733720Y-119314040D01*
X60545203Y-119440003D01*
X60335734Y-119526768D01*
X60208161Y-119552144D01*
X60131448Y-119567403D01*
X60107999Y-119574516D01*
X60086388Y-119586067D01*
X60067446Y-119601612D01*
X60051901Y-119620554D01*
X60040350Y-119642165D01*
X60033237Y-119665614D01*
X60030835Y-119690000D01*
X59969165Y-119690000D01*
X59966763Y-119665614D01*
X59959650Y-119642165D01*
X59948099Y-119620554D01*
X59932554Y-119601612D01*
X59913612Y-119586067D01*
X59892001Y-119574516D01*
X59868552Y-119567403D01*
X59791839Y-119552144D01*
X59664266Y-119526768D01*
X59454797Y-119440003D01*
X59266280Y-119314040D01*
X59105960Y-119153720D01*
X58979997Y-118965203D01*
X58893232Y-118755734D01*
X58849000Y-118533364D01*
X58849000Y-118306636D01*
X58893232Y-118084266D01*
X58979997Y-117874797D01*
X59105960Y-117686280D01*
X59266280Y-117525960D01*
X59454797Y-117399997D01*
X59664266Y-117313232D01*
X59791839Y-117287856D01*
X59868552Y-117272597D01*
X59892001Y-117265484D01*
X59913612Y-117253933D01*
X59932554Y-117238388D01*
X59948099Y-117219446D01*
X59959650Y-117197835D01*
X59966763Y-117174386D01*
X59969165Y-117150000D01*
X60030835Y-117150000D01*
X60033237Y-117174386D01*
X60040350Y-117197835D01*
X60051901Y-117219446D01*
X60067446Y-117238388D01*
X60086388Y-117253933D01*
X60107999Y-117265484D01*
X60131448Y-117272597D01*
X60208161Y-117287856D01*
X60335734Y-117313232D01*
X60545203Y-117399997D01*
X60733720Y-117525960D01*
X60894040Y-117686280D01*
X61020003Y-117874797D01*
X61020004Y-117874799D01*
X61106768Y-118084267D01*
X61147403Y-118288552D01*
X61154516Y-118312001D01*
X61166067Y-118333612D01*
X61181612Y-118352554D01*
X61200554Y-118368099D01*
X61222165Y-118379650D01*
X61245614Y-118386763D01*
X61270000Y-118389165D01*
X61294386Y-118386763D01*
X61317835Y-118379650D01*
X61339446Y-118368099D01*
X61358388Y-118352554D01*
X61373933Y-118333612D01*
X61385484Y-118312001D01*
X61392597Y-118288552D01*
X61433232Y-118084267D01*
X61519996Y-117874799D01*
X61519997Y-117874797D01*
X61645960Y-117686280D01*
X61806280Y-117525960D01*
X61994797Y-117399997D01*
X62204266Y-117313232D01*
X62331839Y-117287856D01*
X62408552Y-117272597D01*
X62432001Y-117265484D01*
X62453612Y-117253933D01*
X62472554Y-117238388D01*
X62488099Y-117219446D01*
X62499650Y-117197835D01*
X62506763Y-117174386D01*
X62509165Y-117150000D01*
X62570835Y-117150000D01*
X62573237Y-117174386D01*
X62580350Y-117197835D01*
X62591901Y-117219446D01*
X62607446Y-117238388D01*
X62626388Y-117253933D01*
X62647999Y-117265484D01*
X62671448Y-117272597D01*
X62748161Y-117287856D01*
X62875734Y-117313232D01*
X63085203Y-117399997D01*
X63273720Y-117525960D01*
X63434040Y-117686280D01*
X63560003Y-117874797D01*
X63560004Y-117874799D01*
X63646768Y-118084267D01*
X63687403Y-118288552D01*
X63694516Y-118312001D01*
X63706067Y-118333612D01*
X63721612Y-118352554D01*
X63740554Y-118368099D01*
X63762165Y-118379650D01*
X63785614Y-118386763D01*
X63810000Y-118389165D01*
X63834386Y-118386763D01*
X63857835Y-118379650D01*
X63879446Y-118368099D01*
X63898388Y-118352554D01*
X63913933Y-118333612D01*
X63925484Y-118312001D01*
X63932597Y-118288552D01*
X63973232Y-118084267D01*
X64059996Y-117874799D01*
X64059997Y-117874797D01*
X64185960Y-117686280D01*
X64346280Y-117525960D01*
X64534797Y-117399997D01*
X64744266Y-117313232D01*
X64871839Y-117287856D01*
X64948552Y-117272597D01*
X64972001Y-117265484D01*
X64993612Y-117253933D01*
X65012554Y-117238388D01*
X65028099Y-117219446D01*
X65039650Y-117197835D01*
X65046763Y-117174386D01*
X65049165Y-117150000D01*
X65110835Y-117150000D01*
X65113237Y-117174386D01*
X65120350Y-117197835D01*
X65131901Y-117219446D01*
X65147446Y-117238388D01*
X65166388Y-117253933D01*
X65187999Y-117265484D01*
X65211448Y-117272597D01*
X65288161Y-117287856D01*
X65415734Y-117313232D01*
X65625203Y-117399997D01*
X65813720Y-117525960D01*
X65974040Y-117686280D01*
X66100003Y-117874797D01*
X66100004Y-117874799D01*
X66186768Y-118084267D01*
X66227403Y-118288552D01*
X66234516Y-118312001D01*
X66246067Y-118333612D01*
X66261612Y-118352554D01*
X66280554Y-118368099D01*
X66302165Y-118379650D01*
X66325614Y-118386763D01*
X66350000Y-118389165D01*
X66374386Y-118386763D01*
X66397835Y-118379650D01*
X66419446Y-118368099D01*
X66438388Y-118352554D01*
X66453933Y-118333612D01*
X66465484Y-118312001D01*
X66472597Y-118288552D01*
X66513232Y-118084267D01*
X66599996Y-117874799D01*
X66599997Y-117874797D01*
X66725960Y-117686280D01*
X66886280Y-117525960D01*
X67074797Y-117399997D01*
X67284266Y-117313232D01*
X67411839Y-117287856D01*
X67488552Y-117272597D01*
X67512001Y-117265484D01*
X67533612Y-117253933D01*
X67552554Y-117238388D01*
X67568099Y-117219446D01*
X67579650Y-117197835D01*
X67586763Y-117174386D01*
X67589165Y-117150000D01*
X67586763Y-117125614D01*
X67579650Y-117102165D01*
X67568099Y-117080554D01*
X67552554Y-117061612D01*
X67533612Y-117046067D01*
X67512001Y-117034516D01*
X67488552Y-117027403D01*
X67411839Y-117012144D01*
X67284266Y-116986768D01*
X67074797Y-116900003D01*
X66886280Y-116774040D01*
X66725960Y-116613720D01*
X66599997Y-116425203D01*
X66513232Y-116215734D01*
X66472597Y-116011448D01*
X66465484Y-115987999D01*
X66453933Y-115966388D01*
X66438388Y-115947446D01*
X66419446Y-115931901D01*
X66397835Y-115920350D01*
X66374386Y-115913237D01*
X66350000Y-115910835D01*
X66325614Y-115913237D01*
X66302165Y-115920350D01*
X66280554Y-115931901D01*
X66261612Y-115947446D01*
X66246067Y-115966388D01*
X66234516Y-115987999D01*
X66227403Y-116011448D01*
X66186768Y-116215734D01*
X66100003Y-116425203D01*
X65974040Y-116613720D01*
X65813720Y-116774040D01*
X65625203Y-116900003D01*
X65415734Y-116986768D01*
X65288161Y-117012144D01*
X65211448Y-117027403D01*
X65187999Y-117034516D01*
X65166388Y-117046067D01*
X65147446Y-117061612D01*
X65131901Y-117080554D01*
X65120350Y-117102165D01*
X65113237Y-117125614D01*
X65110835Y-117150000D01*
X65049165Y-117150000D01*
X65046763Y-117125614D01*
X65039650Y-117102165D01*
X65028099Y-117080554D01*
X65012554Y-117061612D01*
X64993612Y-117046067D01*
X64972001Y-117034516D01*
X64948552Y-117027403D01*
X64871839Y-117012144D01*
X64744266Y-116986768D01*
X64534797Y-116900003D01*
X64346280Y-116774040D01*
X64185960Y-116613720D01*
X64059997Y-116425203D01*
X63973232Y-116215734D01*
X63932597Y-116011448D01*
X63925484Y-115987999D01*
X63913933Y-115966388D01*
X63898388Y-115947446D01*
X63879446Y-115931901D01*
X63857835Y-115920350D01*
X63834386Y-115913237D01*
X63810000Y-115910835D01*
X63785614Y-115913237D01*
X63762165Y-115920350D01*
X63740554Y-115931901D01*
X63721612Y-115947446D01*
X63706067Y-115966388D01*
X63694516Y-115987999D01*
X63687403Y-116011448D01*
X63646768Y-116215734D01*
X63560003Y-116425203D01*
X63434040Y-116613720D01*
X63273720Y-116774040D01*
X63085203Y-116900003D01*
X62875734Y-116986768D01*
X62748161Y-117012144D01*
X62671448Y-117027403D01*
X62647999Y-117034516D01*
X62626388Y-117046067D01*
X62607446Y-117061612D01*
X62591901Y-117080554D01*
X62580350Y-117102165D01*
X62573237Y-117125614D01*
X62570835Y-117150000D01*
X62509165Y-117150000D01*
X62506763Y-117125614D01*
X62499650Y-117102165D01*
X62488099Y-117080554D01*
X62472554Y-117061612D01*
X62453612Y-117046067D01*
X62432001Y-117034516D01*
X62408552Y-117027403D01*
X62331839Y-117012144D01*
X62204266Y-116986768D01*
X61994797Y-116900003D01*
X61806280Y-116774040D01*
X61645960Y-116613720D01*
X61519997Y-116425203D01*
X61433232Y-116215734D01*
X61392597Y-116011448D01*
X61385484Y-115987999D01*
X61373933Y-115966388D01*
X61358388Y-115947446D01*
X61339446Y-115931901D01*
X61317835Y-115920350D01*
X61294386Y-115913237D01*
X61270000Y-115910835D01*
X61245614Y-115913237D01*
X61222165Y-115920350D01*
X61200554Y-115931901D01*
X61181612Y-115947446D01*
X61166067Y-115966388D01*
X61154516Y-115987999D01*
X61147403Y-116011448D01*
X61106768Y-116215734D01*
X61020003Y-116425203D01*
X60894040Y-116613720D01*
X60733720Y-116774040D01*
X60545203Y-116900003D01*
X60335734Y-116986768D01*
X60208161Y-117012144D01*
X60131448Y-117027403D01*
X60107999Y-117034516D01*
X60086388Y-117046067D01*
X60067446Y-117061612D01*
X60051901Y-117080554D01*
X60040350Y-117102165D01*
X60033237Y-117125614D01*
X60030835Y-117150000D01*
X59969165Y-117150000D01*
X59966763Y-117125614D01*
X59959650Y-117102165D01*
X59948099Y-117080554D01*
X59932554Y-117061612D01*
X59913612Y-117046067D01*
X59892001Y-117034516D01*
X59868552Y-117027403D01*
X59791839Y-117012144D01*
X59664266Y-116986768D01*
X59454797Y-116900003D01*
X59266280Y-116774040D01*
X59105960Y-116613720D01*
X58979997Y-116425203D01*
X58893232Y-116215734D01*
X58849000Y-115993364D01*
X58849000Y-115766636D01*
X58893232Y-115544266D01*
X58979997Y-115334797D01*
X59105960Y-115146280D01*
X59266280Y-114985960D01*
X59454797Y-114859997D01*
X59664266Y-114773232D01*
X59775451Y-114751116D01*
X59886635Y-114729000D01*
X60113365Y-114729000D01*
X60224549Y-114751116D01*
G37*
G36*
X110198254Y-120527818D02*
G01*
X110468933Y-120639937D01*
X110571513Y-120682427D01*
X110907436Y-120906884D01*
X111193116Y-121192564D01*
X111402014Y-121505201D01*
X111417574Y-121528489D01*
X111572182Y-121901746D01*
X111651000Y-122297993D01*
X111651000Y-122702007D01*
X111572182Y-123098254D01*
X111422487Y-123459650D01*
X111417573Y-123471513D01*
X111193116Y-123807436D01*
X110907436Y-124093116D01*
X110571513Y-124317573D01*
X110571512Y-124317574D01*
X110571511Y-124317574D01*
X110198254Y-124472182D01*
X109802007Y-124551000D01*
X109397993Y-124551000D01*
X109001746Y-124472182D01*
X108628489Y-124317574D01*
X108628488Y-124317574D01*
X108628487Y-124317573D01*
X108292564Y-124093116D01*
X108006884Y-123807436D01*
X107782427Y-123471513D01*
X107777513Y-123459650D01*
X107627818Y-123098254D01*
X107549000Y-122702007D01*
X107549000Y-122297993D01*
X107627818Y-121901746D01*
X107782426Y-121528489D01*
X107797987Y-121505201D01*
X108006884Y-121192564D01*
X108292564Y-120906884D01*
X108628487Y-120682427D01*
X108731067Y-120639937D01*
X109001746Y-120527818D01*
X109397993Y-120449000D01*
X109802007Y-120449000D01*
X110198254Y-120527818D01*
G37*
G36*
X96098254Y-120527818D02*
G01*
X96368933Y-120639937D01*
X96471513Y-120682427D01*
X96807436Y-120906884D01*
X97093116Y-121192564D01*
X97302014Y-121505201D01*
X97317574Y-121528489D01*
X97472182Y-121901746D01*
X97551000Y-122297993D01*
X97551000Y-122702007D01*
X97472182Y-123098254D01*
X97322487Y-123459650D01*
X97317573Y-123471513D01*
X97093116Y-123807436D01*
X96807436Y-124093116D01*
X96471513Y-124317573D01*
X96471512Y-124317574D01*
X96471511Y-124317574D01*
X96098254Y-124472182D01*
X95702007Y-124551000D01*
X95297993Y-124551000D01*
X94901746Y-124472182D01*
X94528489Y-124317574D01*
X94528488Y-124317574D01*
X94528487Y-124317573D01*
X94192564Y-124093116D01*
X93906884Y-123807436D01*
X93682427Y-123471513D01*
X93677513Y-123459650D01*
X93527818Y-123098254D01*
X93449000Y-122702007D01*
X93449000Y-122297993D01*
X93527818Y-121901746D01*
X93682426Y-121528489D01*
X93697987Y-121505201D01*
X93906884Y-121192564D01*
X94192564Y-120906884D01*
X94528487Y-120682427D01*
X94631067Y-120639937D01*
X94901746Y-120527818D01*
X95297993Y-120449000D01*
X95702007Y-120449000D01*
X96098254Y-120527818D01*
G37*
G36*
X105055331Y-120768211D02*
G01*
X105383092Y-120903974D01*
X105678070Y-121101072D01*
X105928928Y-121351930D01*
X106126026Y-121646908D01*
X106261789Y-121974669D01*
X106331000Y-122322616D01*
X106331000Y-122677384D01*
X106261789Y-123025331D01*
X106126026Y-123353092D01*
X105928928Y-123648070D01*
X105678070Y-123898928D01*
X105383092Y-124096026D01*
X105055331Y-124231789D01*
X104707384Y-124301000D01*
X104352616Y-124301000D01*
X104004669Y-124231789D01*
X103676908Y-124096026D01*
X103381930Y-123898928D01*
X103131072Y-123648070D01*
X102933974Y-123353092D01*
X102798211Y-123025331D01*
X102729000Y-122677384D01*
X102729000Y-122322616D01*
X102798211Y-121974669D01*
X102933974Y-121646908D01*
X103131072Y-121351930D01*
X103381930Y-121101072D01*
X103676908Y-120903974D01*
X104004669Y-120768211D01*
X104352616Y-120699000D01*
X104707384Y-120699000D01*
X105055331Y-120768211D01*
G37*
G36*
X100995331Y-120768211D02*
G01*
X101323092Y-120903974D01*
X101618070Y-121101072D01*
X101868928Y-121351930D01*
X102066026Y-121646908D01*
X102201789Y-121974669D01*
X102271000Y-122322616D01*
X102271000Y-122677384D01*
X102201789Y-123025331D01*
X102066026Y-123353092D01*
X101868928Y-123648070D01*
X101618070Y-123898928D01*
X101323092Y-124096026D01*
X100995331Y-124231789D01*
X100647384Y-124301000D01*
X100292616Y-124301000D01*
X99944669Y-124231789D01*
X99616908Y-124096026D01*
X99321930Y-123898928D01*
X99071072Y-123648070D01*
X98873974Y-123353092D01*
X98738211Y-123025331D01*
X98669000Y-122677384D01*
X98669000Y-122322616D01*
X98738211Y-121974669D01*
X98873974Y-121646908D01*
X99071072Y-121351930D01*
X99321930Y-121101072D01*
X99616908Y-120903974D01*
X99944669Y-120768211D01*
X100292616Y-120699000D01*
X100647384Y-120699000D01*
X100995331Y-120768211D01*
G37*
G36*
X120394072Y-118700918D02*
G01*
X120639939Y-118802759D01*
X120751328Y-118877187D01*
X120861211Y-118950609D01*
X121049391Y-119138789D01*
X121122813Y-119248672D01*
X121166491Y-119314040D01*
X121197242Y-119360063D01*
X121299082Y-119605928D01*
X121351000Y-119866937D01*
X121351000Y-120133063D01*
X121299082Y-120394072D01*
X121197242Y-120639937D01*
X121059130Y-120846636D01*
X121049390Y-120861212D01*
X120861212Y-121049390D01*
X120639939Y-121197241D01*
X120639938Y-121197242D01*
X120639937Y-121197242D01*
X120394072Y-121299082D01*
X120133063Y-121351000D01*
X119866937Y-121351000D01*
X119605928Y-121299082D01*
X119360063Y-121197242D01*
X119360062Y-121197242D01*
X119360061Y-121197241D01*
X119138788Y-121049390D01*
X118950610Y-120861212D01*
X118940871Y-120846636D01*
X118802758Y-120639937D01*
X118700918Y-120394072D01*
X118649000Y-120133063D01*
X118649000Y-119866937D01*
X118700918Y-119605928D01*
X118802758Y-119360063D01*
X118833510Y-119314040D01*
X118877187Y-119248672D01*
X118950609Y-119138789D01*
X119138789Y-118950609D01*
X119248672Y-118877187D01*
X119360061Y-118802759D01*
X119605928Y-118700918D01*
X119866937Y-118649000D01*
X120133063Y-118649000D01*
X120394072Y-118700918D01*
G37*
G36*
X120394072Y-113700918D02*
G01*
X120639939Y-113802759D01*
X120751328Y-113877187D01*
X120861211Y-113950609D01*
X121049391Y-114138789D01*
X121197242Y-114360063D01*
X121299082Y-114605928D01*
X121351000Y-114866937D01*
X121351000Y-115133063D01*
X121299082Y-115394072D01*
X121197242Y-115639937D01*
X121063798Y-115839650D01*
X121049390Y-115861212D01*
X120861212Y-116049390D01*
X120639939Y-116197241D01*
X120639938Y-116197242D01*
X120639937Y-116197242D01*
X120394072Y-116299082D01*
X120133063Y-116351000D01*
X119866937Y-116351000D01*
X119605928Y-116299082D01*
X119360063Y-116197242D01*
X119360062Y-116197242D01*
X119360061Y-116197241D01*
X119138788Y-116049390D01*
X118950610Y-115861212D01*
X118936203Y-115839650D01*
X118802758Y-115639937D01*
X118700918Y-115394072D01*
X118649000Y-115133063D01*
X118649000Y-114866937D01*
X118700918Y-114605928D01*
X118802758Y-114360063D01*
X118950609Y-114138789D01*
X119138789Y-113950609D01*
X119248672Y-113877187D01*
X119360061Y-113802759D01*
X119605928Y-113700918D01*
X119866937Y-113649000D01*
X120133063Y-113649000D01*
X120394072Y-113700918D01*
G37*
G36*
X96098254Y-110527818D02*
G01*
X96368933Y-110639937D01*
X96471513Y-110682427D01*
X96599899Y-110768212D01*
X96807436Y-110906884D01*
X97093116Y-111192564D01*
X97317574Y-111528489D01*
X97472182Y-111901746D01*
X97551000Y-112297993D01*
X97551000Y-112702007D01*
X97472182Y-113098254D01*
X97366624Y-113353093D01*
X97317573Y-113471513D01*
X97093116Y-113807436D01*
X96807436Y-114093116D01*
X96471513Y-114317573D01*
X96471512Y-114317574D01*
X96471511Y-114317574D01*
X96098254Y-114472182D01*
X95702007Y-114551000D01*
X95297993Y-114551000D01*
X94901746Y-114472182D01*
X94528489Y-114317574D01*
X94528488Y-114317574D01*
X94528487Y-114317573D01*
X94192564Y-114093116D01*
X93906884Y-113807436D01*
X93682427Y-113471513D01*
X93633376Y-113353093D01*
X93527818Y-113098254D01*
X93449000Y-112702007D01*
X93449000Y-112297993D01*
X93527818Y-111901746D01*
X93682426Y-111528489D01*
X93906884Y-111192564D01*
X94192564Y-110906884D01*
X94400101Y-110768212D01*
X94528487Y-110682427D01*
X94631067Y-110639937D01*
X94901746Y-110527818D01*
X95297993Y-110449000D01*
X95702007Y-110449000D01*
X96098254Y-110527818D01*
G37*
G36*
X110198254Y-110527818D02*
G01*
X110468933Y-110639937D01*
X110571513Y-110682427D01*
X110699899Y-110768212D01*
X110907436Y-110906884D01*
X111193116Y-111192564D01*
X111417574Y-111528489D01*
X111572182Y-111901746D01*
X111651000Y-112297993D01*
X111651000Y-112702007D01*
X111572182Y-113098254D01*
X111466624Y-113353093D01*
X111417573Y-113471513D01*
X111193116Y-113807436D01*
X110907436Y-114093116D01*
X110571513Y-114317573D01*
X110571512Y-114317574D01*
X110571511Y-114317574D01*
X110198254Y-114472182D01*
X109802007Y-114551000D01*
X109397993Y-114551000D01*
X109001746Y-114472182D01*
X108628489Y-114317574D01*
X108628488Y-114317574D01*
X108628487Y-114317573D01*
X108292564Y-114093116D01*
X108006884Y-113807436D01*
X107782427Y-113471513D01*
X107733376Y-113353093D01*
X107627818Y-113098254D01*
X107549000Y-112702007D01*
X107549000Y-112297993D01*
X107627818Y-111901746D01*
X107782426Y-111528489D01*
X108006884Y-111192564D01*
X108292564Y-110906884D01*
X108500101Y-110768212D01*
X108628487Y-110682427D01*
X108731067Y-110639937D01*
X109001746Y-110527818D01*
X109397993Y-110449000D01*
X109802007Y-110449000D01*
X110198254Y-110527818D01*
G37*
G36*
X100995331Y-110768211D02*
G01*
X101323092Y-110903974D01*
X101618070Y-111101072D01*
X101868928Y-111351930D01*
X102066026Y-111646908D01*
X102201789Y-111974669D01*
X102271000Y-112322616D01*
X102271000Y-112677384D01*
X102201789Y-113025331D01*
X102066026Y-113353092D01*
X101868928Y-113648070D01*
X101618070Y-113898928D01*
X101323092Y-114096026D01*
X100995331Y-114231789D01*
X100647384Y-114301000D01*
X100292616Y-114301000D01*
X99944669Y-114231789D01*
X99616908Y-114096026D01*
X99321930Y-113898928D01*
X99071072Y-113648070D01*
X98873974Y-113353092D01*
X98738211Y-113025331D01*
X98669000Y-112677384D01*
X98669000Y-112322616D01*
X98738211Y-111974669D01*
X98873974Y-111646908D01*
X99071072Y-111351930D01*
X99321930Y-111101072D01*
X99616908Y-110903974D01*
X99944669Y-110768211D01*
X100292616Y-110699000D01*
X100647384Y-110699000D01*
X100995331Y-110768211D01*
G37*
G36*
X105055331Y-110768211D02*
G01*
X105383092Y-110903974D01*
X105678070Y-111101072D01*
X105928928Y-111351930D01*
X106126026Y-111646908D01*
X106261789Y-111974669D01*
X106331000Y-112322616D01*
X106331000Y-112677384D01*
X106261789Y-113025331D01*
X106126026Y-113353092D01*
X105928928Y-113648070D01*
X105678070Y-113898928D01*
X105383092Y-114096026D01*
X105055331Y-114231789D01*
X104707384Y-114301000D01*
X104352616Y-114301000D01*
X104004669Y-114231789D01*
X103676908Y-114096026D01*
X103381930Y-113898928D01*
X103131072Y-113648070D01*
X102933974Y-113353092D01*
X102798211Y-113025331D01*
X102729000Y-112677384D01*
X102729000Y-112322616D01*
X102798211Y-111974669D01*
X102933974Y-111646908D01*
X103131072Y-111351930D01*
X103381930Y-111101072D01*
X103676908Y-110903974D01*
X104004669Y-110768211D01*
X104352616Y-110699000D01*
X104707384Y-110699000D01*
X105055331Y-110768211D01*
G37*
G36*
X120394072Y-108700918D02*
G01*
X120639939Y-108802759D01*
X120751328Y-108877187D01*
X120861211Y-108950609D01*
X121049391Y-109138789D01*
X121197242Y-109360063D01*
X121299082Y-109605928D01*
X121351000Y-109866937D01*
X121351000Y-110133063D01*
X121299082Y-110394072D01*
X121243683Y-110527819D01*
X121197241Y-110639939D01*
X121049390Y-110861212D01*
X120861212Y-111049390D01*
X120639939Y-111197241D01*
X120639938Y-111197242D01*
X120639937Y-111197242D01*
X120394072Y-111299082D01*
X120133063Y-111351000D01*
X119866937Y-111351000D01*
X119605928Y-111299082D01*
X119360063Y-111197242D01*
X119360062Y-111197242D01*
X119360061Y-111197241D01*
X119138788Y-111049390D01*
X118950610Y-110861212D01*
X118802759Y-110639939D01*
X118756318Y-110527819D01*
X118700918Y-110394072D01*
X118649000Y-110133063D01*
X118649000Y-109866937D01*
X118700918Y-109605928D01*
X118802758Y-109360063D01*
X118950609Y-109138789D01*
X119138789Y-108950609D01*
X119248672Y-108877187D01*
X119360061Y-108802759D01*
X119605928Y-108700918D01*
X119866937Y-108649000D01*
X120133063Y-108649000D01*
X120394072Y-108700918D01*
G37*
G36*
X60144549Y-97751116D02*
G01*
X60255734Y-97773232D01*
X60465203Y-97859997D01*
X60653720Y-97985960D01*
X60814040Y-98146280D01*
X60940003Y-98334797D01*
X60940004Y-98334799D01*
X61026768Y-98544267D01*
X61067403Y-98748552D01*
X61074516Y-98772001D01*
X61086067Y-98793612D01*
X61101612Y-98812554D01*
X61120554Y-98828099D01*
X61142165Y-98839650D01*
X61165614Y-98846763D01*
X61190000Y-98849165D01*
X61214386Y-98846763D01*
X61237835Y-98839650D01*
X61259446Y-98828099D01*
X61278388Y-98812554D01*
X61293933Y-98793612D01*
X61305484Y-98772001D01*
X61312597Y-98748552D01*
X61353232Y-98544267D01*
X61439996Y-98334799D01*
X61439997Y-98334797D01*
X61565960Y-98146280D01*
X61726280Y-97985960D01*
X61914797Y-97859997D01*
X62124266Y-97773232D01*
X62235451Y-97751116D01*
X62346635Y-97729000D01*
X62573365Y-97729000D01*
X62684549Y-97751116D01*
X62795734Y-97773232D01*
X63005203Y-97859997D01*
X63193720Y-97985960D01*
X63354040Y-98146280D01*
X63480003Y-98334797D01*
X63480004Y-98334799D01*
X63566768Y-98544267D01*
X63607403Y-98748552D01*
X63614516Y-98772001D01*
X63626067Y-98793612D01*
X63641612Y-98812554D01*
X63660554Y-98828099D01*
X63682165Y-98839650D01*
X63705614Y-98846763D01*
X63730000Y-98849165D01*
X63754386Y-98846763D01*
X63777835Y-98839650D01*
X63799446Y-98828099D01*
X63818388Y-98812554D01*
X63833933Y-98793612D01*
X63845484Y-98772001D01*
X63852597Y-98748552D01*
X63893232Y-98544267D01*
X63979996Y-98334799D01*
X63979997Y-98334797D01*
X64105960Y-98146280D01*
X64266280Y-97985960D01*
X64454797Y-97859997D01*
X64664266Y-97773232D01*
X64775451Y-97751116D01*
X64886635Y-97729000D01*
X65113365Y-97729000D01*
X65224549Y-97751116D01*
X65335734Y-97773232D01*
X65545203Y-97859997D01*
X65733720Y-97985960D01*
X65894040Y-98146280D01*
X66020003Y-98334797D01*
X66020004Y-98334799D01*
X66106768Y-98544267D01*
X66147403Y-98748552D01*
X66154516Y-98772001D01*
X66166067Y-98793612D01*
X66181612Y-98812554D01*
X66200554Y-98828099D01*
X66222165Y-98839650D01*
X66245614Y-98846763D01*
X66270000Y-98849165D01*
X66294386Y-98846763D01*
X66317835Y-98839650D01*
X66339446Y-98828099D01*
X66358388Y-98812554D01*
X66373933Y-98793612D01*
X66385484Y-98772001D01*
X66392597Y-98748552D01*
X66433232Y-98544267D01*
X66519996Y-98334799D01*
X66519997Y-98334797D01*
X66645960Y-98146280D01*
X66806280Y-97985960D01*
X66994797Y-97859997D01*
X67204266Y-97773232D01*
X67315451Y-97751116D01*
X67426635Y-97729000D01*
X67653365Y-97729000D01*
X67764549Y-97751116D01*
X67875734Y-97773232D01*
X68085203Y-97859997D01*
X68273720Y-97985960D01*
X68434040Y-98146280D01*
X68560003Y-98334797D01*
X68646768Y-98544266D01*
X68691000Y-98766636D01*
X68691000Y-98993364D01*
X68646768Y-99215734D01*
X68560003Y-99425203D01*
X68434040Y-99613720D01*
X68273720Y-99774040D01*
X68085203Y-99900003D01*
X67875734Y-99986768D01*
X67748161Y-100012144D01*
X67671448Y-100027403D01*
X67647999Y-100034516D01*
X67626388Y-100046067D01*
X67607446Y-100061612D01*
X67591901Y-100080554D01*
X67580350Y-100102165D01*
X67573237Y-100125614D01*
X67570835Y-100150000D01*
X67573237Y-100174386D01*
X67580350Y-100197835D01*
X67591901Y-100219446D01*
X67607446Y-100238388D01*
X67626388Y-100253933D01*
X67647999Y-100265484D01*
X67671448Y-100272597D01*
X67748161Y-100287856D01*
X67875734Y-100313232D01*
X68085203Y-100399997D01*
X68273720Y-100525960D01*
X68434040Y-100686280D01*
X68560003Y-100874797D01*
X68560004Y-100874799D01*
X68646768Y-101084267D01*
X68689498Y-101299082D01*
X68691000Y-101306636D01*
X68691000Y-101533364D01*
X68646768Y-101755734D01*
X68560003Y-101965203D01*
X68434040Y-102153720D01*
X68273720Y-102314040D01*
X68085203Y-102440003D01*
X67875734Y-102526768D01*
X67748161Y-102552144D01*
X67671448Y-102567403D01*
X67647999Y-102574516D01*
X67626388Y-102586067D01*
X67607446Y-102601612D01*
X67591901Y-102620554D01*
X67580350Y-102642165D01*
X67573237Y-102665614D01*
X67570835Y-102690000D01*
X67573237Y-102714386D01*
X67580350Y-102737835D01*
X67591901Y-102759446D01*
X67607446Y-102778388D01*
X67626388Y-102793933D01*
X67647999Y-102805484D01*
X67671448Y-102812597D01*
X67748161Y-102827856D01*
X67875734Y-102853232D01*
X68085203Y-102939997D01*
X68273720Y-103065960D01*
X68434040Y-103226280D01*
X68560003Y-103414797D01*
X68560004Y-103414799D01*
X68646768Y-103624267D01*
X68691000Y-103846635D01*
X68691000Y-104073365D01*
X68686492Y-104096026D01*
X68646768Y-104295734D01*
X68560003Y-104505203D01*
X68434040Y-104693720D01*
X68273720Y-104854040D01*
X68085203Y-104980003D01*
X67875734Y-105066768D01*
X67748161Y-105092144D01*
X67671448Y-105107403D01*
X67647999Y-105114516D01*
X67626388Y-105126067D01*
X67607446Y-105141612D01*
X67591901Y-105160554D01*
X67580350Y-105182165D01*
X67573237Y-105205614D01*
X67570835Y-105230000D01*
X67573237Y-105254386D01*
X67580350Y-105277835D01*
X67591901Y-105299446D01*
X67607446Y-105318388D01*
X67626388Y-105333933D01*
X67647999Y-105345484D01*
X67671448Y-105352597D01*
X67748161Y-105367856D01*
X67875734Y-105393232D01*
X68085203Y-105479997D01*
X68273720Y-105605960D01*
X68434040Y-105766280D01*
X68560003Y-105954797D01*
X68560004Y-105954799D01*
X68646768Y-106164267D01*
X68673585Y-106299082D01*
X68691000Y-106386636D01*
X68691000Y-106613364D01*
X68646768Y-106835734D01*
X68560003Y-107045203D01*
X68434040Y-107233720D01*
X68273720Y-107394040D01*
X68085203Y-107520003D01*
X67875734Y-107606768D01*
X67764549Y-107628884D01*
X67653365Y-107651000D01*
X67426635Y-107651000D01*
X67315451Y-107628884D01*
X67204266Y-107606768D01*
X66994797Y-107520003D01*
X66806280Y-107394040D01*
X66645960Y-107233720D01*
X66519997Y-107045203D01*
X66433232Y-106835734D01*
X66392597Y-106631448D01*
X66385484Y-106607999D01*
X66373933Y-106586388D01*
X66358388Y-106567446D01*
X66339446Y-106551901D01*
X66317835Y-106540350D01*
X66294386Y-106533237D01*
X66270000Y-106530835D01*
X66245614Y-106533237D01*
X66222165Y-106540350D01*
X66200554Y-106551901D01*
X66181612Y-106567446D01*
X66166067Y-106586388D01*
X66154516Y-106607999D01*
X66147403Y-106631448D01*
X66106768Y-106835734D01*
X66020003Y-107045203D01*
X65894040Y-107233720D01*
X65733720Y-107394040D01*
X65545203Y-107520003D01*
X65335734Y-107606768D01*
X65224549Y-107628884D01*
X65113365Y-107651000D01*
X64886635Y-107651000D01*
X64775451Y-107628884D01*
X64664266Y-107606768D01*
X64454797Y-107520003D01*
X64266280Y-107394040D01*
X64105960Y-107233720D01*
X63979997Y-107045203D01*
X63893232Y-106835734D01*
X63852597Y-106631448D01*
X63845484Y-106607999D01*
X63833933Y-106586388D01*
X63818388Y-106567446D01*
X63799446Y-106551901D01*
X63777835Y-106540350D01*
X63754386Y-106533237D01*
X63730000Y-106530835D01*
X63705614Y-106533237D01*
X63682165Y-106540350D01*
X63660554Y-106551901D01*
X63641612Y-106567446D01*
X63626067Y-106586388D01*
X63614516Y-106607999D01*
X63607403Y-106631448D01*
X63566768Y-106835734D01*
X63480003Y-107045203D01*
X63354040Y-107233720D01*
X63193720Y-107394040D01*
X63005203Y-107520003D01*
X62795734Y-107606768D01*
X62684549Y-107628884D01*
X62573365Y-107651000D01*
X62346635Y-107651000D01*
X62235451Y-107628884D01*
X62124266Y-107606768D01*
X61914797Y-107520003D01*
X61726280Y-107394040D01*
X61565960Y-107233720D01*
X61439997Y-107045203D01*
X61353232Y-106835734D01*
X61312597Y-106631448D01*
X61305484Y-106607999D01*
X61293933Y-106586388D01*
X61278388Y-106567446D01*
X61259446Y-106551901D01*
X61237835Y-106540350D01*
X61214386Y-106533237D01*
X61190000Y-106530835D01*
X61165614Y-106533237D01*
X61142165Y-106540350D01*
X61120554Y-106551901D01*
X61101612Y-106567446D01*
X61086067Y-106586388D01*
X61074516Y-106607999D01*
X61067403Y-106631448D01*
X61026768Y-106835734D01*
X60940003Y-107045203D01*
X60814040Y-107233720D01*
X60653720Y-107394040D01*
X60465203Y-107520003D01*
X60255734Y-107606768D01*
X60144549Y-107628884D01*
X60033365Y-107651000D01*
X59806635Y-107651000D01*
X59695451Y-107628884D01*
X59584266Y-107606768D01*
X59374797Y-107520003D01*
X59186280Y-107394040D01*
X59025960Y-107233720D01*
X58899997Y-107045203D01*
X58813232Y-106835734D01*
X58769000Y-106613364D01*
X58769000Y-106386636D01*
X58786416Y-106299082D01*
X58813232Y-106164267D01*
X58899996Y-105954799D01*
X58899997Y-105954797D01*
X59025960Y-105766280D01*
X59186280Y-105605960D01*
X59374797Y-105479997D01*
X59584266Y-105393232D01*
X59711839Y-105367856D01*
X59788552Y-105352597D01*
X59812001Y-105345484D01*
X59833612Y-105333933D01*
X59852554Y-105318388D01*
X59868099Y-105299446D01*
X59879650Y-105277835D01*
X59886763Y-105254386D01*
X59889165Y-105230000D01*
X59950835Y-105230000D01*
X59953237Y-105254386D01*
X59960350Y-105277835D01*
X59971901Y-105299446D01*
X59987446Y-105318388D01*
X60006388Y-105333933D01*
X60027999Y-105345484D01*
X60051448Y-105352597D01*
X60128161Y-105367856D01*
X60255734Y-105393232D01*
X60465203Y-105479997D01*
X60653720Y-105605960D01*
X60814040Y-105766280D01*
X60940003Y-105954797D01*
X60940004Y-105954799D01*
X61026768Y-106164267D01*
X61067403Y-106368552D01*
X61074516Y-106392001D01*
X61086067Y-106413612D01*
X61101612Y-106432554D01*
X61120554Y-106448099D01*
X61142165Y-106459650D01*
X61165614Y-106466763D01*
X61190000Y-106469165D01*
X61214386Y-106466763D01*
X61237835Y-106459650D01*
X61259446Y-106448099D01*
X61278388Y-106432554D01*
X61293933Y-106413612D01*
X61305484Y-106392001D01*
X61312597Y-106368552D01*
X61353232Y-106164267D01*
X61439996Y-105954799D01*
X61439997Y-105954797D01*
X61565960Y-105766280D01*
X61726280Y-105605960D01*
X61914797Y-105479997D01*
X62124266Y-105393232D01*
X62251839Y-105367856D01*
X62328552Y-105352597D01*
X62352001Y-105345484D01*
X62373612Y-105333933D01*
X62392554Y-105318388D01*
X62408099Y-105299446D01*
X62419650Y-105277835D01*
X62426763Y-105254386D01*
X62429165Y-105230000D01*
X62490835Y-105230000D01*
X62493237Y-105254386D01*
X62500350Y-105277835D01*
X62511901Y-105299446D01*
X62527446Y-105318388D01*
X62546388Y-105333933D01*
X62567999Y-105345484D01*
X62591448Y-105352597D01*
X62668161Y-105367856D01*
X62795734Y-105393232D01*
X63005203Y-105479997D01*
X63193720Y-105605960D01*
X63354040Y-105766280D01*
X63480003Y-105954797D01*
X63480004Y-105954799D01*
X63566768Y-106164267D01*
X63607403Y-106368552D01*
X63614516Y-106392001D01*
X63626067Y-106413612D01*
X63641612Y-106432554D01*
X63660554Y-106448099D01*
X63682165Y-106459650D01*
X63705614Y-106466763D01*
X63730000Y-106469165D01*
X63754386Y-106466763D01*
X63777835Y-106459650D01*
X63799446Y-106448099D01*
X63818388Y-106432554D01*
X63833933Y-106413612D01*
X63845484Y-106392001D01*
X63852597Y-106368552D01*
X63893232Y-106164267D01*
X63979996Y-105954799D01*
X63979997Y-105954797D01*
X64105960Y-105766280D01*
X64266280Y-105605960D01*
X64454797Y-105479997D01*
X64664266Y-105393232D01*
X64791839Y-105367856D01*
X64868552Y-105352597D01*
X64892001Y-105345484D01*
X64913612Y-105333933D01*
X64932554Y-105318388D01*
X64948099Y-105299446D01*
X64959650Y-105277835D01*
X64966763Y-105254386D01*
X64969165Y-105230000D01*
X65030835Y-105230000D01*
X65033237Y-105254386D01*
X65040350Y-105277835D01*
X65051901Y-105299446D01*
X65067446Y-105318388D01*
X65086388Y-105333933D01*
X65107999Y-105345484D01*
X65131448Y-105352597D01*
X65208161Y-105367856D01*
X65335734Y-105393232D01*
X65545203Y-105479997D01*
X65733720Y-105605960D01*
X65894040Y-105766280D01*
X66020003Y-105954797D01*
X66020004Y-105954799D01*
X66106768Y-106164267D01*
X66147403Y-106368552D01*
X66154516Y-106392001D01*
X66166067Y-106413612D01*
X66181612Y-106432554D01*
X66200554Y-106448099D01*
X66222165Y-106459650D01*
X66245614Y-106466763D01*
X66270000Y-106469165D01*
X66294386Y-106466763D01*
X66317835Y-106459650D01*
X66339446Y-106448099D01*
X66358388Y-106432554D01*
X66373933Y-106413612D01*
X66385484Y-106392001D01*
X66392597Y-106368552D01*
X66433232Y-106164267D01*
X66519996Y-105954799D01*
X66519997Y-105954797D01*
X66645960Y-105766280D01*
X66806280Y-105605960D01*
X66994797Y-105479997D01*
X67204266Y-105393232D01*
X67331839Y-105367856D01*
X67408552Y-105352597D01*
X67432001Y-105345484D01*
X67453612Y-105333933D01*
X67472554Y-105318388D01*
X67488099Y-105299446D01*
X67499650Y-105277835D01*
X67506763Y-105254386D01*
X67509165Y-105230000D01*
X67506763Y-105205614D01*
X67499650Y-105182165D01*
X67488099Y-105160554D01*
X67472554Y-105141612D01*
X67453612Y-105126067D01*
X67432001Y-105114516D01*
X67408552Y-105107403D01*
X67331839Y-105092144D01*
X67204266Y-105066768D01*
X66994797Y-104980003D01*
X66806280Y-104854040D01*
X66645960Y-104693720D01*
X66519997Y-104505203D01*
X66433232Y-104295734D01*
X66393508Y-104096026D01*
X66392597Y-104091448D01*
X66385484Y-104067999D01*
X66373933Y-104046388D01*
X66358388Y-104027446D01*
X66339446Y-104011901D01*
X66317835Y-104000350D01*
X66294386Y-103993237D01*
X66270000Y-103990835D01*
X66245614Y-103993237D01*
X66222165Y-104000350D01*
X66200554Y-104011901D01*
X66181612Y-104027446D01*
X66166067Y-104046388D01*
X66154516Y-104067999D01*
X66147403Y-104091448D01*
X66146492Y-104096026D01*
X66106768Y-104295734D01*
X66020003Y-104505203D01*
X65894040Y-104693720D01*
X65733720Y-104854040D01*
X65545203Y-104980003D01*
X65335734Y-105066768D01*
X65208161Y-105092144D01*
X65131448Y-105107403D01*
X65107999Y-105114516D01*
X65086388Y-105126067D01*
X65067446Y-105141612D01*
X65051901Y-105160554D01*
X65040350Y-105182165D01*
X65033237Y-105205614D01*
X65030835Y-105230000D01*
X64969165Y-105230000D01*
X64966763Y-105205614D01*
X64959650Y-105182165D01*
X64948099Y-105160554D01*
X64932554Y-105141612D01*
X64913612Y-105126067D01*
X64892001Y-105114516D01*
X64868552Y-105107403D01*
X64791839Y-105092144D01*
X64664266Y-105066768D01*
X64454797Y-104980003D01*
X64266280Y-104854040D01*
X64105960Y-104693720D01*
X63979997Y-104505203D01*
X63893232Y-104295734D01*
X63853508Y-104096026D01*
X63852597Y-104091448D01*
X63845484Y-104067999D01*
X63833933Y-104046388D01*
X63818388Y-104027446D01*
X63799446Y-104011901D01*
X63777835Y-104000350D01*
X63754386Y-103993237D01*
X63730000Y-103990835D01*
X63705614Y-103993237D01*
X63682165Y-104000350D01*
X63660554Y-104011901D01*
X63641612Y-104027446D01*
X63626067Y-104046388D01*
X63614516Y-104067999D01*
X63607403Y-104091448D01*
X63606492Y-104096026D01*
X63566768Y-104295734D01*
X63480003Y-104505203D01*
X63354040Y-104693720D01*
X63193720Y-104854040D01*
X63005203Y-104980003D01*
X62795734Y-105066768D01*
X62668161Y-105092144D01*
X62591448Y-105107403D01*
X62567999Y-105114516D01*
X62546388Y-105126067D01*
X62527446Y-105141612D01*
X62511901Y-105160554D01*
X62500350Y-105182165D01*
X62493237Y-105205614D01*
X62490835Y-105230000D01*
X62429165Y-105230000D01*
X62426763Y-105205614D01*
X62419650Y-105182165D01*
X62408099Y-105160554D01*
X62392554Y-105141612D01*
X62373612Y-105126067D01*
X62352001Y-105114516D01*
X62328552Y-105107403D01*
X62251839Y-105092144D01*
X62124266Y-105066768D01*
X61914797Y-104980003D01*
X61726280Y-104854040D01*
X61565960Y-104693720D01*
X61439997Y-104505203D01*
X61353232Y-104295734D01*
X61313508Y-104096026D01*
X61312597Y-104091448D01*
X61305484Y-104067999D01*
X61293933Y-104046388D01*
X61278388Y-104027446D01*
X61259446Y-104011901D01*
X61237835Y-104000350D01*
X61214386Y-103993237D01*
X61190000Y-103990835D01*
X61165614Y-103993237D01*
X61142165Y-104000350D01*
X61120554Y-104011901D01*
X61101612Y-104027446D01*
X61086067Y-104046388D01*
X61074516Y-104067999D01*
X61067403Y-104091448D01*
X61066492Y-104096026D01*
X61026768Y-104295734D01*
X60940003Y-104505203D01*
X60814040Y-104693720D01*
X60653720Y-104854040D01*
X60465203Y-104980003D01*
X60255734Y-105066768D01*
X60128161Y-105092144D01*
X60051448Y-105107403D01*
X60027999Y-105114516D01*
X60006388Y-105126067D01*
X59987446Y-105141612D01*
X59971901Y-105160554D01*
X59960350Y-105182165D01*
X59953237Y-105205614D01*
X59950835Y-105230000D01*
X59889165Y-105230000D01*
X59886763Y-105205614D01*
X59879650Y-105182165D01*
X59868099Y-105160554D01*
X59852554Y-105141612D01*
X59833612Y-105126067D01*
X59812001Y-105114516D01*
X59788552Y-105107403D01*
X59711839Y-105092144D01*
X59584266Y-105066768D01*
X59374797Y-104980003D01*
X59186280Y-104854040D01*
X59025960Y-104693720D01*
X58899997Y-104505203D01*
X58813232Y-104295734D01*
X58773508Y-104096026D01*
X58769000Y-104073365D01*
X58769000Y-103846635D01*
X58813232Y-103624267D01*
X58899996Y-103414799D01*
X58899997Y-103414797D01*
X59025960Y-103226280D01*
X59186280Y-103065960D01*
X59374797Y-102939997D01*
X59584266Y-102853232D01*
X59711839Y-102827856D01*
X59788552Y-102812597D01*
X59812001Y-102805484D01*
X59833612Y-102793933D01*
X59852554Y-102778388D01*
X59868099Y-102759446D01*
X59879650Y-102737835D01*
X59886763Y-102714386D01*
X59889165Y-102690000D01*
X59950835Y-102690000D01*
X59953237Y-102714386D01*
X59960350Y-102737835D01*
X59971901Y-102759446D01*
X59987446Y-102778388D01*
X60006388Y-102793933D01*
X60027999Y-102805484D01*
X60051448Y-102812597D01*
X60128161Y-102827856D01*
X60255734Y-102853232D01*
X60465203Y-102939997D01*
X60653720Y-103065960D01*
X60814040Y-103226280D01*
X60940003Y-103414797D01*
X60940004Y-103414799D01*
X61026768Y-103624267D01*
X61067403Y-103828552D01*
X61074516Y-103852001D01*
X61086067Y-103873612D01*
X61101612Y-103892554D01*
X61120554Y-103908099D01*
X61142165Y-103919650D01*
X61165614Y-103926763D01*
X61190000Y-103929165D01*
X61214386Y-103926763D01*
X61237835Y-103919650D01*
X61259446Y-103908099D01*
X61278388Y-103892554D01*
X61293933Y-103873612D01*
X61305484Y-103852001D01*
X61312597Y-103828552D01*
X61353232Y-103624267D01*
X61439996Y-103414799D01*
X61439997Y-103414797D01*
X61565960Y-103226280D01*
X61726280Y-103065960D01*
X61914797Y-102939997D01*
X62124266Y-102853232D01*
X62251839Y-102827856D01*
X62328552Y-102812597D01*
X62352001Y-102805484D01*
X62373612Y-102793933D01*
X62392554Y-102778388D01*
X62408099Y-102759446D01*
X62419650Y-102737835D01*
X62426763Y-102714386D01*
X62429165Y-102690000D01*
X62490835Y-102690000D01*
X62493237Y-102714386D01*
X62500350Y-102737835D01*
X62511901Y-102759446D01*
X62527446Y-102778388D01*
X62546388Y-102793933D01*
X62567999Y-102805484D01*
X62591448Y-102812597D01*
X62668161Y-102827856D01*
X62795734Y-102853232D01*
X63005203Y-102939997D01*
X63193720Y-103065960D01*
X63354040Y-103226280D01*
X63480003Y-103414797D01*
X63480004Y-103414799D01*
X63566768Y-103624267D01*
X63607403Y-103828552D01*
X63614516Y-103852001D01*
X63626067Y-103873612D01*
X63641612Y-103892554D01*
X63660554Y-103908099D01*
X63682165Y-103919650D01*
X63705614Y-103926763D01*
X63730000Y-103929165D01*
X63754386Y-103926763D01*
X63777835Y-103919650D01*
X63799446Y-103908099D01*
X63818388Y-103892554D01*
X63833933Y-103873612D01*
X63845484Y-103852001D01*
X63852597Y-103828552D01*
X63893232Y-103624267D01*
X63979996Y-103414799D01*
X63979997Y-103414797D01*
X64105960Y-103226280D01*
X64266280Y-103065960D01*
X64454797Y-102939997D01*
X64664266Y-102853232D01*
X64791839Y-102827856D01*
X64868552Y-102812597D01*
X64892001Y-102805484D01*
X64913612Y-102793933D01*
X64932554Y-102778388D01*
X64948099Y-102759446D01*
X64959650Y-102737835D01*
X64966763Y-102714386D01*
X64969165Y-102690000D01*
X65030835Y-102690000D01*
X65033237Y-102714386D01*
X65040350Y-102737835D01*
X65051901Y-102759446D01*
X65067446Y-102778388D01*
X65086388Y-102793933D01*
X65107999Y-102805484D01*
X65131448Y-102812597D01*
X65208161Y-102827856D01*
X65335734Y-102853232D01*
X65545203Y-102939997D01*
X65733720Y-103065960D01*
X65894040Y-103226280D01*
X66020003Y-103414797D01*
X66020004Y-103414799D01*
X66106768Y-103624267D01*
X66147403Y-103828552D01*
X66154516Y-103852001D01*
X66166067Y-103873612D01*
X66181612Y-103892554D01*
X66200554Y-103908099D01*
X66222165Y-103919650D01*
X66245614Y-103926763D01*
X66270000Y-103929165D01*
X66294386Y-103926763D01*
X66317835Y-103919650D01*
X66339446Y-103908099D01*
X66358388Y-103892554D01*
X66373933Y-103873612D01*
X66385484Y-103852001D01*
X66392597Y-103828552D01*
X66433232Y-103624267D01*
X66519996Y-103414799D01*
X66519997Y-103414797D01*
X66645960Y-103226280D01*
X66806280Y-103065960D01*
X66994797Y-102939997D01*
X67204266Y-102853232D01*
X67331839Y-102827856D01*
X67408552Y-102812597D01*
X67432001Y-102805484D01*
X67453612Y-102793933D01*
X67472554Y-102778388D01*
X67488099Y-102759446D01*
X67499650Y-102737835D01*
X67506763Y-102714386D01*
X67509165Y-102690000D01*
X67506763Y-102665614D01*
X67499650Y-102642165D01*
X67488099Y-102620554D01*
X67472554Y-102601612D01*
X67453612Y-102586067D01*
X67432001Y-102574516D01*
X67408552Y-102567403D01*
X67331839Y-102552144D01*
X67204266Y-102526768D01*
X66994797Y-102440003D01*
X66806280Y-102314040D01*
X66645960Y-102153720D01*
X66519997Y-101965203D01*
X66433232Y-101755734D01*
X66392597Y-101551448D01*
X66385484Y-101527999D01*
X66373933Y-101506388D01*
X66358388Y-101487446D01*
X66339446Y-101471901D01*
X66317835Y-101460350D01*
X66294386Y-101453237D01*
X66270000Y-101450835D01*
X66245614Y-101453237D01*
X66222165Y-101460350D01*
X66200554Y-101471901D01*
X66181612Y-101487446D01*
X66166067Y-101506388D01*
X66154516Y-101527999D01*
X66147403Y-101551448D01*
X66106768Y-101755734D01*
X66020003Y-101965203D01*
X65894040Y-102153720D01*
X65733720Y-102314040D01*
X65545203Y-102440003D01*
X65335734Y-102526768D01*
X65208161Y-102552144D01*
X65131448Y-102567403D01*
X65107999Y-102574516D01*
X65086388Y-102586067D01*
X65067446Y-102601612D01*
X65051901Y-102620554D01*
X65040350Y-102642165D01*
X65033237Y-102665614D01*
X65030835Y-102690000D01*
X64969165Y-102690000D01*
X64966763Y-102665614D01*
X64959650Y-102642165D01*
X64948099Y-102620554D01*
X64932554Y-102601612D01*
X64913612Y-102586067D01*
X64892001Y-102574516D01*
X64868552Y-102567403D01*
X64791839Y-102552144D01*
X64664266Y-102526768D01*
X64454797Y-102440003D01*
X64266280Y-102314040D01*
X64105960Y-102153720D01*
X63979997Y-101965203D01*
X63893232Y-101755734D01*
X63852597Y-101551448D01*
X63845484Y-101527999D01*
X63833933Y-101506388D01*
X63818388Y-101487446D01*
X63799446Y-101471901D01*
X63777835Y-101460350D01*
X63754386Y-101453237D01*
X63730000Y-101450835D01*
X63705614Y-101453237D01*
X63682165Y-101460350D01*
X63660554Y-101471901D01*
X63641612Y-101487446D01*
X63626067Y-101506388D01*
X63614516Y-101527999D01*
X63607403Y-101551448D01*
X63566768Y-101755734D01*
X63480003Y-101965203D01*
X63354040Y-102153720D01*
X63193720Y-102314040D01*
X63005203Y-102440003D01*
X62795734Y-102526768D01*
X62668161Y-102552144D01*
X62591448Y-102567403D01*
X62567999Y-102574516D01*
X62546388Y-102586067D01*
X62527446Y-102601612D01*
X62511901Y-102620554D01*
X62500350Y-102642165D01*
X62493237Y-102665614D01*
X62490835Y-102690000D01*
X62429165Y-102690000D01*
X62426763Y-102665614D01*
X62419650Y-102642165D01*
X62408099Y-102620554D01*
X62392554Y-102601612D01*
X62373612Y-102586067D01*
X62352001Y-102574516D01*
X62328552Y-102567403D01*
X62251839Y-102552144D01*
X62124266Y-102526768D01*
X61914797Y-102440003D01*
X61726280Y-102314040D01*
X61565960Y-102153720D01*
X61439997Y-101965203D01*
X61353232Y-101755734D01*
X61312597Y-101551448D01*
X61305484Y-101527999D01*
X61293933Y-101506388D01*
X61278388Y-101487446D01*
X61259446Y-101471901D01*
X61237835Y-101460350D01*
X61214386Y-101453237D01*
X61190000Y-101450835D01*
X61165614Y-101453237D01*
X61142165Y-101460350D01*
X61120554Y-101471901D01*
X61101612Y-101487446D01*
X61086067Y-101506388D01*
X61074516Y-101527999D01*
X61067403Y-101551448D01*
X61026768Y-101755734D01*
X60940003Y-101965203D01*
X60814040Y-102153720D01*
X60653720Y-102314040D01*
X60465203Y-102440003D01*
X60255734Y-102526768D01*
X60128161Y-102552144D01*
X60051448Y-102567403D01*
X60027999Y-102574516D01*
X60006388Y-102586067D01*
X59987446Y-102601612D01*
X59971901Y-102620554D01*
X59960350Y-102642165D01*
X59953237Y-102665614D01*
X59950835Y-102690000D01*
X59889165Y-102690000D01*
X59886763Y-102665614D01*
X59879650Y-102642165D01*
X59868099Y-102620554D01*
X59852554Y-102601612D01*
X59833612Y-102586067D01*
X59812001Y-102574516D01*
X59788552Y-102567403D01*
X59711839Y-102552144D01*
X59584266Y-102526768D01*
X59374797Y-102440003D01*
X59186280Y-102314040D01*
X59025960Y-102153720D01*
X58899997Y-101965203D01*
X58813232Y-101755734D01*
X58769000Y-101533364D01*
X58769000Y-101306636D01*
X58770503Y-101299082D01*
X58813232Y-101084267D01*
X58899996Y-100874799D01*
X58899997Y-100874797D01*
X59025960Y-100686280D01*
X59186280Y-100525960D01*
X59374797Y-100399997D01*
X59584266Y-100313232D01*
X59711839Y-100287856D01*
X59788552Y-100272597D01*
X59812001Y-100265484D01*
X59833612Y-100253933D01*
X59852554Y-100238388D01*
X59868099Y-100219446D01*
X59879650Y-100197835D01*
X59886763Y-100174386D01*
X59889165Y-100150000D01*
X59950835Y-100150000D01*
X59953237Y-100174386D01*
X59960350Y-100197835D01*
X59971901Y-100219446D01*
X59987446Y-100238388D01*
X60006388Y-100253933D01*
X60027999Y-100265484D01*
X60051448Y-100272597D01*
X60128161Y-100287856D01*
X60255734Y-100313232D01*
X60465203Y-100399997D01*
X60653720Y-100525960D01*
X60814040Y-100686280D01*
X60940003Y-100874797D01*
X60940004Y-100874799D01*
X61026768Y-101084267D01*
X61067403Y-101288552D01*
X61074516Y-101312001D01*
X61086067Y-101333612D01*
X61101612Y-101352554D01*
X61120554Y-101368099D01*
X61142165Y-101379650D01*
X61165614Y-101386763D01*
X61190000Y-101389165D01*
X61214386Y-101386763D01*
X61237835Y-101379650D01*
X61259446Y-101368099D01*
X61278388Y-101352554D01*
X61293933Y-101333612D01*
X61305484Y-101312001D01*
X61312597Y-101288552D01*
X61353232Y-101084267D01*
X61439996Y-100874799D01*
X61439997Y-100874797D01*
X61565960Y-100686280D01*
X61726280Y-100525960D01*
X61914797Y-100399997D01*
X62124266Y-100313232D01*
X62251839Y-100287856D01*
X62328552Y-100272597D01*
X62352001Y-100265484D01*
X62373612Y-100253933D01*
X62392554Y-100238388D01*
X62408099Y-100219446D01*
X62419650Y-100197835D01*
X62426763Y-100174386D01*
X62429165Y-100150000D01*
X62490835Y-100150000D01*
X62493237Y-100174386D01*
X62500350Y-100197835D01*
X62511901Y-100219446D01*
X62527446Y-100238388D01*
X62546388Y-100253933D01*
X62567999Y-100265484D01*
X62591448Y-100272597D01*
X62668161Y-100287856D01*
X62795734Y-100313232D01*
X63005203Y-100399997D01*
X63193720Y-100525960D01*
X63354040Y-100686280D01*
X63480003Y-100874797D01*
X63480004Y-100874799D01*
X63566768Y-101084267D01*
X63607403Y-101288552D01*
X63614516Y-101312001D01*
X63626067Y-101333612D01*
X63641612Y-101352554D01*
X63660554Y-101368099D01*
X63682165Y-101379650D01*
X63705614Y-101386763D01*
X63730000Y-101389165D01*
X63754386Y-101386763D01*
X63777835Y-101379650D01*
X63799446Y-101368099D01*
X63818388Y-101352554D01*
X63833933Y-101333612D01*
X63845484Y-101312001D01*
X63852597Y-101288552D01*
X63893232Y-101084267D01*
X63979996Y-100874799D01*
X63979997Y-100874797D01*
X64105960Y-100686280D01*
X64266280Y-100525960D01*
X64454797Y-100399997D01*
X64664266Y-100313232D01*
X64791839Y-100287856D01*
X64868552Y-100272597D01*
X64892001Y-100265484D01*
X64913612Y-100253933D01*
X64932554Y-100238388D01*
X64948099Y-100219446D01*
X64959650Y-100197835D01*
X64966763Y-100174386D01*
X64969165Y-100150000D01*
X65030835Y-100150000D01*
X65033237Y-100174386D01*
X65040350Y-100197835D01*
X65051901Y-100219446D01*
X65067446Y-100238388D01*
X65086388Y-100253933D01*
X65107999Y-100265484D01*
X65131448Y-100272597D01*
X65208161Y-100287856D01*
X65335734Y-100313232D01*
X65545203Y-100399997D01*
X65733720Y-100525960D01*
X65894040Y-100686280D01*
X66020003Y-100874797D01*
X66020004Y-100874799D01*
X66106768Y-101084267D01*
X66147403Y-101288552D01*
X66154516Y-101312001D01*
X66166067Y-101333612D01*
X66181612Y-101352554D01*
X66200554Y-101368099D01*
X66222165Y-101379650D01*
X66245614Y-101386763D01*
X66270000Y-101389165D01*
X66294386Y-101386763D01*
X66317835Y-101379650D01*
X66339446Y-101368099D01*
X66358388Y-101352554D01*
X66373933Y-101333612D01*
X66385484Y-101312001D01*
X66392597Y-101288552D01*
X66433232Y-101084267D01*
X66519996Y-100874799D01*
X66519997Y-100874797D01*
X66645960Y-100686280D01*
X66806280Y-100525960D01*
X66994797Y-100399997D01*
X67204266Y-100313232D01*
X67331839Y-100287856D01*
X67408552Y-100272597D01*
X67432001Y-100265484D01*
X67453612Y-100253933D01*
X67472554Y-100238388D01*
X67488099Y-100219446D01*
X67499650Y-100197835D01*
X67506763Y-100174386D01*
X67509165Y-100150000D01*
X67506763Y-100125614D01*
X67499650Y-100102165D01*
X67488099Y-100080554D01*
X67472554Y-100061612D01*
X67453612Y-100046067D01*
X67432001Y-100034516D01*
X67408552Y-100027403D01*
X67331839Y-100012144D01*
X67204266Y-99986768D01*
X66994797Y-99900003D01*
X66806280Y-99774040D01*
X66645960Y-99613720D01*
X66519997Y-99425203D01*
X66433232Y-99215734D01*
X66392597Y-99011448D01*
X66385484Y-98987999D01*
X66373933Y-98966388D01*
X66358388Y-98947446D01*
X66339446Y-98931901D01*
X66317835Y-98920350D01*
X66294386Y-98913237D01*
X66270000Y-98910835D01*
X66245614Y-98913237D01*
X66222165Y-98920350D01*
X66200554Y-98931901D01*
X66181612Y-98947446D01*
X66166067Y-98966388D01*
X66154516Y-98987999D01*
X66147403Y-99011448D01*
X66106768Y-99215734D01*
X66020003Y-99425203D01*
X65894040Y-99613720D01*
X65733720Y-99774040D01*
X65545203Y-99900003D01*
X65335734Y-99986768D01*
X65208161Y-100012144D01*
X65131448Y-100027403D01*
X65107999Y-100034516D01*
X65086388Y-100046067D01*
X65067446Y-100061612D01*
X65051901Y-100080554D01*
X65040350Y-100102165D01*
X65033237Y-100125614D01*
X65030835Y-100150000D01*
X64969165Y-100150000D01*
X64966763Y-100125614D01*
X64959650Y-100102165D01*
X64948099Y-100080554D01*
X64932554Y-100061612D01*
X64913612Y-100046067D01*
X64892001Y-100034516D01*
X64868552Y-100027403D01*
X64791839Y-100012144D01*
X64664266Y-99986768D01*
X64454797Y-99900003D01*
X64266280Y-99774040D01*
X64105960Y-99613720D01*
X63979997Y-99425203D01*
X63893232Y-99215734D01*
X63852597Y-99011448D01*
X63845484Y-98987999D01*
X63833933Y-98966388D01*
X63818388Y-98947446D01*
X63799446Y-98931901D01*
X63777835Y-98920350D01*
X63754386Y-98913237D01*
X63730000Y-98910835D01*
X63705614Y-98913237D01*
X63682165Y-98920350D01*
X63660554Y-98931901D01*
X63641612Y-98947446D01*
X63626067Y-98966388D01*
X63614516Y-98987999D01*
X63607403Y-99011448D01*
X63566768Y-99215734D01*
X63480003Y-99425203D01*
X63354040Y-99613720D01*
X63193720Y-99774040D01*
X63005203Y-99900003D01*
X62795734Y-99986768D01*
X62668161Y-100012144D01*
X62591448Y-100027403D01*
X62567999Y-100034516D01*
X62546388Y-100046067D01*
X62527446Y-100061612D01*
X62511901Y-100080554D01*
X62500350Y-100102165D01*
X62493237Y-100125614D01*
X62490835Y-100150000D01*
X62429165Y-100150000D01*
X62426763Y-100125614D01*
X62419650Y-100102165D01*
X62408099Y-100080554D01*
X62392554Y-100061612D01*
X62373612Y-100046067D01*
X62352001Y-100034516D01*
X62328552Y-100027403D01*
X62251839Y-100012144D01*
X62124266Y-99986768D01*
X61914797Y-99900003D01*
X61726280Y-99774040D01*
X61565960Y-99613720D01*
X61439997Y-99425203D01*
X61353232Y-99215734D01*
X61312597Y-99011448D01*
X61305484Y-98987999D01*
X61293933Y-98966388D01*
X61278388Y-98947446D01*
X61259446Y-98931901D01*
X61237835Y-98920350D01*
X61214386Y-98913237D01*
X61190000Y-98910835D01*
X61165614Y-98913237D01*
X61142165Y-98920350D01*
X61120554Y-98931901D01*
X61101612Y-98947446D01*
X61086067Y-98966388D01*
X61074516Y-98987999D01*
X61067403Y-99011448D01*
X61026768Y-99215734D01*
X60940003Y-99425203D01*
X60814040Y-99613720D01*
X60653720Y-99774040D01*
X60465203Y-99900003D01*
X60255734Y-99986768D01*
X60128161Y-100012144D01*
X60051448Y-100027403D01*
X60027999Y-100034516D01*
X60006388Y-100046067D01*
X59987446Y-100061612D01*
X59971901Y-100080554D01*
X59960350Y-100102165D01*
X59953237Y-100125614D01*
X59950835Y-100150000D01*
X59889165Y-100150000D01*
X59886763Y-100125614D01*
X59879650Y-100102165D01*
X59868099Y-100080554D01*
X59852554Y-100061612D01*
X59833612Y-100046067D01*
X59812001Y-100034516D01*
X59788552Y-100027403D01*
X59711839Y-100012144D01*
X59584266Y-99986768D01*
X59374797Y-99900003D01*
X59186280Y-99774040D01*
X59025960Y-99613720D01*
X58899997Y-99425203D01*
X58813232Y-99215734D01*
X58769000Y-98993364D01*
X58769000Y-98766636D01*
X58813232Y-98544266D01*
X58899997Y-98334797D01*
X59025960Y-98146280D01*
X59186280Y-97985960D01*
X59374797Y-97859997D01*
X59584266Y-97773232D01*
X59695451Y-97751116D01*
X59806635Y-97729000D01*
X60033365Y-97729000D01*
X60144549Y-97751116D01*
G37*
G36*
X120394072Y-103700918D02*
G01*
X120639939Y-103802759D01*
X120705605Y-103846636D01*
X120861211Y-103950609D01*
X121049391Y-104138789D01*
X121197242Y-104360063D01*
X121299082Y-104605928D01*
X121351000Y-104866937D01*
X121351000Y-105133063D01*
X121311044Y-105333933D01*
X121299082Y-105394072D01*
X121197241Y-105639939D01*
X121049390Y-105861212D01*
X120861212Y-106049390D01*
X120639939Y-106197241D01*
X120639938Y-106197242D01*
X120639937Y-106197242D01*
X120394072Y-106299082D01*
X120133063Y-106351000D01*
X119866937Y-106351000D01*
X119605928Y-106299082D01*
X119360063Y-106197242D01*
X119360062Y-106197242D01*
X119360061Y-106197241D01*
X119138788Y-106049390D01*
X118950610Y-105861212D01*
X118802759Y-105639939D01*
X118700918Y-105394072D01*
X118688956Y-105333933D01*
X118649000Y-105133063D01*
X118649000Y-104866937D01*
X118700918Y-104605928D01*
X118802758Y-104360063D01*
X118950609Y-104138789D01*
X119138789Y-103950609D01*
X119294395Y-103846636D01*
X119360061Y-103802759D01*
X119605928Y-103700918D01*
X119866937Y-103649000D01*
X120133063Y-103649000D01*
X120394072Y-103700918D01*
G37*
G36*
X96098254Y-100527818D02*
G01*
X96368933Y-100639937D01*
X96471513Y-100682427D01*
X96759417Y-100874799D01*
X96807436Y-100906884D01*
X97093116Y-101192564D01*
X97317574Y-101528489D01*
X97472182Y-101901746D01*
X97551000Y-102297993D01*
X97551000Y-102702007D01*
X97472182Y-103098254D01*
X97341065Y-103414799D01*
X97317573Y-103471513D01*
X97093116Y-103807436D01*
X96807436Y-104093116D01*
X96471513Y-104317573D01*
X96471512Y-104317574D01*
X96471511Y-104317574D01*
X96098254Y-104472182D01*
X95702007Y-104551000D01*
X95297993Y-104551000D01*
X94901746Y-104472182D01*
X94528489Y-104317574D01*
X94528488Y-104317574D01*
X94528487Y-104317573D01*
X94192564Y-104093116D01*
X93906884Y-103807436D01*
X93682427Y-103471513D01*
X93658935Y-103414799D01*
X93527818Y-103098254D01*
X93449000Y-102702007D01*
X93449000Y-102297993D01*
X93527818Y-101901746D01*
X93682426Y-101528489D01*
X93906884Y-101192564D01*
X94192564Y-100906884D01*
X94240583Y-100874799D01*
X94528487Y-100682427D01*
X94631067Y-100639937D01*
X94901746Y-100527818D01*
X95297993Y-100449000D01*
X95702007Y-100449000D01*
X96098254Y-100527818D01*
G37*
G36*
X110198254Y-100527818D02*
G01*
X110468933Y-100639937D01*
X110571513Y-100682427D01*
X110859417Y-100874799D01*
X110907436Y-100906884D01*
X111193116Y-101192564D01*
X111417574Y-101528489D01*
X111572182Y-101901746D01*
X111651000Y-102297993D01*
X111651000Y-102702007D01*
X111572182Y-103098254D01*
X111441065Y-103414799D01*
X111417573Y-103471513D01*
X111193116Y-103807436D01*
X110907436Y-104093116D01*
X110571513Y-104317573D01*
X110571512Y-104317574D01*
X110571511Y-104317574D01*
X110198254Y-104472182D01*
X109802007Y-104551000D01*
X109397993Y-104551000D01*
X109001746Y-104472182D01*
X108628489Y-104317574D01*
X108628488Y-104317574D01*
X108628487Y-104317573D01*
X108292564Y-104093116D01*
X108006884Y-103807436D01*
X107782427Y-103471513D01*
X107758935Y-103414799D01*
X107627818Y-103098254D01*
X107549000Y-102702007D01*
X107549000Y-102297993D01*
X107627818Y-101901746D01*
X107782426Y-101528489D01*
X108006884Y-101192564D01*
X108292564Y-100906884D01*
X108340583Y-100874799D01*
X108628487Y-100682427D01*
X108731067Y-100639937D01*
X109001746Y-100527818D01*
X109397993Y-100449000D01*
X109802007Y-100449000D01*
X110198254Y-100527818D01*
G37*
G36*
X105055331Y-100768211D02*
G01*
X105383092Y-100903974D01*
X105678070Y-101101072D01*
X105928928Y-101351930D01*
X106126026Y-101646908D01*
X106261789Y-101974669D01*
X106331000Y-102322616D01*
X106331000Y-102677384D01*
X106261789Y-103025331D01*
X106126026Y-103353092D01*
X105928928Y-103648070D01*
X105678070Y-103898928D01*
X105383092Y-104096026D01*
X105055331Y-104231789D01*
X104707384Y-104301000D01*
X104352616Y-104301000D01*
X104004669Y-104231789D01*
X103676908Y-104096026D01*
X103381930Y-103898928D01*
X103131072Y-103648070D01*
X102933974Y-103353092D01*
X102798211Y-103025331D01*
X102729000Y-102677384D01*
X102729000Y-102322616D01*
X102798211Y-101974669D01*
X102933974Y-101646908D01*
X103131072Y-101351930D01*
X103381930Y-101101072D01*
X103676908Y-100903974D01*
X104004669Y-100768211D01*
X104352616Y-100699000D01*
X104707384Y-100699000D01*
X105055331Y-100768211D01*
G37*
G36*
X100995331Y-100768211D02*
G01*
X101323092Y-100903974D01*
X101618070Y-101101072D01*
X101868928Y-101351930D01*
X102066026Y-101646908D01*
X102201789Y-101974669D01*
X102271000Y-102322616D01*
X102271000Y-102677384D01*
X102201789Y-103025331D01*
X102066026Y-103353092D01*
X101868928Y-103648070D01*
X101618070Y-103898928D01*
X101323092Y-104096026D01*
X100995331Y-104231789D01*
X100647384Y-104301000D01*
X100292616Y-104301000D01*
X99944669Y-104231789D01*
X99616908Y-104096026D01*
X99321930Y-103898928D01*
X99071072Y-103648070D01*
X98873974Y-103353092D01*
X98738211Y-103025331D01*
X98669000Y-102677384D01*
X98669000Y-102322616D01*
X98738211Y-101974669D01*
X98873974Y-101646908D01*
X99071072Y-101351930D01*
X99321930Y-101101072D01*
X99616908Y-100903974D01*
X99944669Y-100768211D01*
X100292616Y-100699000D01*
X100647384Y-100699000D01*
X100995331Y-100768211D01*
G37*
G36*
X120394072Y-98700918D02*
G01*
X120565683Y-98772001D01*
X120639939Y-98802759D01*
X120695150Y-98839650D01*
X120861211Y-98950609D01*
X121049391Y-99138789D01*
X121197242Y-99360063D01*
X121299082Y-99605928D01*
X121351000Y-99866937D01*
X121351000Y-100133063D01*
X121299082Y-100394072D01*
X121197242Y-100639937D01*
X121049391Y-100861211D01*
X120861211Y-101049391D01*
X120783865Y-101101072D01*
X120639939Y-101197241D01*
X120639938Y-101197242D01*
X120639937Y-101197242D01*
X120394072Y-101299082D01*
X120133063Y-101351000D01*
X119866937Y-101351000D01*
X119605928Y-101299082D01*
X119360063Y-101197242D01*
X119360062Y-101197242D01*
X119360061Y-101197241D01*
X119216135Y-101101072D01*
X119138789Y-101049391D01*
X118950609Y-100861211D01*
X118802758Y-100639937D01*
X118700918Y-100394072D01*
X118649000Y-100133063D01*
X118649000Y-99866937D01*
X118700918Y-99605928D01*
X118802758Y-99360063D01*
X118950609Y-99138789D01*
X119138789Y-98950609D01*
X119304850Y-98839650D01*
X119360061Y-98802759D01*
X119434318Y-98772001D01*
X119605928Y-98700918D01*
X119866937Y-98649000D01*
X120133063Y-98649000D01*
X120394072Y-98700918D01*
G37*
G36*
X120394072Y-93700918D02*
G01*
X120639939Y-93802759D01*
X120751328Y-93877187D01*
X120861211Y-93950609D01*
X121049391Y-94138789D01*
X121197242Y-94360063D01*
X121243683Y-94472182D01*
X121299082Y-94605928D01*
X121351000Y-94866938D01*
X121351000Y-95133062D01*
X121299082Y-95394072D01*
X121197241Y-95639939D01*
X121049390Y-95861212D01*
X120861212Y-96049390D01*
X120639939Y-96197241D01*
X120639938Y-96197242D01*
X120639937Y-96197242D01*
X120394072Y-96299082D01*
X120133063Y-96351000D01*
X119866937Y-96351000D01*
X119605928Y-96299082D01*
X119360063Y-96197242D01*
X119360062Y-96197242D01*
X119360061Y-96197241D01*
X119138788Y-96049390D01*
X118950610Y-95861212D01*
X118802759Y-95639939D01*
X118700918Y-95394072D01*
X118649000Y-95133062D01*
X118649000Y-94866938D01*
X118700918Y-94605928D01*
X118756317Y-94472182D01*
X118802758Y-94360063D01*
X118950609Y-94138789D01*
X119138789Y-93950609D01*
X119248672Y-93877187D01*
X119360061Y-93802759D01*
X119605928Y-93700918D01*
X119866937Y-93649000D01*
X120133063Y-93649000D01*
X120394072Y-93700918D01*
G37*
G36*
X96098254Y-90527818D02*
G01*
X96368933Y-90639937D01*
X96471513Y-90682427D01*
X96599899Y-90768212D01*
X96807436Y-90906884D01*
X97093116Y-91192564D01*
X97317574Y-91528489D01*
X97472182Y-91901746D01*
X97551000Y-92297993D01*
X97551000Y-92702007D01*
X97472182Y-93098254D01*
X97366624Y-93353093D01*
X97317573Y-93471513D01*
X97093116Y-93807436D01*
X96807436Y-94093116D01*
X96471513Y-94317573D01*
X96471512Y-94317574D01*
X96471511Y-94317574D01*
X96098254Y-94472182D01*
X95702007Y-94551000D01*
X95297993Y-94551000D01*
X94901746Y-94472182D01*
X94528489Y-94317574D01*
X94528488Y-94317574D01*
X94528487Y-94317573D01*
X94192564Y-94093116D01*
X93906884Y-93807436D01*
X93682427Y-93471513D01*
X93633376Y-93353093D01*
X93527818Y-93098254D01*
X93449000Y-92702007D01*
X93449000Y-92297993D01*
X93527818Y-91901746D01*
X93682426Y-91528489D01*
X93906884Y-91192564D01*
X94192564Y-90906884D01*
X94400101Y-90768212D01*
X94528487Y-90682427D01*
X94631067Y-90639937D01*
X94901746Y-90527818D01*
X95297993Y-90449000D01*
X95702007Y-90449000D01*
X96098254Y-90527818D01*
G37*
G36*
X110198254Y-90527818D02*
G01*
X110468933Y-90639937D01*
X110571513Y-90682427D01*
X110699899Y-90768212D01*
X110907436Y-90906884D01*
X111193116Y-91192564D01*
X111417574Y-91528489D01*
X111572182Y-91901746D01*
X111651000Y-92297993D01*
X111651000Y-92702007D01*
X111572182Y-93098254D01*
X111466624Y-93353093D01*
X111417573Y-93471513D01*
X111193116Y-93807436D01*
X110907436Y-94093116D01*
X110571513Y-94317573D01*
X110571512Y-94317574D01*
X110571511Y-94317574D01*
X110198254Y-94472182D01*
X109802007Y-94551000D01*
X109397993Y-94551000D01*
X109001746Y-94472182D01*
X108628489Y-94317574D01*
X108628488Y-94317574D01*
X108628487Y-94317573D01*
X108292564Y-94093116D01*
X108006884Y-93807436D01*
X107782427Y-93471513D01*
X107733376Y-93353093D01*
X107627818Y-93098254D01*
X107549000Y-92702007D01*
X107549000Y-92297993D01*
X107627818Y-91901746D01*
X107782426Y-91528489D01*
X108006884Y-91192564D01*
X108292564Y-90906884D01*
X108500101Y-90768212D01*
X108628487Y-90682427D01*
X108731067Y-90639937D01*
X109001746Y-90527818D01*
X109397993Y-90449000D01*
X109802007Y-90449000D01*
X110198254Y-90527818D01*
G37*
G36*
X100995331Y-90768211D02*
G01*
X101323092Y-90903974D01*
X101618070Y-91101072D01*
X101868928Y-91351930D01*
X102066026Y-91646908D01*
X102201789Y-91974669D01*
X102271000Y-92322616D01*
X102271000Y-92677384D01*
X102201789Y-93025331D01*
X102066026Y-93353092D01*
X101868928Y-93648070D01*
X101618070Y-93898928D01*
X101323092Y-94096026D01*
X100995331Y-94231789D01*
X100647384Y-94301000D01*
X100292616Y-94301000D01*
X99944669Y-94231789D01*
X99616908Y-94096026D01*
X99321930Y-93898928D01*
X99071072Y-93648070D01*
X98873974Y-93353092D01*
X98738211Y-93025331D01*
X98669000Y-92677384D01*
X98669000Y-92322616D01*
X98738211Y-91974669D01*
X98873974Y-91646908D01*
X99071072Y-91351930D01*
X99321930Y-91101072D01*
X99616908Y-90903974D01*
X99944669Y-90768211D01*
X100292616Y-90699000D01*
X100647384Y-90699000D01*
X100995331Y-90768211D01*
G37*
G36*
X105055331Y-90768211D02*
G01*
X105383092Y-90903974D01*
X105678070Y-91101072D01*
X105928928Y-91351930D01*
X106126026Y-91646908D01*
X106261789Y-91974669D01*
X106331000Y-92322616D01*
X106331000Y-92677384D01*
X106261789Y-93025331D01*
X106126026Y-93353092D01*
X105928928Y-93648070D01*
X105678070Y-93898928D01*
X105383092Y-94096026D01*
X105055331Y-94231789D01*
X104707384Y-94301000D01*
X104352616Y-94301000D01*
X104004669Y-94231789D01*
X103676908Y-94096026D01*
X103381930Y-93898928D01*
X103131072Y-93648070D01*
X102933974Y-93353092D01*
X102798211Y-93025331D01*
X102729000Y-92677384D01*
X102729000Y-92322616D01*
X102798211Y-91974669D01*
X102933974Y-91646908D01*
X103131072Y-91351930D01*
X103381930Y-91101072D01*
X103676908Y-90903974D01*
X104004669Y-90768211D01*
X104352616Y-90699000D01*
X104707384Y-90699000D01*
X105055331Y-90768211D01*
G37*
G36*
X120394072Y-88700918D02*
G01*
X120639939Y-88802759D01*
X120751328Y-88877187D01*
X120861211Y-88950609D01*
X121049391Y-89138789D01*
X121197242Y-89360063D01*
X121299082Y-89605928D01*
X121351000Y-89866937D01*
X121351000Y-90133063D01*
X121299082Y-90394072D01*
X121243683Y-90527819D01*
X121197241Y-90639939D01*
X121049390Y-90861212D01*
X120861212Y-91049390D01*
X120639939Y-91197241D01*
X120639938Y-91197242D01*
X120639937Y-91197242D01*
X120394072Y-91299082D01*
X120133063Y-91351000D01*
X119866937Y-91351000D01*
X119605928Y-91299082D01*
X119360063Y-91197242D01*
X119360062Y-91197242D01*
X119360061Y-91197241D01*
X119138788Y-91049390D01*
X118950610Y-90861212D01*
X118802759Y-90639939D01*
X118756318Y-90527819D01*
X118700918Y-90394072D01*
X118649000Y-90133063D01*
X118649000Y-89866937D01*
X118700918Y-89605928D01*
X118802758Y-89360063D01*
X118950609Y-89138789D01*
X119138789Y-88950609D01*
X119248672Y-88877187D01*
X119360061Y-88802759D01*
X119605928Y-88700918D01*
X119866937Y-88649000D01*
X120133063Y-88649000D01*
X120394072Y-88700918D01*
G37*
G36*
X135634239Y-81811467D02*
G01*
X135948282Y-81873934D01*
X136539926Y-82119001D01*
X137072392Y-82474784D01*
X137525216Y-82927608D01*
X137880999Y-83460074D01*
X138126066Y-84051718D01*
X138126066Y-84051719D01*
X138251000Y-84679803D01*
X138251000Y-85320197D01*
X138188533Y-85634239D01*
X138126066Y-85948282D01*
X137880999Y-86539926D01*
X137525216Y-87072392D01*
X137072392Y-87525216D01*
X136539926Y-87880999D01*
X135948282Y-88126066D01*
X135634239Y-88188533D01*
X135320197Y-88251000D01*
X134679803Y-88251000D01*
X134365761Y-88188533D01*
X134051718Y-88126066D01*
X133460074Y-87880999D01*
X132927608Y-87525216D01*
X132474784Y-87072392D01*
X132119001Y-86539926D01*
X131873934Y-85948282D01*
X131811467Y-85634239D01*
X131749000Y-85320197D01*
X131749000Y-84679803D01*
X131873934Y-84051719D01*
X131873934Y-84051718D01*
X132119001Y-83460074D01*
X132474784Y-82927608D01*
X132927608Y-82474784D01*
X133460074Y-82119001D01*
X134051718Y-81873934D01*
X134365761Y-81811467D01*
X134679803Y-81749000D01*
X135320197Y-81749000D01*
X135634239Y-81811467D01*
G37*
G36*
X55634239Y-81811467D02*
G01*
X55948282Y-81873934D01*
X56539926Y-82119001D01*
X57072392Y-82474784D01*
X57525216Y-82927608D01*
X57880999Y-83460074D01*
X58126066Y-84051718D01*
X58126066Y-84051719D01*
X58251000Y-84679803D01*
X58251000Y-85320197D01*
X58188533Y-85634239D01*
X58126066Y-85948282D01*
X57880999Y-86539926D01*
X57525216Y-87072392D01*
X57072392Y-87525216D01*
X56539926Y-87880999D01*
X55948282Y-88126066D01*
X55634239Y-88188533D01*
X55320197Y-88251000D01*
X54679803Y-88251000D01*
X54365761Y-88188533D01*
X54051718Y-88126066D01*
X53460074Y-87880999D01*
X52927608Y-87525216D01*
X52474784Y-87072392D01*
X52119001Y-86539926D01*
X51873934Y-85948282D01*
X51811467Y-85634239D01*
X51749000Y-85320197D01*
X51749000Y-84679803D01*
X51873934Y-84051719D01*
X51873934Y-84051718D01*
X52119001Y-83460074D01*
X52474784Y-82927608D01*
X52927608Y-82474784D01*
X53460074Y-82119001D01*
X54051718Y-81873934D01*
X54365761Y-81811467D01*
X54679803Y-81749000D01*
X55320197Y-81749000D01*
X55634239Y-81811467D01*
G37*
M02*
