G04 #@! TF.GenerationSoftware,KiCad,Pcbnew,(5.1.6)-1*
G04 #@! TF.CreationDate,2020-07-08T14:40:54+02:00*
G04 #@! TF.ProjectId,power-distribution,706f7765-722d-4646-9973-747269627574,rev?*
G04 #@! TF.SameCoordinates,Original*
G04 #@! TF.FileFunction,Paste,Top*
G04 #@! TF.FilePolarity,Positive*
%FSLAX46Y46*%
G04 Gerber Fmt 4.6, Leading zero omitted, Abs format (unit mm)*
G04 Created by KiCad (PCBNEW (5.1.6)-1) date 2020-07-08 14:40:54*
%MOMM*%
%LPD*%
G01*
G04 APERTURE LIST*
%ADD10R,2.200000X1.200000*%
%ADD11R,3.050000X2.750000*%
G04 APERTURE END LIST*
D10*
X81200000Y-120220000D03*
X81200000Y-124780000D03*
D11*
X89175000Y-124025000D03*
X85825000Y-120975000D03*
X89175000Y-120975000D03*
X85825000Y-124025000D03*
X85825000Y-114025000D03*
X89175000Y-110975000D03*
X85825000Y-110975000D03*
X89175000Y-114025000D03*
D10*
X81200000Y-114780000D03*
X81200000Y-110220000D03*
X81200000Y-100220000D03*
X81200000Y-104780000D03*
D11*
X89175000Y-104025000D03*
X85825000Y-100975000D03*
X89175000Y-100975000D03*
X85825000Y-104025000D03*
X85425000Y-94025000D03*
X88775000Y-90975000D03*
X85425000Y-90975000D03*
X88775000Y-94025000D03*
D10*
X80800000Y-94780000D03*
X80800000Y-90220000D03*
G36*
G01*
X99762500Y-130350000D02*
X100237500Y-130350000D01*
G75*
G02*
X100475000Y-130587500I0J-237500D01*
G01*
X100475000Y-131162500D01*
G75*
G02*
X100237500Y-131400000I-237500J0D01*
G01*
X99762500Y-131400000D01*
G75*
G02*
X99525000Y-131162500I0J237500D01*
G01*
X99525000Y-130587500D01*
G75*
G02*
X99762500Y-130350000I237500J0D01*
G01*
G37*
G36*
G01*
X99762500Y-128600000D02*
X100237500Y-128600000D01*
G75*
G02*
X100475000Y-128837500I0J-237500D01*
G01*
X100475000Y-129412500D01*
G75*
G02*
X100237500Y-129650000I-237500J0D01*
G01*
X99762500Y-129650000D01*
G75*
G02*
X99525000Y-129412500I0J237500D01*
G01*
X99525000Y-128837500D01*
G75*
G02*
X99762500Y-128600000I237500J0D01*
G01*
G37*
G36*
G01*
X87262500Y-128600000D02*
X87737500Y-128600000D01*
G75*
G02*
X87975000Y-128837500I0J-237500D01*
G01*
X87975000Y-129412500D01*
G75*
G02*
X87737500Y-129650000I-237500J0D01*
G01*
X87262500Y-129650000D01*
G75*
G02*
X87025000Y-129412500I0J237500D01*
G01*
X87025000Y-128837500D01*
G75*
G02*
X87262500Y-128600000I237500J0D01*
G01*
G37*
G36*
G01*
X87262500Y-130350000D02*
X87737500Y-130350000D01*
G75*
G02*
X87975000Y-130587500I0J-237500D01*
G01*
X87975000Y-131162500D01*
G75*
G02*
X87737500Y-131400000I-237500J0D01*
G01*
X87262500Y-131400000D01*
G75*
G02*
X87025000Y-131162500I0J237500D01*
G01*
X87025000Y-130587500D01*
G75*
G02*
X87262500Y-130350000I237500J0D01*
G01*
G37*
G36*
G01*
X79762500Y-128600000D02*
X80237500Y-128600000D01*
G75*
G02*
X80475000Y-128837500I0J-237500D01*
G01*
X80475000Y-129412500D01*
G75*
G02*
X80237500Y-129650000I-237500J0D01*
G01*
X79762500Y-129650000D01*
G75*
G02*
X79525000Y-129412500I0J237500D01*
G01*
X79525000Y-128837500D01*
G75*
G02*
X79762500Y-128600000I237500J0D01*
G01*
G37*
G36*
G01*
X79762500Y-130350000D02*
X80237500Y-130350000D01*
G75*
G02*
X80475000Y-130587500I0J-237500D01*
G01*
X80475000Y-131162500D01*
G75*
G02*
X80237500Y-131400000I-237500J0D01*
G01*
X79762500Y-131400000D01*
G75*
G02*
X79525000Y-131162500I0J237500D01*
G01*
X79525000Y-130587500D01*
G75*
G02*
X79762500Y-130350000I237500J0D01*
G01*
G37*
G36*
G01*
X67262500Y-130350000D02*
X67737500Y-130350000D01*
G75*
G02*
X67975000Y-130587500I0J-237500D01*
G01*
X67975000Y-131162500D01*
G75*
G02*
X67737500Y-131400000I-237500J0D01*
G01*
X67262500Y-131400000D01*
G75*
G02*
X67025000Y-131162500I0J237500D01*
G01*
X67025000Y-130587500D01*
G75*
G02*
X67262500Y-130350000I237500J0D01*
G01*
G37*
G36*
G01*
X67262500Y-128600000D02*
X67737500Y-128600000D01*
G75*
G02*
X67975000Y-128837500I0J-237500D01*
G01*
X67975000Y-129412500D01*
G75*
G02*
X67737500Y-129650000I-237500J0D01*
G01*
X67262500Y-129650000D01*
G75*
G02*
X67025000Y-129412500I0J237500D01*
G01*
X67025000Y-128837500D01*
G75*
G02*
X67262500Y-128600000I237500J0D01*
G01*
G37*
G36*
G01*
X131512500Y-122243750D02*
X131512500Y-122756250D01*
G75*
G02*
X131293750Y-122975000I-218750J0D01*
G01*
X130856250Y-122975000D01*
G75*
G02*
X130637500Y-122756250I0J218750D01*
G01*
X130637500Y-122243750D01*
G75*
G02*
X130856250Y-122025000I218750J0D01*
G01*
X131293750Y-122025000D01*
G75*
G02*
X131512500Y-122243750I0J-218750D01*
G01*
G37*
G36*
G01*
X129937500Y-122243750D02*
X129937500Y-122756250D01*
G75*
G02*
X129718750Y-122975000I-218750J0D01*
G01*
X129281250Y-122975000D01*
G75*
G02*
X129062500Y-122756250I0J218750D01*
G01*
X129062500Y-122243750D01*
G75*
G02*
X129281250Y-122025000I218750J0D01*
G01*
X129718750Y-122025000D01*
G75*
G02*
X129937500Y-122243750I0J-218750D01*
G01*
G37*
G36*
G01*
X130150000Y-112243750D02*
X130150000Y-112756250D01*
G75*
G02*
X129931250Y-112975000I-218750J0D01*
G01*
X129493750Y-112975000D01*
G75*
G02*
X129275000Y-112756250I0J218750D01*
G01*
X129275000Y-112243750D01*
G75*
G02*
X129493750Y-112025000I218750J0D01*
G01*
X129931250Y-112025000D01*
G75*
G02*
X130150000Y-112243750I0J-218750D01*
G01*
G37*
G36*
G01*
X131725000Y-112243750D02*
X131725000Y-112756250D01*
G75*
G02*
X131506250Y-112975000I-218750J0D01*
G01*
X131068750Y-112975000D01*
G75*
G02*
X130850000Y-112756250I0J218750D01*
G01*
X130850000Y-112243750D01*
G75*
G02*
X131068750Y-112025000I218750J0D01*
G01*
X131506250Y-112025000D01*
G75*
G02*
X131725000Y-112243750I0J-218750D01*
G01*
G37*
G36*
G01*
X131725000Y-102243750D02*
X131725000Y-102756250D01*
G75*
G02*
X131506250Y-102975000I-218750J0D01*
G01*
X131068750Y-102975000D01*
G75*
G02*
X130850000Y-102756250I0J218750D01*
G01*
X130850000Y-102243750D01*
G75*
G02*
X131068750Y-102025000I218750J0D01*
G01*
X131506250Y-102025000D01*
G75*
G02*
X131725000Y-102243750I0J-218750D01*
G01*
G37*
G36*
G01*
X130150000Y-102243750D02*
X130150000Y-102756250D01*
G75*
G02*
X129931250Y-102975000I-218750J0D01*
G01*
X129493750Y-102975000D01*
G75*
G02*
X129275000Y-102756250I0J218750D01*
G01*
X129275000Y-102243750D01*
G75*
G02*
X129493750Y-102025000I218750J0D01*
G01*
X129931250Y-102025000D01*
G75*
G02*
X130150000Y-102243750I0J-218750D01*
G01*
G37*
G36*
G01*
X130150000Y-92243750D02*
X130150000Y-92756250D01*
G75*
G02*
X129931250Y-92975000I-218750J0D01*
G01*
X129493750Y-92975000D01*
G75*
G02*
X129275000Y-92756250I0J218750D01*
G01*
X129275000Y-92243750D01*
G75*
G02*
X129493750Y-92025000I218750J0D01*
G01*
X129931250Y-92025000D01*
G75*
G02*
X130150000Y-92243750I0J-218750D01*
G01*
G37*
G36*
G01*
X131725000Y-92243750D02*
X131725000Y-92756250D01*
G75*
G02*
X131506250Y-92975000I-218750J0D01*
G01*
X131068750Y-92975000D01*
G75*
G02*
X130850000Y-92756250I0J218750D01*
G01*
X130850000Y-92243750D01*
G75*
G02*
X131068750Y-92025000I218750J0D01*
G01*
X131506250Y-92025000D01*
G75*
G02*
X131725000Y-92243750I0J-218750D01*
G01*
G37*
G36*
G01*
X111850000Y-132756250D02*
X111850000Y-132243750D01*
G75*
G02*
X112068750Y-132025000I218750J0D01*
G01*
X112506250Y-132025000D01*
G75*
G02*
X112725000Y-132243750I0J-218750D01*
G01*
X112725000Y-132756250D01*
G75*
G02*
X112506250Y-132975000I-218750J0D01*
G01*
X112068750Y-132975000D01*
G75*
G02*
X111850000Y-132756250I0J218750D01*
G01*
G37*
G36*
G01*
X110275000Y-132756250D02*
X110275000Y-132243750D01*
G75*
G02*
X110493750Y-132025000I218750J0D01*
G01*
X110931250Y-132025000D01*
G75*
G02*
X111150000Y-132243750I0J-218750D01*
G01*
X111150000Y-132756250D01*
G75*
G02*
X110931250Y-132975000I-218750J0D01*
G01*
X110493750Y-132975000D01*
G75*
G02*
X110275000Y-132756250I0J218750D01*
G01*
G37*
G36*
G01*
X110275000Y-134756250D02*
X110275000Y-134243750D01*
G75*
G02*
X110493750Y-134025000I218750J0D01*
G01*
X110931250Y-134025000D01*
G75*
G02*
X111150000Y-134243750I0J-218750D01*
G01*
X111150000Y-134756250D01*
G75*
G02*
X110931250Y-134975000I-218750J0D01*
G01*
X110493750Y-134975000D01*
G75*
G02*
X110275000Y-134756250I0J218750D01*
G01*
G37*
G36*
G01*
X111850000Y-134756250D02*
X111850000Y-134243750D01*
G75*
G02*
X112068750Y-134025000I218750J0D01*
G01*
X112506250Y-134025000D01*
G75*
G02*
X112725000Y-134243750I0J-218750D01*
G01*
X112725000Y-134756250D01*
G75*
G02*
X112506250Y-134975000I-218750J0D01*
G01*
X112068750Y-134975000D01*
G75*
G02*
X111850000Y-134756250I0J218750D01*
G01*
G37*
G36*
G01*
X111850000Y-136756250D02*
X111850000Y-136243750D01*
G75*
G02*
X112068750Y-136025000I218750J0D01*
G01*
X112506250Y-136025000D01*
G75*
G02*
X112725000Y-136243750I0J-218750D01*
G01*
X112725000Y-136756250D01*
G75*
G02*
X112506250Y-136975000I-218750J0D01*
G01*
X112068750Y-136975000D01*
G75*
G02*
X111850000Y-136756250I0J218750D01*
G01*
G37*
G36*
G01*
X110275000Y-136756250D02*
X110275000Y-136243750D01*
G75*
G02*
X110493750Y-136025000I218750J0D01*
G01*
X110931250Y-136025000D01*
G75*
G02*
X111150000Y-136243750I0J-218750D01*
G01*
X111150000Y-136756250D01*
G75*
G02*
X110931250Y-136975000I-218750J0D01*
G01*
X110493750Y-136975000D01*
G75*
G02*
X110275000Y-136756250I0J218750D01*
G01*
G37*
G36*
G01*
X110275000Y-138756250D02*
X110275000Y-138243750D01*
G75*
G02*
X110493750Y-138025000I218750J0D01*
G01*
X110931250Y-138025000D01*
G75*
G02*
X111150000Y-138243750I0J-218750D01*
G01*
X111150000Y-138756250D01*
G75*
G02*
X110931250Y-138975000I-218750J0D01*
G01*
X110493750Y-138975000D01*
G75*
G02*
X110275000Y-138756250I0J218750D01*
G01*
G37*
G36*
G01*
X111850000Y-138756250D02*
X111850000Y-138243750D01*
G75*
G02*
X112068750Y-138025000I218750J0D01*
G01*
X112506250Y-138025000D01*
G75*
G02*
X112725000Y-138243750I0J-218750D01*
G01*
X112725000Y-138756250D01*
G75*
G02*
X112506250Y-138975000I-218750J0D01*
G01*
X112068750Y-138975000D01*
G75*
G02*
X111850000Y-138756250I0J218750D01*
G01*
G37*
M02*
