<?xml version="1.0" standalone="no"?>
 <!DOCTYPE svg PUBLIC "-//W3C//DTD SVG 1.1//EN" 
 "http://www.w3.org/Graphics/SVG/1.1/DTD/svg11.dtd"> 
<svg xmlns="http://www.w3.org/2000/svg" version="1.1" 
    width="29.7002cm" height="21.0007cm" viewBox="0 0 116930 82680 ">
<title>SVG Picture created as powersplitter.svg date 2020/03/21 12:10:07 </title>
  <desc>Picture generated by Eeschema-SVG </desc>
<g style="fill:#000000; fill-opacity:1;stroke:#000000; stroke-opacity:1;
stroke-linecap:round; stroke-linejoin:round; "
 transform="translate(0 0) scale(1 1)">
</g>
<g style="fill:#000000; fill-opacity:0.0; 
stroke:#000000; stroke-width:-10; stroke-opacity:1; 
stroke-linecap:round; stroke-linejoin:round;">
</g>
<g style="fill:#840000; fill-opacity:0.0; 
stroke:#840000; stroke-width:-10; stroke-opacity:1; 
stroke-linecap:round; stroke-linejoin:round;">
</g>
<g style="fill:#840000; fill-opacity:0.0; 
stroke:#840000; stroke-width:100; stroke-opacity:1; 
stroke-linecap:round; stroke-linejoin:round;">
</g>
<g style="fill:#840000; fill-opacity:0.0; 
stroke:#840000; stroke-width:60; stroke-opacity:1; 
stroke-linecap:round; stroke-linejoin:round;">
<rect x="69690" y="65360" width="42520" height="12600" rx="0" />
</g>
<g style="fill:#840000; fill-opacity:0.0; 
stroke:#840000; stroke-width:100; stroke-opacity:1; 
stroke-linecap:round; stroke-linejoin:round;">
</g>
<g style="fill:#840000; fill-opacity:0.0; 
stroke:#840000; stroke-width:60; stroke-opacity:1; 
stroke-linecap:round; stroke-linejoin:round;">
<rect x="3940" y="3940" width="109050" height="74800" rx="0" />
</g>
<g style="fill:#840000; fill-opacity:0.0; 
stroke:#840000; stroke-width:100; stroke-opacity:1; 
stroke-linecap:round; stroke-linejoin:round;">
</g>
<g style="fill:#840000; fill-opacity:0.0; 
stroke:#840000; stroke-width:60; stroke-opacity:1; 
stroke-linecap:round; stroke-linejoin:round;">
<rect x="4720" y="4720" width="107490" height="73240" rx="0" />
</g>
<g style="fill:#840000; fill-opacity:0.0; 
stroke:#840000; stroke-width:100; stroke-opacity:1; 
stroke-linecap:round; stroke-linejoin:round;">
</g>
<g style="fill:#840000; fill-opacity:0.0; 
stroke:#840000; stroke-width:60; stroke-opacity:1; 
stroke-linecap:round; stroke-linejoin:round;">
<path d="M23620 4720
L23620 3940
" />
</g>
<g style="fill:#840000; fill-opacity:0.0; 
stroke:#840000; stroke-width:100; stroke-opacity:1; 
stroke-linecap:round; stroke-linejoin:round;">
</g>
<g style="fill:#840000; fill-opacity:0.0; 
stroke:#840000; stroke-width:60; stroke-opacity:1; 
stroke-linecap:round; stroke-linejoin:round;">
<path d="M43310 4720
L43310 3940
" />
</g>
<g style="fill:#840000; fill-opacity:0.0; 
stroke:#840000; stroke-width:100; stroke-opacity:1; 
stroke-linecap:round; stroke-linejoin:round;">
</g>
<g style="fill:#840000; fill-opacity:0.0; 
stroke:#840000; stroke-width:60; stroke-opacity:1; 
stroke-linecap:round; stroke-linejoin:round;">
<path d="M62990 4720
L62990 3940
" />
</g>
<g style="fill:#840000; fill-opacity:0.0; 
stroke:#840000; stroke-width:100; stroke-opacity:1; 
stroke-linecap:round; stroke-linejoin:round;">
</g>
<g style="fill:#840000; fill-opacity:0.0; 
stroke:#840000; stroke-width:60; stroke-opacity:1; 
stroke-linecap:round; stroke-linejoin:round;">
<path d="M82680 4720
L82680 3940
" />
</g>
<g style="fill:#840000; fill-opacity:0.0; 
stroke:#840000; stroke-width:100; stroke-opacity:1; 
stroke-linecap:round; stroke-linejoin:round;">
</g>
<g style="fill:#840000; fill-opacity:0.0; 
stroke:#840000; stroke-width:60; stroke-opacity:1; 
stroke-linecap:round; stroke-linejoin:round;">
<path d="M102360 4720
L102360 3940
" />
</g>
<g style="fill:#840000; fill-opacity:0.0; 
stroke:#840000; stroke-width:100; stroke-opacity:1; 
stroke-linecap:round; stroke-linejoin:round;">
</g>
<g style="fill:#840000; fill-opacity:0.0; 
stroke:#840000; stroke-width:60; stroke-opacity:1; 
stroke-linecap:round; stroke-linejoin:round;">
<path d="M14190 4560
L13900 4560
" />
<path d="M14050 4560
L14050 4050
L14000 4120
L13950 4170
L13900 4190
" />
</g>
<g style="fill:#840000; fill-opacity:0.0; 
stroke:#840000; stroke-width:100; stroke-opacity:1; 
stroke-linecap:round; stroke-linejoin:round;">
</g>
<g style="fill:#840000; fill-opacity:0.0; 
stroke:#840000; stroke-width:60; stroke-opacity:1; 
stroke-linecap:round; stroke-linejoin:round;">
<path d="M33580 4090
L33610 4070
L33660 4050
L33780 4050
L33830 4070
L33850 4090
L33870 4140
L33870 4190
L33850 4260
L33560 4560
L33870 4560
" />
</g>
<g style="fill:#840000; fill-opacity:0.0; 
stroke:#840000; stroke-width:100; stroke-opacity:1; 
stroke-linecap:round; stroke-linejoin:round;">
</g>
<g style="fill:#840000; fill-opacity:0.0; 
stroke:#840000; stroke-width:60; stroke-opacity:1; 
stroke-linecap:round; stroke-linejoin:round;">
<path d="M53250 4050
L53560 4050
L53390 4240
L53470 4240
L53520 4260
L53540 4290
L53560 4340
L53560 4460
L53540 4510
L53520 4530
L53470 4560
L53320 4560
L53270 4530
L53250 4510
" />
</g>
<g style="fill:#840000; fill-opacity:0.0; 
stroke:#840000; stroke-width:100; stroke-opacity:1; 
stroke-linecap:round; stroke-linejoin:round;">
</g>
<g style="fill:#840000; fill-opacity:0.0; 
stroke:#840000; stroke-width:60; stroke-opacity:1; 
stroke-linecap:round; stroke-linejoin:round;">
<path d="M73200 4220
L73200 4560
" />
<path d="M73070 4020
L72950 4390
L73270 4390
" />
</g>
<g style="fill:#840000; fill-opacity:0.0; 
stroke:#840000; stroke-width:100; stroke-opacity:1; 
stroke-linecap:round; stroke-linejoin:round;">
</g>
<g style="fill:#840000; fill-opacity:0.0; 
stroke:#840000; stroke-width:60; stroke-opacity:1; 
stroke-linecap:round; stroke-linejoin:round;">
<path d="M92910 4050
L92670 4050
L92640 4290
L92670 4260
L92720 4240
L92840 4240
L92890 4260
L92910 4290
L92930 4340
L92930 4460
L92910 4510
L92890 4530
L92840 4560
L92720 4560
L92670 4530
L92640 4510
" />
</g>
<g style="fill:#840000; fill-opacity:0.0; 
stroke:#840000; stroke-width:100; stroke-opacity:1; 
stroke-linecap:round; stroke-linejoin:round;">
</g>
<g style="fill:#840000; fill-opacity:0.0; 
stroke:#840000; stroke-width:60; stroke-opacity:1; 
stroke-linecap:round; stroke-linejoin:round;">
<path d="M112570 4050
L112470 4050
L112420 4070
L112400 4090
L112350 4170
L112320 4260
L112320 4460
L112350 4510
L112370 4530
L112420 4560
L112520 4560
L112570 4530
L112590 4510
L112610 4460
L112610 4340
L112590 4290
L112570 4260
L112520 4240
L112420 4240
L112370 4260
L112350 4290
L112320 4340
" />
</g>
<g style="fill:#840000; fill-opacity:0.0; 
stroke:#840000; stroke-width:100; stroke-opacity:1; 
stroke-linecap:round; stroke-linejoin:round;">
</g>
<g style="fill:#840000; fill-opacity:0.0; 
stroke:#840000; stroke-width:60; stroke-opacity:1; 
stroke-linecap:round; stroke-linejoin:round;">
<path d="M23620 77960
L23620 78740
" />
</g>
<g style="fill:#840000; fill-opacity:0.0; 
stroke:#840000; stroke-width:100; stroke-opacity:1; 
stroke-linecap:round; stroke-linejoin:round;">
</g>
<g style="fill:#840000; fill-opacity:0.0; 
stroke:#840000; stroke-width:60; stroke-opacity:1; 
stroke-linecap:round; stroke-linejoin:round;">
<path d="M43310 77960
L43310 78740
" />
</g>
<g style="fill:#840000; fill-opacity:0.0; 
stroke:#840000; stroke-width:100; stroke-opacity:1; 
stroke-linecap:round; stroke-linejoin:round;">
</g>
<g style="fill:#840000; fill-opacity:0.0; 
stroke:#840000; stroke-width:60; stroke-opacity:1; 
stroke-linecap:round; stroke-linejoin:round;">
<path d="M62990 77960
L62990 78740
" />
</g>
<g style="fill:#840000; fill-opacity:0.0; 
stroke:#840000; stroke-width:100; stroke-opacity:1; 
stroke-linecap:round; stroke-linejoin:round;">
</g>
<g style="fill:#840000; fill-opacity:0.0; 
stroke:#840000; stroke-width:60; stroke-opacity:1; 
stroke-linecap:round; stroke-linejoin:round;">
<path d="M82680 77960
L82680 78740
" />
</g>
<g style="fill:#840000; fill-opacity:0.0; 
stroke:#840000; stroke-width:100; stroke-opacity:1; 
stroke-linecap:round; stroke-linejoin:round;">
</g>
<g style="fill:#840000; fill-opacity:0.0; 
stroke:#840000; stroke-width:60; stroke-opacity:1; 
stroke-linecap:round; stroke-linejoin:round;">
<path d="M102360 77960
L102360 78740
" />
</g>
<g style="fill:#840000; fill-opacity:0.0; 
stroke:#840000; stroke-width:100; stroke-opacity:1; 
stroke-linecap:round; stroke-linejoin:round;">
</g>
<g style="fill:#840000; fill-opacity:0.0; 
stroke:#840000; stroke-width:60; stroke-opacity:1; 
stroke-linecap:round; stroke-linejoin:round;">
<path d="M14190 78580
L13900 78580
" />
<path d="M14050 78580
L14050 78070
L14000 78140
L13950 78190
L13900 78210
" />
</g>
<g style="fill:#840000; fill-opacity:0.0; 
stroke:#840000; stroke-width:100; stroke-opacity:1; 
stroke-linecap:round; stroke-linejoin:round;">
</g>
<g style="fill:#840000; fill-opacity:0.0; 
stroke:#840000; stroke-width:60; stroke-opacity:1; 
stroke-linecap:round; stroke-linejoin:round;">
<path d="M33580 78110
L33610 78090
L33660 78070
L33780 78070
L33830 78090
L33850 78110
L33870 78160
L33870 78210
L33850 78280
L33560 78580
L33870 78580
" />
</g>
<g style="fill:#840000; fill-opacity:0.0; 
stroke:#840000; stroke-width:100; stroke-opacity:1; 
stroke-linecap:round; stroke-linejoin:round;">
</g>
<g style="fill:#840000; fill-opacity:0.0; 
stroke:#840000; stroke-width:60; stroke-opacity:1; 
stroke-linecap:round; stroke-linejoin:round;">
<path d="M53250 78070
L53560 78070
L53390 78260
L53470 78260
L53520 78280
L53540 78310
L53560 78360
L53560 78480
L53540 78530
L53520 78550
L53470 78580
L53320 78580
L53270 78550
L53250 78530
" />
</g>
<g style="fill:#840000; fill-opacity:0.0; 
stroke:#840000; stroke-width:100; stroke-opacity:1; 
stroke-linecap:round; stroke-linejoin:round;">
</g>
<g style="fill:#840000; fill-opacity:0.0; 
stroke:#840000; stroke-width:60; stroke-opacity:1; 
stroke-linecap:round; stroke-linejoin:round;">
<path d="M73200 78240
L73200 78580
" />
<path d="M73070 78040
L72950 78410
L73270 78410
" />
</g>
<g style="fill:#840000; fill-opacity:0.0; 
stroke:#840000; stroke-width:100; stroke-opacity:1; 
stroke-linecap:round; stroke-linejoin:round;">
</g>
<g style="fill:#840000; fill-opacity:0.0; 
stroke:#840000; stroke-width:60; stroke-opacity:1; 
stroke-linecap:round; stroke-linejoin:round;">
<path d="M92910 78070
L92670 78070
L92640 78310
L92670 78280
L92720 78260
L92840 78260
L92890 78280
L92910 78310
L92930 78360
L92930 78480
L92910 78530
L92890 78550
L92840 78580
L92720 78580
L92670 78550
L92640 78530
" />
</g>
<g style="fill:#840000; fill-opacity:0.0; 
stroke:#840000; stroke-width:100; stroke-opacity:1; 
stroke-linecap:round; stroke-linejoin:round;">
</g>
<g style="fill:#840000; fill-opacity:0.0; 
stroke:#840000; stroke-width:60; stroke-opacity:1; 
stroke-linecap:round; stroke-linejoin:round;">
<path d="M112570 78070
L112470 78070
L112420 78090
L112400 78110
L112350 78190
L112320 78280
L112320 78480
L112350 78530
L112370 78550
L112420 78580
L112520 78580
L112570 78550
L112590 78530
L112610 78480
L112610 78360
L112590 78310
L112570 78280
L112520 78260
L112420 78260
L112370 78280
L112350 78310
L112320 78360
" />
</g>
<g style="fill:#840000; fill-opacity:0.0; 
stroke:#840000; stroke-width:100; stroke-opacity:1; 
stroke-linecap:round; stroke-linejoin:round;">
</g>
<g style="fill:#840000; fill-opacity:0.0; 
stroke:#840000; stroke-width:60; stroke-opacity:1; 
stroke-linecap:round; stroke-linejoin:round;">
<path d="M3940 23620
L4720 23620
" />
</g>
<g style="fill:#840000; fill-opacity:0.0; 
stroke:#840000; stroke-width:100; stroke-opacity:1; 
stroke-linecap:round; stroke-linejoin:round;">
</g>
<g style="fill:#840000; fill-opacity:0.0; 
stroke:#840000; stroke-width:60; stroke-opacity:1; 
stroke-linecap:round; stroke-linejoin:round;">
<path d="M3940 43310
L4720 43310
" />
</g>
<g style="fill:#840000; fill-opacity:0.0; 
stroke:#840000; stroke-width:100; stroke-opacity:1; 
stroke-linecap:round; stroke-linejoin:round;">
</g>
<g style="fill:#840000; fill-opacity:0.0; 
stroke:#840000; stroke-width:60; stroke-opacity:1; 
stroke-linecap:round; stroke-linejoin:round;">
<path d="M3940 62990
L4720 62990
" />
</g>
<g style="fill:#840000; fill-opacity:0.0; 
stroke:#840000; stroke-width:100; stroke-opacity:1; 
stroke-linecap:round; stroke-linejoin:round;">
</g>
<g style="fill:#840000; fill-opacity:0.0; 
stroke:#840000; stroke-width:60; stroke-opacity:1; 
stroke-linecap:round; stroke-linejoin:round;">
<path d="M4200 13860
L4450 13860
" />
<path d="M4160 14010
L4330 13500
L4500 14010
" />
</g>
<g style="fill:#840000; fill-opacity:0.0; 
stroke:#840000; stroke-width:100; stroke-opacity:1; 
stroke-linecap:round; stroke-linejoin:round;">
</g>
<g style="fill:#840000; fill-opacity:0.0; 
stroke:#840000; stroke-width:60; stroke-opacity:1; 
stroke-linecap:round; stroke-linejoin:round;">
<path d="M4360 33420
L4430 33440
L4460 33470
L4480 33520
L4480 33590
L4460 33640
L4430 33660
L4390 33690
L4190 33690
L4190 33180
L4360 33180
L4410 33200
L4430 33220
L4460 33270
L4460 33320
L4430 33370
L4410 33390
L4360 33420
L4190 33420
" />
</g>
<g style="fill:#840000; fill-opacity:0.0; 
stroke:#840000; stroke-width:100; stroke-opacity:1; 
stroke-linecap:round; stroke-linejoin:round;">
</g>
<g style="fill:#840000; fill-opacity:0.0; 
stroke:#840000; stroke-width:60; stroke-opacity:1; 
stroke-linecap:round; stroke-linejoin:round;">
<path d="M4480 53330
L4460 53350
L4390 53380
L4340 53380
L4260 53350
L4220 53300
L4190 53250
L4170 53160
L4170 53080
L4190 52990
L4220 52940
L4260 52890
L4340 52870
L4390 52870
L4460 52890
L4480 52910
" />
</g>
<g style="fill:#840000; fill-opacity:0.0; 
stroke:#840000; stroke-width:100; stroke-opacity:1; 
stroke-linecap:round; stroke-linejoin:round;">
</g>
<g style="fill:#840000; fill-opacity:0.0; 
stroke:#840000; stroke-width:60; stroke-opacity:1; 
stroke-linecap:round; stroke-linejoin:round;">
<path d="M4190 73060
L4190 72550
L4310 72550
L4390 72570
L4430 72620
L4460 72670
L4480 72760
L4480 72840
L4460 72930
L4430 72980
L4390 73030
L4310 73060
L4190 73060
" />
</g>
<g style="fill:#840000; fill-opacity:0.0; 
stroke:#840000; stroke-width:100; stroke-opacity:1; 
stroke-linecap:round; stroke-linejoin:round;">
</g>
<g style="fill:#840000; fill-opacity:0.0; 
stroke:#840000; stroke-width:60; stroke-opacity:1; 
stroke-linecap:round; stroke-linejoin:round;">
<path d="M112990 23620
L112210 23620
" />
</g>
<g style="fill:#840000; fill-opacity:0.0; 
stroke:#840000; stroke-width:100; stroke-opacity:1; 
stroke-linecap:round; stroke-linejoin:round;">
</g>
<g style="fill:#840000; fill-opacity:0.0; 
stroke:#840000; stroke-width:60; stroke-opacity:1; 
stroke-linecap:round; stroke-linejoin:round;">
<path d="M112990 43310
L112210 43310
" />
</g>
<g style="fill:#840000; fill-opacity:0.0; 
stroke:#840000; stroke-width:100; stroke-opacity:1; 
stroke-linecap:round; stroke-linejoin:round;">
</g>
<g style="fill:#840000; fill-opacity:0.0; 
stroke:#840000; stroke-width:60; stroke-opacity:1; 
stroke-linecap:round; stroke-linejoin:round;">
<path d="M112990 62990
L112210 62990
" />
</g>
<g style="fill:#840000; fill-opacity:0.0; 
stroke:#840000; stroke-width:100; stroke-opacity:1; 
stroke-linecap:round; stroke-linejoin:round;">
</g>
<g style="fill:#840000; fill-opacity:0.0; 
stroke:#840000; stroke-width:60; stroke-opacity:1; 
stroke-linecap:round; stroke-linejoin:round;">
<path d="M112470 13860
L112720 13860
" />
<path d="M112430 14010
L112600 13500
L112770 14010
" />
</g>
<g style="fill:#840000; fill-opacity:0.0; 
stroke:#840000; stroke-width:100; stroke-opacity:1; 
stroke-linecap:round; stroke-linejoin:round;">
</g>
<g style="fill:#840000; fill-opacity:0.0; 
stroke:#840000; stroke-width:60; stroke-opacity:1; 
stroke-linecap:round; stroke-linejoin:round;">
<path d="M112630 33420
L112700 33440
L112730 33470
L112750 33520
L112750 33590
L112730 33640
L112700 33660
L112660 33690
L112460 33690
L112460 33180
L112630 33180
L112680 33200
L112700 33220
L112730 33270
L112730 33320
L112700 33370
L112680 33390
L112630 33420
L112460 33420
" />
</g>
<g style="fill:#840000; fill-opacity:0.0; 
stroke:#840000; stroke-width:100; stroke-opacity:1; 
stroke-linecap:round; stroke-linejoin:round;">
</g>
<g style="fill:#840000; fill-opacity:0.0; 
stroke:#840000; stroke-width:60; stroke-opacity:1; 
stroke-linecap:round; stroke-linejoin:round;">
<path d="M112750 53330
L112730 53350
L112660 53380
L112610 53380
L112530 53350
L112490 53300
L112460 53250
L112440 53160
L112440 53080
L112460 52990
L112490 52940
L112530 52890
L112610 52870
L112660 52870
L112730 52890
L112750 52910
" />
</g>
<g style="fill:#840000; fill-opacity:0.0; 
stroke:#840000; stroke-width:100; stroke-opacity:1; 
stroke-linecap:round; stroke-linejoin:round;">
</g>
<g style="fill:#840000; fill-opacity:0.0; 
stroke:#840000; stroke-width:60; stroke-opacity:1; 
stroke-linecap:round; stroke-linejoin:round;">
<path d="M112460 73060
L112460 72550
L112580 72550
L112660 72570
L112700 72620
L112730 72670
L112750 72760
L112750 72840
L112730 72930
L112700 72980
L112660 73030
L112580 73060
L112460 73060
" />
</g>
<g style="fill:#840000; fill-opacity:0.0; 
stroke:#840000; stroke-width:100; stroke-opacity:1; 
stroke-linecap:round; stroke-linejoin:round;">
</g>
<g style="fill:#840000; fill-opacity:0.0; 
stroke:#840000; stroke-width:60; stroke-opacity:1; 
stroke-linecap:round; stroke-linejoin:round;">
<path d="M78910 76290
L78910 75700
L79050 75700
L79130 75730
L79190 75790
L79210 75840
L79240 75950
L79240 76040
L79210 76150
L79190 76210
L79130 76260
L79050 76290
L78910 76290
" />
<path d="M79750 76290
L79750 75980
L79720 75930
L79660 75900
L79550 75900
L79500 75930
" />
<path d="M79750 76260
L79690 76290
L79550 76290
L79500 76260
L79470 76210
L79470 76150
L79500 76100
L79550 76070
L79690 76070
L79750 76040
" />
<path d="M79950 75900
L80170 75900
" />
<path d="M80030 75700
L80030 76210
L80060 76260
L80110 76290
L80170 76290
" />
<path d="M80590 76260
L80540 76290
L80420 76290
L80370 76260
L80340 76210
L80340 75980
L80370 75930
L80420 75900
L80540 75900
L80590 75930
L80620 75980
L80620 76040
L80340 76100
" />
<path d="M80870 76240
L80900 76260
L80870 76290
L80840 76260
L80870 76240
L80870 76290
" />
<path d="M80870 75930
L80900 75950
L80870 75980
L80840 75950
L80870 75930
L80870 75980
" />
</g>
<g style="fill:#840000; fill-opacity:0.0; 
stroke:#840000; stroke-width:100; stroke-opacity:1; 
stroke-linecap:round; stroke-linejoin:round;">
</g>
<g style="fill:#840000; fill-opacity:0.0; 
stroke:#840000; stroke-width:60; stroke-opacity:1; 
stroke-linecap:round; stroke-linejoin:round;">
<path d="M69690 76580
L112210 76580
" />
</g>
<g style="fill:#840000; fill-opacity:0.0; 
stroke:#840000; stroke-width:100; stroke-opacity:1; 
stroke-linecap:round; stroke-linejoin:round;">
</g>
<g style="fill:#840000; fill-opacity:0.0; 
stroke:#840000; stroke-width:60; stroke-opacity:1; 
stroke-linecap:round; stroke-linejoin:round;">
<path d="M70250 77390
L70250 76800
" />
<path d="M70580 77390
L70330 77050
" />
<path d="M70580 76800
L70250 77140
" />
<path d="M70840 77390
L70840 77000
" />
<path d="M70840 76800
L70810 76830
L70840 76860
L70860 76830
L70840 76800
L70840 76860
" />
<path d="M71450 77340
L71430 77360
L71340 77390
L71290 77390
L71200 77360
L71140 77310
L71120 77250
L71090 77140
L71090 77050
L71120 76940
L71140 76890
L71200 76830
L71290 76800
L71340 76800
L71430 76830
L71450 76860
" />
<path d="M71960 77390
L71960 77080
L71930 77030
L71880 77000
L71760 77000
L71710 77030
" />
<path d="M71960 77360
L71900 77390
L71760 77390
L71710 77360
L71680 77310
L71680 77250
L71710 77200
L71760 77170
L71900 77170
L71960 77140
" />
<path d="M72490 77390
L72490 76800
" />
<path d="M72490 77360
L72440 77390
L72320 77390
L72270 77360
L72240 77340
L72210 77280
L72210 77110
L72240 77050
L72270 77030
L72320 77000
L72440 77000
L72490 77030
" />
<path d="M73220 77080
L73420 77080
" />
<path d="M73500 77390
L73220 77390
L73220 76800
L73500 76800
" />
<path d="M73760 77340
L73790 77360
L73760 77390
L73730 77360
L73760 77340
L73760 77390
" />
<path d="M74040 77390
L74040 76800
L74180 76800
L74260 76830
L74320 76890
L74350 76940
L74380 77050
L74380 77140
L74350 77250
L74320 77310
L74260 77360
L74180 77390
L74040 77390
" />
<path d="M74630 77340
L74660 77360
L74630 77390
L74600 77360
L74630 77340
L74630 77390
" />
<path d="M74880 77220
L75160 77220
" />
<path d="M74830 77390
L75020 76800
L75220 77390
" />
<path d="M75420 77340
L75440 77360
L75420 77390
L75390 77360
L75420 77340
L75420 77390
" />
<path d="M76820 77360
L76760 77390
L76650 77390
L76600 77360
L76570 77310
L76570 77080
L76600 77030
L76650 77000
L76760 77000
L76820 77030
L76850 77080
L76850 77140
L76570 77200
" />
<path d="M77330 77360
L77270 77390
L77160 77390
L77100 77360
L77070 77310
L77070 77080
L77100 77030
L77160 77000
L77270 77000
L77330 77030
L77350 77080
L77350 77140
L77070 77200
" />
<path d="M77580 77360
L77630 77390
L77750 77390
L77800 77360
L77830 77310
L77830 77280
L77800 77220
L77750 77200
L77660 77200
L77610 77170
L77580 77110
L77580 77080
L77610 77030
L77660 77000
L77750 77000
L77800 77030
" />
<path d="M78340 77360
L78280 77390
L78170 77390
L78110 77360
L78080 77340
L78060 77280
L78060 77110
L78080 77050
L78110 77030
L78170 77000
L78280 77000
L78340 77030
" />
<path d="M78590 77390
L78590 76800
" />
<path d="M78840 77390
L78840 77080
L78810 77030
L78760 77000
L78670 77000
L78620 77030
L78590 77050
" />
<path d="M79350 77360
L79290 77390
L79180 77390
L79120 77360
L79100 77310
L79100 77080
L79120 77030
L79180 77000
L79290 77000
L79350 77030
L79380 77080
L79380 77140
L79100 77200
" />
<path d="M79630 77390
L79630 77000
" />
<path d="M79630 77050
L79660 77030
L79710 77000
L79800 77000
L79850 77030
L79880 77080
L79880 77390
" />
<path d="M79880 77080
L79910 77030
L79970 77000
L80050 77000
L80110 77030
L80140 77080
L80140 77390
" />
<path d="M80670 77390
L80670 77080
L80640 77030
L80580 77000
L80470 77000
L80420 77030
" />
<path d="M80670 77360
L80610 77390
L80470 77390
L80420 77360
L80390 77310
L80390 77250
L80420 77200
L80470 77170
L80610 77170
L80670 77140
" />
<path d="M81570 77620
L81540 77590
L81480 77500
L81460 77450
L81430 77360
L81400 77220
L81400 77110
L81430 76970
L81460 76890
L81480 76830
L81540 76750
L81570 76720
" />
<path d="M82070 76800
L81790 76800
L81760 77080
L81790 77050
L81850 77030
L81990 77030
L82050 77050
L82070 77080
L82100 77140
L82100 77280
L82070 77340
L82050 77360
L81990 77390
L81850 77390
L81790 77360
L81760 77340
" />
<path d="M82350 77340
L82380 77360
L82350 77390
L82330 77360
L82350 77340
L82350 77390
" />
<path d="M82940 77390
L82610 77390
" />
<path d="M82780 77390
L82780 76800
L82720 76890
L82660 76940
L82610 76970
" />
<path d="M83200 77340
L83230 77360
L83200 77390
L83170 77360
L83200 77340
L83200 77390
" />
<path d="M83730 77000
L83730 77390
" />
<path d="M83590 76770
L83450 77200
L83820 77200
" />
<path d="M83980 77620
L84010 77590
L84070 77500
L84100 77450
L84120 77360
L84150 77220
L84150 77110
L84120 76970
L84100 76890
L84070 76830
L84010 76750
L83980 76720
" />
<path d="M84430 77170
L84880 77170
" />
<path d="M85470 77390
L85140 77390
" />
<path d="M85300 77390
L85300 76800
L85250 76890
L85190 76940
L85140 76970
" />
</g>
<g style="fill:#840000; fill-opacity:0.0; 
stroke:#840000; stroke-width:100; stroke-opacity:1; 
stroke-linecap:round; stroke-linejoin:round;">
</g>
<g style="fill:#840000; fill-opacity:0.0; 
stroke:#840000; stroke-width:60; stroke-opacity:1; 
stroke-linecap:round; stroke-linejoin:round;">
<path d="M69690 75400
L112210 75400
" />
</g>
<g style="fill:#840000; fill-opacity:0.0; 
stroke:#840000; stroke-width:100; stroke-opacity:1; 
stroke-linecap:round; stroke-linejoin:round;">
</g>
<g style="fill:#840000; fill-opacity:0.0; 
stroke:#840000; stroke-width:120; stroke-opacity:1; 
stroke-linecap:round; stroke-linejoin:round;">
<path d="M104090 76290
L103890 76010
" />
<path d="M103750 76290
L103750 75700
L103980 75700
L104030 75730
L104060 75760
L104090 75810
L104090 75900
L104060 75950
L104030 75980
L103980 76010
L103750 76010
" />
<path d="M104570 76260
L104510 76290
L104400 76290
L104340 76260
L104320 76210
L104320 75980
L104340 75930
L104400 75900
L104510 75900
L104570 75930
L104600 75980
L104600 76040
L104320 76100
" />
<path d="M104790 75900
L104930 76290
L105070 75900
" />
<path d="M105300 76240
L105330 76260
L105300 76290
L105270 76260
L105300 76240
L105300 76290
" />
<path d="M105300 75930
L105330 75950
L105300 75980
L105270 75950
L105300 75930
L105300 75980
" />
</g>
<g style="fill:#840000; fill-opacity:0.0; 
stroke:#840000; stroke-width:100; stroke-opacity:1; 
stroke-linecap:round; stroke-linejoin:round;">
</g>
<g style="fill:#840000; fill-opacity:0.0; 
stroke:#840000; stroke-width:60; stroke-opacity:1; 
stroke-linecap:round; stroke-linejoin:round;">
<path d="M70220 76260
L70300 76290
L70440 76290
L70500 76260
L70530 76240
L70550 76180
L70550 76120
L70530 76070
L70500 76040
L70440 76010
L70330 75980
L70270 75950
L70250 75930
L70220 75870
L70220 75810
L70250 75760
L70270 75730
L70330 75700
L70470 75700
L70550 75730
" />
<path d="M70810 76290
L70810 75900
" />
<path d="M70810 75700
L70780 75730
L70810 75760
L70840 75730
L70810 75700
L70810 75760
" />
<path d="M71030 75900
L71340 75900
L71030 76290
L71340 76290
" />
<path d="M71790 76260
L71730 76290
L71620 76290
L71570 76260
L71540 76210
L71540 75980
L71570 75930
L71620 75900
L71730 75900
L71790 75930
L71820 75980
L71820 76040
L71540 76100
" />
<path d="M72070 76240
L72100 76260
L72070 76290
L72040 76260
L72070 76240
L72070 76290
" />
<path d="M72070 75930
L72100 75950
L72070 75980
L72040 75950
L72070 75930
L72070 75980
" />
<path d="M72770 76120
L73060 76120
" />
<path d="M72720 76290
L72910 75700
L73110 76290
" />
<path d="M73560 75900
L73560 76290
" />
<path d="M73420 75670
L73280 76100
L73650 76100
" />
</g>
<g style="fill:#840000; fill-opacity:0.0; 
stroke:#840000; stroke-width:100; stroke-opacity:1; 
stroke-linecap:round; stroke-linejoin:round;">
</g>
<g style="fill:#840000; fill-opacity:0.0; 
stroke:#840000; stroke-width:60; stroke-opacity:1; 
stroke-linecap:round; stroke-linejoin:round;">
<path d="M103710 77390
L103710 76800
" />
<path d="M104240 77390
L104240 76800
" />
<path d="M104240 77360
L104180 77390
L104070 77390
L104010 77360
L103990 77340
L103960 77280
L103960 77110
L103990 77050
L104010 77030
L104070 77000
L104180 77000
L104240 77030
" />
<path d="M104520 77340
L104550 77360
L104520 77390
L104490 77360
L104520 77340
L104520 77390
" />
<path d="M104520 77030
L104550 77050
L104520 77080
L104490 77050
L104520 77030
L104520 77080
" />
<path d="M105560 77390
L105220 77390
" />
<path d="M105390 77390
L105390 76800
L105340 76890
L105280 76940
L105220 76970
" />
<path d="M106230 76770
L105730 77530
" />
<path d="M106740 77390
L106400 77390
" />
<path d="M106570 77390
L106570 76800
L106520 76890
L106460 76940
L106400 76970
" />
</g>
<g style="fill:#840000; fill-opacity:0.0; 
stroke:#840000; stroke-width:100; stroke-opacity:1; 
stroke-linecap:round; stroke-linejoin:round;">
</g>
<g style="fill:#840000; fill-opacity:0.0; 
stroke:#840000; stroke-width:60; stroke-opacity:1; 
stroke-linecap:round; stroke-linejoin:round;">
<path d="M69690 73820
L112210 73820
" />
</g>
<g style="fill:#840000; fill-opacity:0.0; 
stroke:#840000; stroke-width:100; stroke-opacity:1; 
stroke-linecap:round; stroke-linejoin:round;">
</g>
<g style="fill:#840000; fill-opacity:0.0; 
stroke:#840000; stroke-width:160; stroke-opacity:1; 
stroke-linecap:round; stroke-linejoin:round;">
<path d="M70360 74090
L70810 74090
" />
<path d="M70480 74880
L70580 74090
" />
<path d="M70970 74880
L71040 74360
" />
<path d="M71070 74090
L71030 74130
L71060 74170
L71110 74130
L71070 74090
L71060 74170
" />
<path d="M71300 74360
L71600 74360
" />
<path d="M71450 74090
L71360 74770
L71390 74840
L71460 74880
L71540 74880
" />
<path d="M71910 74880
L71840 74840
L71820 74770
L71900 74090
" />
<path d="M72520 74840
L72440 74880
L72290 74880
L72220 74840
L72190 74770
L72230 74470
L72280 74390
L72360 74360
L72510 74360
L72580 74390
L72610 74470
L72600 74540
L72210 74620
" />
<path d="M72900 74810
L72930 74840
L72890 74880
L72860 74840
L72900 74810
L72890 74880
" />
<path d="M72950 74390
L72990 74430
L72940 74470
L72910 74430
L72950 74390
L72940 74470
" />
</g>
<g style="fill:#840000; fill-opacity:0.0; 
stroke:#840000; stroke-width:100; stroke-opacity:1; 
stroke-linecap:round; stroke-linejoin:round;">
</g>
<g style="fill:#840000; fill-opacity:0.0; 
stroke:#840000; stroke-width:60; stroke-opacity:1; 
stroke-linecap:round; stroke-linejoin:round;">
<path d="M70440 73060
L70250 73060
" />
<path d="M70250 73370
L70250 72780
L70530 72780
" />
<path d="M70750 73370
L70750 72980
" />
<path d="M70750 72780
L70720 72810
L70750 72840
L70780 72810
L70750 72780
L70750 72840
" />
<path d="M71120 73370
L71060 73340
L71030 73290
L71030 72780
" />
<path d="M71570 73340
L71510 73370
L71400 73370
L71340 73340
L71310 73290
L71310 73060
L71340 73010
L71400 72980
L71510 72980
L71570 73010
L71590 73060
L71590 73120
L71310 73180
" />
<path d="M71850 73320
L71880 73340
L71850 73370
L71820 73340
L71850 73320
L71850 73370
" />
<path d="M71850 73010
L71880 73030
L71850 73060
L71820 73030
L71850 73010
L71850 73060
" />
<path d="M72580 72980
L72580 73570
" />
<path d="M72580 73010
L72630 72980
L72750 72980
L72800 73010
L72830 73030
L72860 73090
L72860 73260
L72830 73320
L72800 73340
L72750 73370
L72630 73370
L72580 73340
" />
<path d="M73200 73370
L73140 73340
L73110 73320
L73080 73260
L73080 73090
L73110 73030
L73140 73010
L73200 72980
L73280 72980
L73340 73010
L73360 73030
L73390 73090
L73390 73260
L73360 73320
L73340 73340
L73280 73370
L73200 73370
" />
<path d="M73590 72980
L73700 73370
L73810 73090
L73930 73370
L74040 72980
" />
<path d="M74490 73340
L74430 73370
L74320 73370
L74260 73340
L74240 73290
L74240 73060
L74260 73010
L74320 72980
L74430 72980
L74490 73010
L74520 73060
L74520 73120
L74240 73180
" />
<path d="M74770 73370
L74770 72980
" />
<path d="M74770 73090
L74800 73030
L74830 73010
L74880 72980
L74940 72980
" />
<path d="M75110 73340
L75160 73370
L75270 73370
L75330 73340
L75360 73290
L75360 73260
L75330 73200
L75270 73180
L75190 73180
L75130 73150
L75110 73090
L75110 73060
L75130 73010
L75190 72980
L75270 72980
L75330 73010
" />
<path d="M75610 72980
L75610 73570
" />
<path d="M75610 73010
L75670 72980
L75780 72980
L75840 73010
L75860 73030
L75890 73090
L75890 73260
L75860 73320
L75840 73340
L75780 73370
L75670 73370
L75610 73340
" />
<path d="M76230 73370
L76170 73340
L76150 73290
L76150 72780
" />
<path d="M76450 73370
L76450 72980
" />
<path d="M76450 72780
L76430 72810
L76450 72840
L76480 72810
L76450 72780
L76450 72840
" />
<path d="M76650 72980
L76880 72980
" />
<path d="M76740 72780
L76740 73290
L76760 73340
L76820 73370
L76880 73370
" />
<path d="M76990 72980
L77210 72980
" />
<path d="M77070 72780
L77070 73290
L77100 73340
L77160 73370
L77210 73370
" />
<path d="M77630 73340
L77580 73370
L77470 73370
L77410 73340
L77380 73290
L77380 73060
L77410 73010
L77470 72980
L77580 72980
L77630 73010
L77660 73060
L77660 73120
L77380 73180
" />
<path d="M77920 73370
L77920 72980
" />
<path d="M77920 73090
L77940 73030
L77970 73010
L78030 72980
L78080 72980
" />
<path d="M78280 73320
L78310 73340
L78280 73370
L78250 73340
L78280 73320
L78280 73370
" />
<path d="M78530 73340
L78590 73370
L78700 73370
L78760 73340
L78790 73290
L78790 73260
L78760 73200
L78700 73180
L78620 73180
L78560 73150
L78530 73090
L78530 73060
L78560 73010
L78620 72980
L78700 72980
L78760 73010
" />
<path d="M79290 73340
L79240 73370
L79120 73370
L79070 73340
L79040 73320
L79010 73260
L79010 73090
L79040 73030
L79070 73010
L79120 72980
L79240 72980
L79290 73010
" />
<path d="M79550 73370
L79550 72780
" />
<path d="M79800 73370
L79800 73060
L79770 73010
L79710 72980
L79630 72980
L79570 73010
L79550 73030
" />
</g>
<g style="fill:#840000; fill-opacity:0.0; 
stroke:#840000; stroke-width:100; stroke-opacity:1; 
stroke-linecap:round; stroke-linejoin:round;">
</g>
<g style="fill:#840000; fill-opacity:0.0; 
stroke:#840000; stroke-width:60; stroke-opacity:1; 
stroke-linecap:round; stroke-linejoin:round;">
<path d="M69690 71460
L112210 71460
" />
</g>
<g style="fill:#840000; fill-opacity:0.0; 
stroke:#840000; stroke-width:100; stroke-opacity:1; 
stroke-linecap:round; stroke-linejoin:round;">
</g>
<g style="fill:#840000; fill-opacity:0.0; 
stroke:#840000; stroke-width:60; stroke-opacity:1; 
stroke-linecap:round; stroke-linejoin:round;">
<path d="M70220 72280
L70300 72310
L70440 72310
L70500 72280
L70530 72260
L70550 72200
L70550 72140
L70530 72090
L70500 72060
L70440 72030
L70330 72000
L70270 71970
L70250 71950
L70220 71890
L70220 71830
L70250 71780
L70270 71750
L70330 71720
L70470 71720
L70550 71750
" />
<path d="M70810 72310
L70810 71720
" />
<path d="M71060 72310
L71060 72000
L71030 71950
L70980 71920
L70890 71920
L70840 71950
L70810 71970
" />
<path d="M71570 72280
L71510 72310
L71400 72310
L71340 72280
L71310 72230
L71310 72000
L71340 71950
L71400 71920
L71510 71920
L71570 71950
L71590 72000
L71590 72060
L71310 72120
" />
<path d="M72070 72280
L72020 72310
L71900 72310
L71850 72280
L71820 72230
L71820 72000
L71850 71950
L71900 71920
L72020 71920
L72070 71950
L72100 72000
L72100 72060
L71820 72120
" />
<path d="M72270 71920
L72490 71920
" />
<path d="M72350 71720
L72350 72230
L72380 72280
L72440 72310
L72490 72310
" />
<path d="M72690 72260
L72720 72280
L72690 72310
L72660 72280
L72690 72260
L72690 72310
" />
<path d="M72690 71950
L72720 71970
L72690 72000
L72660 71970
L72690 71950
L72690 72000
" />
<path d="M73840 71690
L73340 72450
" />
</g>
<g style="fill:#840000; fill-opacity:0.0; 
stroke:#840000; stroke-width:100; stroke-opacity:1; 
stroke-linecap:round; stroke-linejoin:round;">
</g>
<g style="fill:#840000; fill-opacity:0.0; 
stroke:#840000; stroke-width:60; stroke-opacity:1; 
stroke-linecap:round; stroke-linejoin:round;">
<path d="M77560 75400
L77560 76580
" />
</g>
<g style="fill:#840000; fill-opacity:0.0; 
stroke:#840000; stroke-width:100; stroke-opacity:1; 
stroke-linecap:round; stroke-linejoin:round;">
</g>
<g style="fill:#840000; fill-opacity:0.0; 
stroke:#840000; stroke-width:60; stroke-opacity:1; 
stroke-linecap:round; stroke-linejoin:round;">
<path d="M102760 75400
L102760 77960
" />
</g>
<g style="fill:#840000; fill-opacity:0.0; 
stroke:#840000; stroke-width:0; stroke-opacity:1; 
stroke-linecap:round; stroke-linejoin:round;">
<g >
</g>
<g style="fill:#FFFFC2; fill-opacity:0.0; 
stroke:#FFFFC2; stroke-width:0; stroke-opacity:1; 
stroke-linecap:round; stroke-linejoin:round;">
</g>
<g style="fill:#FFFFC2; fill-opacity:0.6; 
stroke:#FFFFC2; stroke-width:0; stroke-opacity:1; 
stroke-linecap:round; stroke-linejoin:round;">
<rect x="62000" y="32500" width="1000" height="2000" rx="0" />
</g>
<g style="fill:#840000; fill-opacity:0.6; 
stroke:#840000; stroke-width:0; stroke-opacity:1; 
stroke-linecap:round; stroke-linejoin:round;">
</g>
<g style="fill:#840000; fill-opacity:0.0; 
stroke:#840000; stroke-width:100; stroke-opacity:1; 
stroke-linecap:round; stroke-linejoin:round;">
<rect x="62000" y="32500" width="1000" height="2000" rx="0" />
</g>
<g style="fill:#840000; fill-opacity:0.0; 
stroke:#840000; stroke-width:60; stroke-opacity:1; 
stroke-linecap:round; stroke-linejoin:round;">
<circle cx="62500" cy="33000" r="250" /> 
<circle cx="62500" cy="34000" r="250" /> 
<path style="fill:#840000; fill-opacity:0.0; 
stroke:#840000; stroke-width:60; stroke-opacity:1; 
stroke-linecap:round; stroke-linejoin:round;fill:none"
d="M 62710,33130
62370,32800
Z" /> 
<path style="fill:#840000; fill-opacity:0.0; 
stroke:#840000; stroke-width:60; stroke-opacity:1; 
stroke-linecap:round; stroke-linejoin:round;fill:none"
d="M 62710,34130
62370,33800
Z" /> 
<path style="fill:#840000; fill-opacity:0.0; 
stroke:#840000; stroke-width:60; stroke-opacity:1; 
stroke-linecap:round; stroke-linejoin:round;fill:none"
d="M 62640,33200
62300,32870
Z" /> 
<path style="fill:#840000; fill-opacity:0.0; 
stroke:#840000; stroke-width:60; stroke-opacity:1; 
stroke-linecap:round; stroke-linejoin:round;fill:none"
d="M 62640,34200
62300,33870
Z" /> 
<path d="M63000 34000
L64500 34000
" />
<path d="M63890 33870
L63600 33870
" />
<path d="M63750 33870
L63750 33370
L63700 33440
L63650 33490
L63600 33510
" />
<path d="M63000 33000
L64500 33000
" />
<path d="M63600 32420
L63630 32400
L63670 32370
L63790 32370
L63840 32400
L63860 32420
L63890 32470
L63890 32510
L63860 32590
L63580 32870
L63890 32870
" />
</g>
<g style="fill:#008484; fill-opacity:0.0; 
stroke:#008484; stroke-width:60; stroke-opacity:1; 
stroke-linecap:round; stroke-linejoin:round;">
<path d="M63150 30440
L63150 30800
L63120 30870
L63080 30920
L63010 30940
L62960 30940
" />
<path d="M63650 30940
L63360 30940
" />
<path d="M63510 30940
L63510 30440
L63460 30510
L63410 30560
L63360 30580
" />
<path d="M59190 31830
L59260 31850
L59380 31850
L59420 31830
L59450 31800
L59470 31760
L59470 31710
L59450 31660
L59420 31640
L59380 31610
L59280 31590
L59230 31570
L59210 31540
L59190 31490
L59190 31450
L59210 31400
L59230 31380
L59280 31350
L59400 31350
L59470 31380
" />
<path d="M59900 31830
L59850 31850
L59760 31850
L59710 31830
L59690 31800
L59660 31760
L59660 31610
L59690 31570
L59710 31540
L59760 31520
L59850 31520
L59900 31540
" />
<path d="M60110 31850
L60110 31520
" />
<path d="M60110 31610
L60140 31570
L60160 31540
L60210 31520
L60260 31520
" />
<path d="M60610 31830
L60570 31850
L60470 31850
L60420 31830
L60400 31780
L60400 31590
L60420 31540
L60470 31520
L60570 31520
L60610 31540
L60640 31590
L60640 31640
L60400 31680
" />
<path d="M60810 31520
L60900 31850
L61000 31610
L61090 31850
L61190 31520
" />
<path d="M61260 31900
L61640 31900
" />
<path d="M61690 31350
L61970 31350
" />
<path d="M61830 31850
L61830 31350
" />
<path d="M62330 31830
L62280 31850
L62190 31850
L62140 31830
L62110 31780
L62110 31590
L62140 31540
L62190 31520
L62280 31520
L62330 31540
L62350 31590
L62350 31640
L62110 31680
" />
<path d="M62570 31850
L62570 31520
" />
<path d="M62570 31610
L62590 31570
L62610 31540
L62660 31520
L62710 31520
" />
<path d="M62880 31850
L62880 31520
" />
<path d="M62880 31570
L62900 31540
L62950 31520
L63020 31520
L63070 31540
L63090 31590
L63090 31850
" />
<path d="M63090 31590
L63110 31540
L63160 31520
L63230 31520
L63280 31540
L63310 31590
L63310 31850
" />
<path d="M63540 31850
L63540 31520
" />
<path d="M63540 31350
L63520 31380
L63540 31400
L63570 31380
L63540 31350
L63540 31400
" />
<path d="M63780 31520
L63780 31850
" />
<path d="M63780 31570
L63810 31540
L63850 31520
L63920 31520
L63970 31540
L64000 31590
L64000 31850
" />
<path d="M64450 31850
L64450 31590
L64420 31540
L64380 31520
L64280 31520
L64230 31540
" />
<path d="M64450 31830
L64400 31850
L64280 31850
L64230 31830
L64210 31780
L64210 31730
L64230 31680
L64280 31660
L64400 31660
L64450 31640
" />
<path d="M64760 31850
L64710 31830
L64690 31780
L64690 31350
" />
<path d="M64830 31900
L65210 31900
" />
<path d="M65420 31350
L65470 31350
L65520 31380
L65540 31400
L65570 31450
L65590 31540
L65590 31660
L65570 31760
L65540 31800
L65520 31830
L65470 31850
L65420 31850
L65380 31830
L65350 31800
L65330 31760
L65310 31660
L65310 31540
L65330 31450
L65350 31400
L65380 31380
L65420 31350
" />
<path d="M66070 31850
L65780 31850
" />
<path d="M65920 31850
L65920 31350
L65880 31420
L65830 31470
L65780 31490
" />
<path d="M66230 31850
L66500 31520
" />
<path d="M66230 31520
L66500 31850
" />
<path d="M66780 31350
L66830 31350
L66880 31380
L66900 31400
L66920 31450
L66950 31540
L66950 31660
L66920 31760
L66900 31800
L66880 31830
L66830 31850
L66780 31850
L66730 31830
L66710 31800
L66690 31760
L66660 31660
L66660 31540
L66690 31450
L66710 31400
L66730 31380
L66780 31350
" />
<path d="M67140 31400
L67160 31380
L67210 31350
L67330 31350
L67380 31380
L67400 31400
L67420 31450
L67420 31490
L67400 31570
L67110 31850
L67420 31850
" />
</g>
</g>
<g style="fill:#008484; fill-opacity:0.0; 
stroke:#008484; stroke-width:0; stroke-opacity:1; 
stroke-linecap:round; stroke-linejoin:round;">
<g >
</g>
<g style="fill:#840000; fill-opacity:0.0; 
stroke:#840000; stroke-width:0; stroke-opacity:1; 
stroke-linecap:round; stroke-linejoin:round;">
</g>
<g style="fill:#840000; fill-opacity:0.0; 
stroke:#840000; stroke-width:60; stroke-opacity:1; 
stroke-linecap:round; stroke-linejoin:round;">
<path style="fill:#840000; fill-opacity:0.0; 
stroke:#840000; stroke-width:60; stroke-opacity:1; 
stroke-linecap:round; stroke-linejoin:round;fill:none"
d="M 48500,36000
48500,36500
49000,36500
48500,37000
48000,36500
48500,36500
Z" /> 
</g>
<g style="fill:#008484; fill-opacity:0.0; 
stroke:#008484; stroke-width:60; stroke-opacity:1; 
stroke-linecap:round; stroke-linejoin:round;">
<path d="M48160 37500
L48120 37470
L48050 37470
L47970 37500
L47930 37540
L47900 37590
L47880 37690
L47880 37760
L47900 37850
L47930 37900
L47970 37950
L48050 37970
L48090 37970
L48160 37950
L48190 37920
L48190 37760
L48090 37760
" />
<path d="M48400 37970
L48400 37470
L48690 37970
L48690 37470
" />
<path d="M48930 37970
L48930 37470
L49050 37470
L49120 37500
L49160 37540
L49190 37590
L49210 37690
L49210 37760
L49190 37850
L49160 37900
L49120 37950
L49050 37970
L48930 37970
" />
</g>
</g>
<g style="fill:#008484; fill-opacity:0.0; 
stroke:#008484; stroke-width:0; stroke-opacity:1; 
stroke-linecap:round; stroke-linejoin:round;">
<g >
</g>
<g style="fill:#840000; fill-opacity:0.0; 
stroke:#840000; stroke-width:0; stroke-opacity:1; 
stroke-linecap:round; stroke-linejoin:round;">
</g>
<g style="fill:#840000; fill-opacity:0.0; 
stroke:#840000; stroke-width:60; stroke-opacity:1; 
stroke-linecap:round; stroke-linejoin:round;">
<path style="fill:#840000; fill-opacity:0.0; 
stroke:#840000; stroke-width:60; stroke-opacity:1; 
stroke-linecap:round; stroke-linejoin:round;fill:none"
d="M 48200,30500
48500,30000
Z" /> 
<path style="fill:#840000; fill-opacity:0.0; 
stroke:#840000; stroke-width:60; stroke-opacity:1; 
stroke-linecap:round; stroke-linejoin:round;fill:none"
d="M 48500,31000
48500,30000
Z" /> 
<path style="fill:#840000; fill-opacity:0.0; 
stroke:#840000; stroke-width:60; stroke-opacity:1; 
stroke-linecap:round; stroke-linejoin:round;fill:none"
d="M 48500,30000
48800,30500
Z" /> 
</g>
<g style="fill:#008484; fill-opacity:0.0; 
stroke:#008484; stroke-width:60; stroke-opacity:1; 
stroke-linecap:round; stroke-linejoin:round;">
<path d="M47760 29320
L48150 29320
" />
<path d="M47950 29510
L47950 29130
" />
<path d="M48650 29510
L48360 29510
" />
<path d="M48500 29510
L48500 29010
L48450 29080
L48410 29130
L48360 29150
" />
<path d="M48840 29060
L48860 29040
L48910 29010
L49030 29010
L49070 29040
L49100 29060
L49120 29110
L49120 29150
L49100 29230
L48810 29510
L49120 29510
" />
<path d="M49260 29010
L49430 29510
L49600 29010
" />
</g>
</g>
<g style="fill:#008484; fill-opacity:0.0; 
stroke:#008484; stroke-width:0; stroke-opacity:1; 
stroke-linecap:round; stroke-linejoin:round;">
<g >
</g>
<g style="fill:#840000; fill-opacity:0.0; 
stroke:#840000; stroke-width:0; stroke-opacity:1; 
stroke-linecap:round; stroke-linejoin:round;">
</g>
<g style="fill:#840000; fill-opacity:0.0; 
stroke:#840000; stroke-width:60; stroke-opacity:1; 
stroke-linecap:round; stroke-linejoin:round;">
<path style="fill:#840000; fill-opacity:0.0; 
stroke:#840000; stroke-width:60; stroke-opacity:1; 
stroke-linecap:round; stroke-linejoin:round;fill:none"
d="M 53000,45500
53000,46000
53500,46000
53000,46500
52500,46000
53000,46000
Z" /> 
</g>
<g style="fill:#008484; fill-opacity:0.0; 
stroke:#008484; stroke-width:60; stroke-opacity:1; 
stroke-linecap:round; stroke-linejoin:round;">
<path d="M52660 47000
L52620 46970
L52550 46970
L52470 47000
L52430 47040
L52400 47090
L52380 47190
L52380 47260
L52400 47350
L52430 47400
L52470 47450
L52550 47470
L52590 47470
L52660 47450
L52690 47420
L52690 47260
L52590 47260
" />
<path d="M52900 47470
L52900 46970
L53190 47470
L53190 46970
" />
<path d="M53430 47470
L53430 46970
L53550 46970
L53620 47000
L53660 47040
L53690 47090
L53710 47190
L53710 47260
L53690 47350
L53660 47400
L53620 47450
L53550 47470
L53430 47470
" />
</g>
</g>
<g style="fill:#008484; fill-opacity:0.0; 
stroke:#008484; stroke-width:0; stroke-opacity:1; 
stroke-linecap:round; stroke-linejoin:round;">
<g >
</g>
<g style="fill:#840000; fill-opacity:0.0; 
stroke:#840000; stroke-width:0; stroke-opacity:1; 
stroke-linecap:round; stroke-linejoin:round;">
</g>
<g style="fill:#840000; fill-opacity:0.0; 
stroke:#840000; stroke-width:60; stroke-opacity:1; 
stroke-linecap:round; stroke-linejoin:round;">
<path style="fill:#840000; fill-opacity:0.0; 
stroke:#840000; stroke-width:60; stroke-opacity:1; 
stroke-linecap:round; stroke-linejoin:round;fill:none"
d="M 64000,45500
64000,46000
64500,46000
64000,46500
63500,46000
64000,46000
Z" /> 
</g>
<g style="fill:#008484; fill-opacity:0.0; 
stroke:#008484; stroke-width:60; stroke-opacity:1; 
stroke-linecap:round; stroke-linejoin:round;">
<path d="M63660 47000
L63620 46970
L63550 46970
L63470 47000
L63430 47040
L63400 47090
L63380 47190
L63380 47260
L63400 47350
L63430 47400
L63470 47450
L63550 47470
L63590 47470
L63660 47450
L63690 47420
L63690 47260
L63590 47260
" />
<path d="M63900 47470
L63900 46970
L64190 47470
L64190 46970
" />
<path d="M64430 47470
L64430 46970
L64550 46970
L64620 47000
L64660 47040
L64690 47090
L64710 47190
L64710 47260
L64690 47350
L64660 47400
L64620 47450
L64550 47470
L64430 47470
" />
</g>
</g>
<g style="fill:#008484; fill-opacity:0.0; 
stroke:#008484; stroke-width:0; stroke-opacity:1; 
stroke-linecap:round; stroke-linejoin:round;">
<g >
</g>
<g style="fill:#840000; fill-opacity:0.0; 
stroke:#840000; stroke-width:0; stroke-opacity:1; 
stroke-linecap:round; stroke-linejoin:round;">
</g>
<g style="fill:#840000; fill-opacity:0.0; 
stroke:#840000; stroke-width:60; stroke-opacity:1; 
stroke-linecap:round; stroke-linejoin:round;">
<path style="fill:#840000; fill-opacity:0.0; 
stroke:#840000; stroke-width:60; stroke-opacity:1; 
stroke-linecap:round; stroke-linejoin:round;fill:none"
d="M 49700,42000
50000,41500
Z" /> 
<path style="fill:#840000; fill-opacity:0.0; 
stroke:#840000; stroke-width:60; stroke-opacity:1; 
stroke-linecap:round; stroke-linejoin:round;fill:none"
d="M 50000,42500
50000,41500
Z" /> 
<path style="fill:#840000; fill-opacity:0.0; 
stroke:#840000; stroke-width:60; stroke-opacity:1; 
stroke-linecap:round; stroke-linejoin:round;fill:none"
d="M 50000,41500
50300,42000
Z" /> 
</g>
<g style="fill:#008484; fill-opacity:0.0; 
stroke:#008484; stroke-width:60; stroke-opacity:1; 
stroke-linecap:round; stroke-linejoin:round;">
<path d="M49260 40820
L49650 40820
" />
<path d="M49450 41010
L49450 40630
" />
<path d="M50150 41010
L49860 41010
" />
<path d="M50000 41010
L50000 40510
L49950 40580
L49910 40630
L49860 40650
" />
<path d="M50340 40560
L50360 40540
L50410 40510
L50530 40510
L50570 40540
L50600 40560
L50620 40610
L50620 40650
L50600 40730
L50310 41010
L50620 41010
" />
<path d="M50760 40510
L50930 41010
L51100 40510
" />
</g>
</g>
<g style="fill:#008484; fill-opacity:0.0; 
stroke:#008484; stroke-width:0; stroke-opacity:1; 
stroke-linecap:round; stroke-linejoin:round;">
<g >
</g>
<g style="fill:#840000; fill-opacity:0.0; 
stroke:#840000; stroke-width:0; stroke-opacity:1; 
stroke-linecap:round; stroke-linejoin:round;">
</g>
<g style="fill:#FFFFC2; fill-opacity:0.0; 
stroke:#FFFFC2; stroke-width:0; stroke-opacity:1; 
stroke-linecap:round; stroke-linejoin:round;">
</g>
<g style="fill:#FFFFC2; fill-opacity:0.6; 
stroke:#FFFFC2; stroke-width:0; stroke-opacity:1; 
stroke-linecap:round; stroke-linejoin:round;">
<rect x="52000" y="32500" width="1000" height="2000" rx="0" />
</g>
<g style="fill:#840000; fill-opacity:0.6; 
stroke:#840000; stroke-width:0; stroke-opacity:1; 
stroke-linecap:round; stroke-linejoin:round;">
</g>
<g style="fill:#840000; fill-opacity:0.0; 
stroke:#840000; stroke-width:100; stroke-opacity:1; 
stroke-linecap:round; stroke-linejoin:round;">
<rect x="52000" y="32500" width="1000" height="2000" rx="0" />
</g>
<g style="fill:#840000; fill-opacity:0.0; 
stroke:#840000; stroke-width:60; stroke-opacity:1; 
stroke-linecap:round; stroke-linejoin:round;">
<circle cx="52500" cy="34000" r="250" /> 
<circle cx="52500" cy="33000" r="250" /> 
<path style="fill:#840000; fill-opacity:0.0; 
stroke:#840000; stroke-width:60; stroke-opacity:1; 
stroke-linecap:round; stroke-linejoin:round;fill:none"
d="M 52290,33870
52630,34200
Z" /> 
<path style="fill:#840000; fill-opacity:0.0; 
stroke:#840000; stroke-width:60; stroke-opacity:1; 
stroke-linecap:round; stroke-linejoin:round;fill:none"
d="M 52290,32870
52630,33200
Z" /> 
<path style="fill:#840000; fill-opacity:0.0; 
stroke:#840000; stroke-width:60; stroke-opacity:1; 
stroke-linecap:round; stroke-linejoin:round;fill:none"
d="M 52360,33800
52700,34130
Z" /> 
<path style="fill:#840000; fill-opacity:0.0; 
stroke:#840000; stroke-width:60; stroke-opacity:1; 
stroke-linecap:round; stroke-linejoin:round;fill:none"
d="M 52360,32800
52700,33130
Z" /> 
<path d="M52000 33000
L50500 33000
" />
<path d="M51390 32870
L51100 32870
" />
<path d="M51250 32870
L51250 32370
L51200 32440
L51150 32490
L51100 32510
" />
<path d="M52000 34000
L50500 34000
" />
<path d="M51100 33420
L51130 33400
L51170 33370
L51290 33370
L51340 33400
L51360 33420
L51390 33470
L51390 33510
L51360 33590
L51080 33870
L51390 33870
" />
</g>
<g style="fill:#008484; fill-opacity:0.0; 
stroke:#008484; stroke-width:60; stroke-opacity:1; 
stroke-linecap:round; stroke-linejoin:round;">
<path d="M53590 32820
L53590 33180
L53560 33250
L53520 33300
L53450 33320
L53400 33320
" />
<path d="M53780 32820
L54090 32820
L53920 33010
L53990 33010
L54040 33040
L54060 33060
L54090 33110
L54090 33230
L54060 33270
L54040 33300
L53990 33320
L53850 33320
L53800 33300
L53780 33270
" />
<path d="M53420 34210
L53490 34230
L53610 34230
L53650 34210
L53680 34180
L53700 34140
L53700 34090
L53680 34040
L53650 34020
L53610 33990
L53510 33970
L53460 33950
L53440 33920
L53420 33870
L53420 33830
L53440 33780
L53460 33760
L53510 33730
L53630 33730
L53700 33760
" />
<path d="M54130 34210
L54080 34230
L53990 34230
L53940 34210
L53920 34180
L53890 34140
L53890 33990
L53920 33950
L53940 33920
L53990 33900
L54080 33900
L54130 33920
" />
<path d="M54340 34230
L54340 33900
" />
<path d="M54340 33990
L54370 33950
L54390 33920
L54440 33900
L54490 33900
" />
<path d="M54840 34210
L54800 34230
L54700 34230
L54650 34210
L54630 34160
L54630 33970
L54650 33920
L54700 33900
L54800 33900
L54840 33920
L54870 33970
L54870 34020
L54630 34060
" />
<path d="M55040 33900
L55130 34230
L55230 33990
L55320 34230
L55420 33900
" />
<path d="M55490 34280
L55870 34280
" />
<path d="M55920 33730
L56200 33730
" />
<path d="M56060 34230
L56060 33730
" />
<path d="M56560 34210
L56510 34230
L56420 34230
L56370 34210
L56340 34160
L56340 33970
L56370 33920
L56420 33900
L56510 33900
L56560 33920
L56580 33970
L56580 34020
L56340 34060
" />
<path d="M56800 34230
L56800 33900
" />
<path d="M56800 33990
L56820 33950
L56840 33920
L56890 33900
L56940 33900
" />
<path d="M57110 34230
L57110 33900
" />
<path d="M57110 33950
L57130 33920
L57180 33900
L57250 33900
L57300 33920
L57320 33970
L57320 34230
" />
<path d="M57320 33970
L57340 33920
L57390 33900
L57460 33900
L57510 33920
L57540 33970
L57540 34230
" />
<path d="M57770 34230
L57770 33900
" />
<path d="M57770 33730
L57750 33760
L57770 33780
L57800 33760
L57770 33730
L57770 33780
" />
<path d="M58010 33900
L58010 34230
" />
<path d="M58010 33950
L58040 33920
L58080 33900
L58150 33900
L58200 33920
L58230 33970
L58230 34230
" />
<path d="M58680 34230
L58680 33970
L58650 33920
L58610 33900
L58510 33900
L58460 33920
" />
<path d="M58680 34210
L58630 34230
L58510 34230
L58460 34210
L58440 34160
L58440 34110
L58460 34060
L58510 34040
L58630 34040
L58680 34020
" />
<path d="M58990 34230
L58940 34210
L58920 34160
L58920 33730
" />
<path d="M59060 34280
L59440 34280
" />
<path d="M59650 33730
L59700 33730
L59750 33760
L59770 33780
L59800 33830
L59820 33920
L59820 34040
L59800 34140
L59770 34180
L59750 34210
L59700 34230
L59650 34230
L59610 34210
L59580 34180
L59560 34140
L59540 34040
L59540 33920
L59560 33830
L59580 33780
L59610 33760
L59650 33730
" />
<path d="M60300 34230
L60010 34230
" />
<path d="M60150 34230
L60150 33730
L60110 33800
L60060 33850
L60010 33870
" />
<path d="M60460 34230
L60730 33900
" />
<path d="M60460 33900
L60730 34230
" />
<path d="M61010 33730
L61060 33730
L61110 33760
L61130 33780
L61150 33830
L61180 33920
L61180 34040
L61150 34140
L61130 34180
L61110 34210
L61060 34230
L61010 34230
L60960 34210
L60940 34180
L60920 34140
L60890 34040
L60890 33920
L60920 33830
L60940 33780
L60960 33760
L61010 33730
" />
<path d="M61370 33780
L61390 33760
L61440 33730
L61560 33730
L61610 33760
L61630 33780
L61650 33830
L61650 33870
L61630 33950
L61340 34230
L61650 34230
" />
</g>
</g>
<g style="fill:#008484; fill-opacity:0.0; 
stroke:#008484; stroke-width:0; stroke-opacity:1; 
stroke-linecap:round; stroke-linejoin:round;">
<g >
</g>
<g style="fill:#840000; fill-opacity:0.0; 
stroke:#840000; stroke-width:0; stroke-opacity:1; 
stroke-linecap:round; stroke-linejoin:round;">
</g>
<g style="fill:#840000; fill-opacity:0.0; 
stroke:#840000; stroke-width:60; stroke-opacity:1; 
stroke-linecap:round; stroke-linejoin:round;">
<path style="fill:#840000; fill-opacity:0.0; 
stroke:#840000; stroke-width:60; stroke-opacity:1; 
stroke-linecap:round; stroke-linejoin:round;fill:none"
d="M 60700,42000
61000,41500
Z" /> 
<path style="fill:#840000; fill-opacity:0.0; 
stroke:#840000; stroke-width:60; stroke-opacity:1; 
stroke-linecap:round; stroke-linejoin:round;fill:none"
d="M 61000,42500
61000,41500
Z" /> 
<path style="fill:#840000; fill-opacity:0.0; 
stroke:#840000; stroke-width:60; stroke-opacity:1; 
stroke-linecap:round; stroke-linejoin:round;fill:none"
d="M 61000,41500
61300,42000
Z" /> 
</g>
<g style="fill:#008484; fill-opacity:0.0; 
stroke:#008484; stroke-width:60; stroke-opacity:1; 
stroke-linecap:round; stroke-linejoin:round;">
<path d="M60260 40820
L60650 40820
" />
<path d="M60450 41010
L60450 40630
" />
<path d="M61150 41010
L60860 41010
" />
<path d="M61000 41010
L61000 40510
L60950 40580
L60910 40630
L60860 40650
" />
<path d="M61340 40560
L61360 40540
L61410 40510
L61530 40510
L61570 40540
L61600 40560
L61620 40610
L61620 40650
L61600 40730
L61310 41010
L61620 41010
" />
<path d="M61760 40510
L61930 41010
L62100 40510
" />
</g>
</g>
<g style="fill:#008484; fill-opacity:0.0; 
stroke:#008484; stroke-width:0; stroke-opacity:1; 
stroke-linecap:round; stroke-linejoin:round;">
<g >
</g>
<g style="fill:#840000; fill-opacity:0.0; 
stroke:#840000; stroke-width:0; stroke-opacity:1; 
stroke-linecap:round; stroke-linejoin:round;">
</g>
<g style="fill:#FFFFC2; fill-opacity:0.0; 
stroke:#FFFFC2; stroke-width:0; stroke-opacity:1; 
stroke-linecap:round; stroke-linejoin:round;">
</g>
<g style="fill:#FFFFC2; fill-opacity:0.6; 
stroke:#FFFFC2; stroke-width:0; stroke-opacity:1; 
stroke-linecap:round; stroke-linejoin:round;">
<rect x="51500" y="42000" width="2000" height="1000" rx="0" />
</g>
<g style="fill:#840000; fill-opacity:0.6; 
stroke:#840000; stroke-width:0; stroke-opacity:1; 
stroke-linecap:round; stroke-linejoin:round;">
</g>
<g style="fill:#840000; fill-opacity:0.0; 
stroke:#840000; stroke-width:100; stroke-opacity:1; 
stroke-linecap:round; stroke-linejoin:round;">
<rect x="51500" y="42000" width="2000" height="1000" rx="0" />
</g>
<g style="fill:#840000; fill-opacity:0.0; 
stroke:#840000; stroke-width:60; stroke-opacity:1; 
stroke-linecap:round; stroke-linejoin:round;">
<circle cx="53000" cy="42500" r="250" /> 
<circle cx="52000" cy="42500" r="250" /> 
<path style="fill:#840000; fill-opacity:0.0; 
stroke:#840000; stroke-width:60; stroke-opacity:1; 
stroke-linecap:round; stroke-linejoin:round;fill:none"
d="M 52870,42710
53200,42370
Z" /> 
<path style="fill:#840000; fill-opacity:0.0; 
stroke:#840000; stroke-width:60; stroke-opacity:1; 
stroke-linecap:round; stroke-linejoin:round;fill:none"
d="M 51870,42710
52200,42370
Z" /> 
<path style="fill:#840000; fill-opacity:0.0; 
stroke:#840000; stroke-width:60; stroke-opacity:1; 
stroke-linecap:round; stroke-linejoin:round;fill:none"
d="M 52800,42640
53130,42300
Z" /> 
<path style="fill:#840000; fill-opacity:0.0; 
stroke:#840000; stroke-width:60; stroke-opacity:1; 
stroke-linecap:round; stroke-linejoin:round;fill:none"
d="M 51800,42640
52130,42300
Z" /> 
<path d="M52000 43000
L52000 44500
" />
<path d="M51870 43600
L51870 43890
" />
<path d="M51870 43750
L51370 43750
L51440 43790
L51490 43840
L51510 43890
" />
<path d="M53000 43000
L53000 44500
" />
<path d="M52420 43890
L52400 43860
L52370 43820
L52370 43700
L52400 43650
L52420 43630
L52470 43600
L52510 43600
L52590 43630
L52870 43910
L52870 43600
" />
</g>
<g style="fill:#008484; fill-opacity:0.0; 
stroke:#008484; stroke-width:60; stroke-opacity:1; 
stroke-linecap:round; stroke-linejoin:round;">
<path d="M54170 42550
L54170 42910
L54140 42980
L54100 43030
L54030 43050
L53980 43050
" />
<path d="M54380 42600
L54410 42580
L54450 42550
L54570 42550
L54620 42580
L54640 42600
L54670 42650
L54670 42690
L54640 42770
L54360 43050
L54670 43050
" />
<path d="M54000 43940
L54070 43960
L54190 43960
L54230 43940
L54260 43910
L54280 43870
L54280 43820
L54260 43770
L54230 43750
L54190 43720
L54090 43700
L54040 43680
L54020 43650
L54000 43600
L54000 43560
L54020 43510
L54040 43490
L54090 43460
L54210 43460
L54280 43490
" />
<path d="M54710 43940
L54660 43960
L54570 43960
L54520 43940
L54500 43910
L54470 43870
L54470 43720
L54500 43680
L54520 43650
L54570 43630
L54660 43630
L54710 43650
" />
<path d="M54920 43960
L54920 43630
" />
<path d="M54920 43720
L54950 43680
L54970 43650
L55020 43630
L55070 43630
" />
<path d="M55420 43940
L55380 43960
L55280 43960
L55230 43940
L55210 43890
L55210 43700
L55230 43650
L55280 43630
L55380 43630
L55420 43650
L55450 43700
L55450 43750
L55210 43790
" />
<path d="M55620 43630
L55710 43960
L55810 43720
L55900 43960
L56000 43630
" />
<path d="M56070 44010
L56450 44010
" />
<path d="M56500 43460
L56780 43460
" />
<path d="M56640 43960
L56640 43460
" />
<path d="M57140 43940
L57090 43960
L57000 43960
L56950 43940
L56920 43890
L56920 43700
L56950 43650
L57000 43630
L57090 43630
L57140 43650
L57160 43700
L57160 43750
L56920 43790
" />
<path d="M57380 43960
L57380 43630
" />
<path d="M57380 43720
L57400 43680
L57420 43650
L57470 43630
L57520 43630
" />
<path d="M57690 43960
L57690 43630
" />
<path d="M57690 43680
L57710 43650
L57760 43630
L57830 43630
L57880 43650
L57900 43700
L57900 43960
" />
<path d="M57900 43700
L57920 43650
L57970 43630
L58040 43630
L58090 43650
L58120 43700
L58120 43960
" />
<path d="M58350 43960
L58350 43630
" />
<path d="M58350 43460
L58330 43490
L58350 43510
L58380 43490
L58350 43460
L58350 43510
" />
<path d="M58590 43630
L58590 43960
" />
<path d="M58590 43680
L58620 43650
L58660 43630
L58730 43630
L58780 43650
L58810 43700
L58810 43960
" />
<path d="M59260 43960
L59260 43700
L59230 43650
L59190 43630
L59090 43630
L59040 43650
" />
<path d="M59260 43940
L59210 43960
L59090 43960
L59040 43940
L59020 43890
L59020 43840
L59040 43790
L59090 43770
L59210 43770
L59260 43750
" />
<path d="M59570 43960
L59520 43940
L59500 43890
L59500 43460
" />
<path d="M59640 44010
L60020 44010
" />
<path d="M60230 43460
L60280 43460
L60330 43490
L60350 43510
L60380 43560
L60400 43650
L60400 43770
L60380 43870
L60350 43910
L60330 43940
L60280 43960
L60230 43960
L60190 43940
L60160 43910
L60140 43870
L60120 43770
L60120 43650
L60140 43560
L60160 43510
L60190 43490
L60230 43460
" />
<path d="M60880 43960
L60590 43960
" />
<path d="M60730 43960
L60730 43460
L60690 43530
L60640 43580
L60590 43600
" />
<path d="M61040 43960
L61310 43630
" />
<path d="M61040 43630
L61310 43960
" />
<path d="M61590 43460
L61640 43460
L61690 43490
L61710 43510
L61730 43560
L61760 43650
L61760 43770
L61730 43870
L61710 43910
L61690 43940
L61640 43960
L61590 43960
L61540 43940
L61520 43910
L61500 43870
L61470 43770
L61470 43650
L61500 43560
L61520 43510
L61540 43490
L61590 43460
" />
<path d="M61950 43510
L61970 43490
L62020 43460
L62140 43460
L62190 43490
L62210 43510
L62230 43560
L62230 43600
L62210 43680
L61920 43960
L62230 43960
" />
</g>
</g>
<g style="fill:#008484; fill-opacity:0.0; 
stroke:#008484; stroke-width:0; stroke-opacity:1; 
stroke-linecap:round; stroke-linejoin:round;">
<g >
</g>
<g style="fill:#840000; fill-opacity:0.0; 
stroke:#840000; stroke-width:0; stroke-opacity:1; 
stroke-linecap:round; stroke-linejoin:round;">
</g>
<g style="fill:#840000; fill-opacity:0.0; 
stroke:#840000; stroke-width:60; stroke-opacity:1; 
stroke-linecap:round; stroke-linejoin:round;">
<path style="fill:#840000; fill-opacity:0.0; 
stroke:#840000; stroke-width:60; stroke-opacity:1; 
stroke-linecap:round; stroke-linejoin:round;fill:none"
d="M 66200,30500
66500,30000
Z" /> 
<path style="fill:#840000; fill-opacity:0.0; 
stroke:#840000; stroke-width:60; stroke-opacity:1; 
stroke-linecap:round; stroke-linejoin:round;fill:none"
d="M 66500,31000
66500,30000
Z" /> 
<path style="fill:#840000; fill-opacity:0.0; 
stroke:#840000; stroke-width:60; stroke-opacity:1; 
stroke-linecap:round; stroke-linejoin:round;fill:none"
d="M 66500,30000
66800,30500
Z" /> 
</g>
<g style="fill:#008484; fill-opacity:0.0; 
stroke:#008484; stroke-width:60; stroke-opacity:1; 
stroke-linecap:round; stroke-linejoin:round;">
<path d="M65760 29320
L66150 29320
" />
<path d="M65950 29510
L65950 29130
" />
<path d="M66650 29510
L66360 29510
" />
<path d="M66500 29510
L66500 29010
L66450 29080
L66410 29130
L66360 29150
" />
<path d="M66840 29060
L66860 29040
L66910 29010
L67030 29010
L67070 29040
L67100 29060
L67120 29110
L67120 29150
L67100 29230
L66810 29510
L67120 29510
" />
<path d="M67260 29010
L67430 29510
L67600 29010
" />
</g>
</g>
<g style="fill:#008484; fill-opacity:0.0; 
stroke:#008484; stroke-width:0; stroke-opacity:1; 
stroke-linecap:round; stroke-linejoin:round;">
<g >
</g>
<g style="fill:#840000; fill-opacity:0.0; 
stroke:#840000; stroke-width:0; stroke-opacity:1; 
stroke-linecap:round; stroke-linejoin:round;">
</g>
<g style="fill:#840000; fill-opacity:0.0; 
stroke:#840000; stroke-width:60; stroke-opacity:1; 
stroke-linecap:round; stroke-linejoin:round;">
<path style="fill:#840000; fill-opacity:0.0; 
stroke:#840000; stroke-width:60; stroke-opacity:1; 
stroke-linecap:round; stroke-linejoin:round;fill:none"
d="M 66500,36000
66500,36500
67000,36500
66500,37000
66000,36500
66500,36500
Z" /> 
</g>
<g style="fill:#008484; fill-opacity:0.0; 
stroke:#008484; stroke-width:60; stroke-opacity:1; 
stroke-linecap:round; stroke-linejoin:round;">
<path d="M66160 37500
L66120 37470
L66050 37470
L65970 37500
L65930 37540
L65900 37590
L65880 37690
L65880 37760
L65900 37850
L65930 37900
L65970 37950
L66050 37970
L66090 37970
L66160 37950
L66190 37920
L66190 37760
L66090 37760
" />
<path d="M66400 37970
L66400 37470
L66690 37970
L66690 37470
" />
<path d="M66930 37970
L66930 37470
L67050 37470
L67120 37500
L67160 37540
L67190 37590
L67210 37690
L67210 37760
L67190 37850
L67160 37900
L67120 37950
L67050 37970
L66930 37970
" />
</g>
</g>
<g style="fill:#008484; fill-opacity:0.0; 
stroke:#008484; stroke-width:0; stroke-opacity:1; 
stroke-linecap:round; stroke-linejoin:round;">
<g >
</g>
<g style="fill:#840000; fill-opacity:0.0; 
stroke:#840000; stroke-width:0; stroke-opacity:1; 
stroke-linecap:round; stroke-linejoin:round;">
</g>
<g style="fill:#FFFFC2; fill-opacity:0.0; 
stroke:#FFFFC2; stroke-width:0; stroke-opacity:1; 
stroke-linecap:round; stroke-linejoin:round;">
</g>
<g style="fill:#FFFFC2; fill-opacity:0.6; 
stroke:#FFFFC2; stroke-width:0; stroke-opacity:1; 
stroke-linecap:round; stroke-linejoin:round;">
<rect x="62500" y="42000" width="2000" height="1000" rx="0" />
</g>
<g style="fill:#840000; fill-opacity:0.6; 
stroke:#840000; stroke-width:0; stroke-opacity:1; 
stroke-linecap:round; stroke-linejoin:round;">
</g>
<g style="fill:#840000; fill-opacity:0.0; 
stroke:#840000; stroke-width:100; stroke-opacity:1; 
stroke-linecap:round; stroke-linejoin:round;">
<rect x="62500" y="42000" width="2000" height="1000" rx="0" />
</g>
<g style="fill:#840000; fill-opacity:0.0; 
stroke:#840000; stroke-width:60; stroke-opacity:1; 
stroke-linecap:round; stroke-linejoin:round;">
<circle cx="64000" cy="42500" r="250" /> 
<circle cx="63000" cy="42500" r="250" /> 
<path style="fill:#840000; fill-opacity:0.0; 
stroke:#840000; stroke-width:60; stroke-opacity:1; 
stroke-linecap:round; stroke-linejoin:round;fill:none"
d="M 63870,42710
64200,42370
Z" /> 
<path style="fill:#840000; fill-opacity:0.0; 
stroke:#840000; stroke-width:60; stroke-opacity:1; 
stroke-linecap:round; stroke-linejoin:round;fill:none"
d="M 62870,42710
63200,42370
Z" /> 
<path style="fill:#840000; fill-opacity:0.0; 
stroke:#840000; stroke-width:60; stroke-opacity:1; 
stroke-linecap:round; stroke-linejoin:round;fill:none"
d="M 63800,42640
64130,42300
Z" /> 
<path style="fill:#840000; fill-opacity:0.0; 
stroke:#840000; stroke-width:60; stroke-opacity:1; 
stroke-linecap:round; stroke-linejoin:round;fill:none"
d="M 62800,42640
63130,42300
Z" /> 
<path d="M63000 43000
L63000 44500
" />
<path d="M62870 43600
L62870 43890
" />
<path d="M62870 43750
L62370 43750
L62440 43790
L62490 43840
L62510 43890
" />
<path d="M64000 43000
L64000 44500
" />
<path d="M63420 43890
L63400 43860
L63370 43820
L63370 43700
L63400 43650
L63420 43630
L63470 43600
L63510 43600
L63590 43630
L63870 43910
L63870 43600
" />
</g>
<g style="fill:#008484; fill-opacity:0.0; 
stroke:#008484; stroke-width:60; stroke-opacity:1; 
stroke-linecap:round; stroke-linejoin:round;">
<path d="M65170 42550
L65170 42910
L65140 42980
L65100 43030
L65030 43050
L64980 43050
" />
<path d="M65620 42720
L65620 43050
" />
<path d="M65500 42530
L65380 42880
L65690 42880
" />
<path d="M65000 43940
L65070 43960
L65190 43960
L65230 43940
L65260 43910
L65280 43870
L65280 43820
L65260 43770
L65230 43750
L65190 43720
L65090 43700
L65040 43680
L65020 43650
L65000 43600
L65000 43560
L65020 43510
L65040 43490
L65090 43460
L65210 43460
L65280 43490
" />
<path d="M65710 43940
L65660 43960
L65570 43960
L65520 43940
L65500 43910
L65470 43870
L65470 43720
L65500 43680
L65520 43650
L65570 43630
L65660 43630
L65710 43650
" />
<path d="M65920 43960
L65920 43630
" />
<path d="M65920 43720
L65950 43680
L65970 43650
L66020 43630
L66070 43630
" />
<path d="M66420 43940
L66380 43960
L66280 43960
L66230 43940
L66210 43890
L66210 43700
L66230 43650
L66280 43630
L66380 43630
L66420 43650
L66450 43700
L66450 43750
L66210 43790
" />
<path d="M66620 43630
L66710 43960
L66810 43720
L66900 43960
L67000 43630
" />
<path d="M67070 44010
L67450 44010
" />
<path d="M67500 43460
L67780 43460
" />
<path d="M67640 43960
L67640 43460
" />
<path d="M68140 43940
L68090 43960
L68000 43960
L67950 43940
L67920 43890
L67920 43700
L67950 43650
L68000 43630
L68090 43630
L68140 43650
L68160 43700
L68160 43750
L67920 43790
" />
<path d="M68380 43960
L68380 43630
" />
<path d="M68380 43720
L68400 43680
L68420 43650
L68470 43630
L68520 43630
" />
<path d="M68690 43960
L68690 43630
" />
<path d="M68690 43680
L68710 43650
L68760 43630
L68830 43630
L68880 43650
L68900 43700
L68900 43960
" />
<path d="M68900 43700
L68920 43650
L68970 43630
L69040 43630
L69090 43650
L69120 43700
L69120 43960
" />
<path d="M69350 43960
L69350 43630
" />
<path d="M69350 43460
L69330 43490
L69350 43510
L69380 43490
L69350 43460
L69350 43510
" />
<path d="M69590 43630
L69590 43960
" />
<path d="M69590 43680
L69620 43650
L69660 43630
L69730 43630
L69780 43650
L69810 43700
L69810 43960
" />
<path d="M70260 43960
L70260 43700
L70230 43650
L70190 43630
L70090 43630
L70040 43650
" />
<path d="M70260 43940
L70210 43960
L70090 43960
L70040 43940
L70020 43890
L70020 43840
L70040 43790
L70090 43770
L70210 43770
L70260 43750
" />
<path d="M70570 43960
L70520 43940
L70500 43890
L70500 43460
" />
<path d="M70640 44010
L71020 44010
" />
<path d="M71230 43460
L71280 43460
L71330 43490
L71350 43510
L71380 43560
L71400 43650
L71400 43770
L71380 43870
L71350 43910
L71330 43940
L71280 43960
L71230 43960
L71190 43940
L71160 43910
L71140 43870
L71120 43770
L71120 43650
L71140 43560
L71160 43510
L71190 43490
L71230 43460
" />
<path d="M71880 43960
L71590 43960
" />
<path d="M71730 43960
L71730 43460
L71690 43530
L71640 43580
L71590 43600
" />
<path d="M72040 43960
L72310 43630
" />
<path d="M72040 43630
L72310 43960
" />
<path d="M72590 43460
L72640 43460
L72690 43490
L72710 43510
L72730 43560
L72760 43650
L72760 43770
L72730 43870
L72710 43910
L72690 43940
L72640 43960
L72590 43960
L72540 43940
L72520 43910
L72500 43870
L72470 43770
L72470 43650
L72500 43560
L72520 43510
L72540 43490
L72590 43460
" />
<path d="M72950 43510
L72970 43490
L73020 43460
L73140 43460
L73190 43490
L73210 43510
L73230 43560
L73230 43600
L73210 43680
L72920 43960
L73230 43960
" />
</g>
</g>
<g style="fill:#008484; fill-opacity:0.0; 
stroke:#008484; stroke-width:60; stroke-opacity:1; 
stroke-linecap:round; stroke-linejoin:round;">
</g>
<g style="fill:#008400; fill-opacity:0.0; 
stroke:#008400; stroke-width:60; stroke-opacity:1; 
stroke-linecap:round; stroke-linejoin:round;">
<path d="M66500 36000
L66500 34000
" />
<path d="M48500 31000
L48500 33000
" />
<path d="M50500 33000
L48500 33000
" />
<path d="M48500 34000
L48500 36000
" />
<path d="M50500 34000
L48500 34000
" />
<path d="M64000 45500
L64000 44500
" />
<path d="M53000 45500
L53000 44500
" />
<path d="M63000 45500
L63000 44500
" />
<path d="M61000 45500
L63000 45500
" />
<path d="M61000 42500
L61000 45500
" />
<path d="M52000 45500
L52000 44500
" />
<path d="M50000 45500
L52000 45500
" />
<path d="M50000 42500
L50000 45500
" />
<path d="M66500 34000
L64500 34000
" />
<path d="M64500 33000
L66500 33000
" />
<path d="M66500 33000
L66500 31000
" />
</g> 
</svg>
